<mxfile host="65bd71144e">
    <diagram id="Xl9AFFBzPMosjo7Lo3r5" name="Page-1">
        <mxGraphModel dx="1326" dy="692" grid="1" gridSize="10" guides="1" tooltips="1" connect="1" arrows="1" fold="1" page="1" pageScale="1" pageWidth="827" pageHeight="1169" math="0" shadow="0">
            <root>
                <mxCell id="0"/>
                <mxCell id="1" parent="0"/>
                <mxCell id="7" value="http://ics2o.mths.ca" style="swimlane;whiteSpace=wrap;html=1;" vertex="1" parent="1">
                    <mxGeometry x="40" y="160" width="590" height="460" as="geometry">
                        <mxRectangle x="100" y="150" width="150" height="30" as="alternateBounds"/>
                    </mxGeometry>
                </mxCell>
                <mxCell id="13" value="" style="shape=image;verticalLabelPosition=bottom;labelBackgroundColor=default;verticalAlign=top;aspect=fixed;imageAspect=0;image=data:image/png,iVBORw0KGgoAAAANSUhEUgAAAggAAAGGCAYAAAAernlWAAAAAXNSR0IArs4c6QAAIABJREFUeF7sfQeYVdXV9preGNpQpUoVURGwYMWCYsFeElNMYkn5jCma4p+YmP6lmaZGE0v8EmPHXoIFEXtDQQUFQSlKHdowfebOn7XWXnuvfe65M3cqU/Y8jw5z77mnrLPv2e9+17veldHQ0NAA4SdEIEQgRCBEIEQgRCBEQEUgIwCEMB5CBEIEQgRCBEIEQgSiEQgAIYyJEIEeHgFHIma0cSQaICOjrffZxqcYdhciECKQMgIBIITBESLQTSPAE3+KCXp3zNuxycwAIrrp8AuX1Q0iEABCN7iJ4RJCBCQCsYqiVoCB9CVKGdAissADDQxoWrSfMARCBEIE2jwCASC0eUjDDkME2j8CSexAEyCg9WmEVFrmlqCPJliDJNAAIVXR/kMqHCFEICkCASCEQREi0MkjkLLOKDI3J6cUoikGmXn1B/2JP/5YTYGAZPDgswBxx5PX/HNKYg9CWqKTj85wet05AgEgdOe7G66ty0YgXYYgtc5Az6z+BO+nDfC9CHAwm6efXnBhzrCaB71Pdy6+aDH1OeI5xQocI+xCEEF22SEeTrwLRCAAhC5wk8Ipdv8IpAMI4sFAMivgpxP4/biFeKMGKC1xR2mEaIi+lfQ3vRDPKsjdj9Um2PMMYsfu/y0JV9jREQgAoaMjHo4XIqAi4E36KSbY+NSBnlABoqv96Pyu5lFvHo7CC3+B3qCKIFLN/uYTlM1w2yTxEnruz0iurYgyD44ZiE+TJDEHASiE71WIQJtHIACENg9p2GGIQOMR8PL8TeoIZP3vNnSAocFjBvTkLsdwEzVPtPhZnIz9T0YZBjW9p8MkpFlJSSAgsq390/xDv+3924KPZMCQGix4mCUMyxCBEIFmRiAAhGYGLGweItDSCDTGFqROH/A0qRmCOCCAE68vMDSphQYfIuhzTwIqKcCAW5xHNjCTdlMSRuI6vI0YoqQqaZRN5TPMLvCxG2MWUgGFUDbZ0hEbPtfTIxAAQk8fAeH62zUCjYOC6KHd6jgOEMj0jBN7NFvPk73SGzQk6w5onzJbGhMlrVBQu2hdTDyigM+UAAEeGxkMN/PTSfpAQP9tTiPCLghg4M/FwZOIHiGkH1p3P8One2wEAkDosbc+XHh7RqB5aYQ4YODSADJx++v3Bmgw7IAFDg4j2NQDf9YkFBQ7r8+P3xWmQnYiE7sBGlpUkDJwyat8py0wE785lOxdgINONeC/7fsaHCQBBXciDDp0+iFGtGgCFRiF9hz5Yd/dKQIBIHSnuxmuZbdHIBUwSOVRkA5TgBO47FezCHKxwgzIvjQT4G1PC3inRZAVvd1PJHoCLlLaNcv2saJDtTMzd+PE3NTETxO9Yhk02RDVMBCQiIIGCxQ0uxAYhd3+xQgn0CUjEABCl7xt4aQ7WwRSpRIc9a+TAiwWjE7M8ZM/rotFT8CfsKxAhuyHZ2A5FsoQvf2bhXUUZPAHWA3g0hM4QSsqwgu0pvNNnsOnNXjtn4FnwBO04SVoJrfaArNPO7krLYNLG/A+EDAkaxKcFkHwQGqg4M453oQplEd2tu9SOJ/OE4EAEDrPvQhn0sUikGRfrObPZMGgUPh6Oua52KP7zYRLoEDpCPBYhsBnwGDe05+Pgg7LFigGwrEOPJf7zAbuOeVFyLRufkeQgTf7cqWEwBn5tzf5m4lfZAQOBPDWDjzwXvBVhDKiX0jJRjTKKqhzsloMB9OC6VIX+wKG0233CASA0O4hDgfojhFIL5WQrC2gCd0s0PUU6wCAAww8+buCRP05m07wQIQBHIQeVCkj/6kAhwEC5iIYFPiqxiRiII2byHsxFQpm5hd+ghkEBRxMusEHAwZK4LYmzaABhMzpmaqhk2YhNNOQzFY0oVGwrEloFpXGrQ6b9JAIBIDQQ250uMy2iUBcKiGJSTBiOU8TYIBBlC1ISh8YQKDTBAwShKx3eoSEykkI8PDSCBpcRNIMBqMYNOL7ItCxUjaAaDyOmkhw1QaY8vD1AswAGEghKQYFGiQlkSkaA7MN/u2BBlX6KKyC3XdUn+ClNmLYBBuU4J/QNt+WsJeuHoEAELr6HQzn3yERSK0xEJZAaQpsmoDnWbeFLza0k7lZvSZUuoE/p7aXlIJd9bv0hGMWImkJu79kFsIBBP6XSy3IdbhUg2geYgOtNALRng62tFEVI0qaQfsg+Ct/XsHHMQvudT8NwaCBPySfo9+Um+C92896IIHeSfZYsLcy6BM65MsVDtJpIxAAQqe9NeHEOksE7GLaS8+79IFAAM0YqMU9XYYTEKoUgmULHJBANJHQIEABAy/FoNMPdhs32cukruY6k2bQHoq+mDFVvBslE2IqGPR+bPmhZRAkjeBqIxyboCZy3K/oFLx0hAYQDihYYOCJGkW3wEBACxq15kGXR0akFDEGTZ1lVIbzCBFo/wgEgND+MQ5H6IIR8NIGKYEBX1gSMFBCQ/Qq0GkEmbiT2AIBC1Z8yOxBVIQof3uvR8og/TQGn4zVPsi9UCyHniC14VLybVOBiG3/pCZie1TlhKDAhKzuY3UDhhGIpgw8BoEqJXjS5zQEH4fYBAMuhB/Qn5Nr0kwDbRcpcYgDCkHE2AW/yOGUWxWBABBaFb7w4e4agXjWQM+ubvVt2QIvRcCvIhCwFQcmbSB/i4ZAGAP+nWEZBPmbNAiRqoUkfUMkJSGgwP5WoMUqFs35SioDfycS+B9AXaIe6usboK6uHuoSCahPNEBDIkHX04D/NuR8ZlYmZGVmQFZmJmRnZUBOdjbkZGUCvY6reZnsaRbnT3nVCCaktjohplIhU6UJMnk2B/wtQECAgUz0BBpsWsGJDqNAIR4k+CkjCwpM/CI4orsO/3BdIQIUgQAQwkAIEVARiAIDX4Co1ARqwvbLEX3fArfi9xkBqU4QAaIHAtRkH/95Pg+dRtDpB3sGEbtlnPxr6uqhoqoGdpZXwZYd5bBhaxls3l4G23ZWQnllDVRUV0NVTR39V4vgoK6ewYFlOLTOgXP0OIFnEkjIgJycbCjIzYHiwjwoLsyHAX2LYI8BfWDYgD4wqH8x9O2VD7k5ObzSN5O91SNEyht5AtdpBF+fEE1B4Hm4VANDEc0oNClu9MCKu9dRkEC1GgEphOdGD4hAAAg94CaHS2w6AvHVCfpzZlKOlh3aVTj/I44xoNW/0hL42zQAMglRIEDsQwQoEBCJHF97HUhpIx4r0ZCA6tp6KK+shtIdFbBm4zZYvWErrPq4FD7esgO276qE6ppaAgzMGjAIYMbByz9YRqOxKEarFxAwyIo+KysT8nKyoW9xAYwe0h8m7zkUxo8YCCOH9IO+RQWQl5tN4EL0Cux5IPrCKCgwnggGYBAoUOJEYRsYGGimQbwUhHkQQaM5T8U4OADgdCb2+pSoI4CEpr9XYYuuHYEAELr2/Qtn3wYRiGcNXBkcTZpqztSrdbuy5pnVAwJ20jdligmjFWDAwNMwTebK+AjTCvpYVrBo9i0TuJQi4j5wm5raeti6k4HAB+u2wJqNW2EjsgPbdsHOiiqorK6FuvoEH9ccQFb/fEx93NYDhAycoRsaIDOTkgIOfDQApSJyc3Ogb68CGNyvGMYMK4FJowbDxJGDYUhJMRTk5Sh2wa9M8NMLDixwSsGABQUepEzSAgn1niEwrGMj/e2lJhxA4GGmmAMZBDH6hTYYkmEXIQKdIgIBIHSK2xBOYndFoGlwwFoDmcy1RYB+PSkVoFb/jiHg/ZD2wLANWoiYvD/XZIk+IkCiAaCqtg7KKqqIDfhg7WZ498MN8OEnpbBh607YVVED9SgkUD92ZS0zppnY8HUNEHClrKdFpw3gmVNoertrDXYIADkzJNyPHFdACTEVEYEjHiM3JxtKehfB3nsOgYP3HgUTRg6Cof17Q1FBDqUvuGxRlzKa9EGMFkHEiyxgNEJGBSBYx2DeU2kNSVFIuaQDDE4/kQwSgmfC7vruhuO2fwQCQGj/GIcjdMIINAcYGHJAiQ0VYDAr+DgRoVQqyOqc//a1CDQ5qzSFnUjNClUbJtXWJ2BD6U54/b218OLbH8KaDVuhrKIayqtqoK6+3ooH48KtAYJM+kjrI/VfkJ8LvYvySTeAq/peBfmUDigqwNfzoCA3F3JzsiA7C4WIWSRIxEkbzxVZieraOmIoUNuwo7wStu6ogM3bd8GW7btg+64qAjLVNXUERCid0eCDF83Q4H7zc7KhuCiftAtHTR0HR08fT+CBgEJShYOvOxAmQVIMrrLBVDlkKm1CBFxE9219FUxAxcNB/B58bULQJXTCr3k4pVZGIACEVgYwfLzrRcDqDbzyRQsDYjsn8go+WWcgKQGdTkgFDOK0Bvy5iICRQopVA0AaARQSvrPqE3h16Rp498P1sLF0J1UWpGN2SKvz7Cya7FE0OLBvLxjYrxcM6tcLhvTvDYP6FUNJnyICBCguRCCAAABTBNaAqKlbbBbYci3IXtTWJQg0oNZhfelOWGc0EOs2b4eNpWWwbVcFVNXU0jVqQyh9KDz3nOxMGDGoH8zYZzQcvt8YmDBiEBTm5yR7JCiBYhw4IOBgmAgrXLQiRlciiceXzxODoN0dlS5CzlNrE4JusamBEt7vahEIAKGr3bFwvi2OQONCRCdCFKjgaw2UbsBM6q5MkSc5ZPV1qoEAAa6atQjRMAbynqyeeU3NG2LVwIZtZfDqu2vg1aWrCRTgRItVBa6qIjkMOKEiI4BswOD+xTBycD8YO3wgjBzUlyoI8PWi/FzIzs6EbMMC6G6JNCEqZ0GOSBNOSFauwP/gIkar5PM0GQgckG0oK68m0LN87SZ4f/UmeG/1RmIbKqsxNeI+q68Q2YNeBXmkU5g9YxIcss9o6FdcANKXwYoaqaqCtQRRoKAFjVR5IWZMpiyS9A1RN0ZlvOTbPksiJqpLCCmHFn9Bwwc7XQQCQOh0tyScUHtEoHE3RAcO4rQGzqdARIi84teeACI2lIoFqUBgICDAQcCCKRVUpZL19QkCAR+u3wovvvMhvPruali/ZQdUVNekZApwxZpnSgqHD+oLew4toeqA0UNKSOyHKQOsEMjMyLQrYW+Fbv9wuX27MvZugpkMtU+SIBvd/VFXQERbTqv9yb1AMIAsw5Ydu6i6YtnqDfD2B5/ARxu2UsllVEchu8D0w8SRg+DoaeNhxuTRBIYw/aF9DQT42GqGCBjA121ZZCb6JiiBowEFDiwoLwUrZGxMlxDSDe3xHQ777PgIBIDQ8TEPR+zgCERTCrY00HQMjJYOOmMjXx9g0wlmYpe/RUdgGQVjJCQsgQgTNZUu2+KxERg89tJSeOzFpYAUfG1tfcrSQgQFqAMYNrAPTBk3DI7YfyytqnsV5jlWQPsJ2Bmfqwp0u2S8TkeLy4SnXQX9agZd1ifpFkMbmGnTVSvoW2z8nyxQcmQJ718AFMaxri4B60t3wIJFH8Azi5aT8BJ1DnE/CAowPfLpWdPg5EMnEyDSAkXxUZCVvxg3CThARIGvIXyj3+Zv678QUz7pUg4CGpykM1oKGVIOHfxFD4dr8wgEgNDmIQ077EwRSC1G9MsJ8ZzdpO3nxfF17XZoWQKVaqBUgkx2Zvto9YKci0yEuFJ++d2PYP4by2Hlx6VQW1cXyxbgRJOfmwMjBveDfccMhWkTR8Ck0UOgpHchZGdnJbEDzhDI1fhHMwVCBtheCYYJ0A2WMCZR0iDVvdWJAaeNiEnbOGbe2T9Hu04CplkSULqzAhav+BgWvLmCfm8vq4wFTvl5OTB++EA45fB94Mj9x0KfovwkjYLPFqjqBqlyUNUOtvIhzvJZaR10fDzgRaiHIxVAQmd6GoRzaW4EAkBobsTC9l0mAumCA1nB8mo2yhq411CBjz/1SdoCrTPgfyf7GfB+UEewbPUmuGf+m7Bo+TrYXlZByv7oD04sOdlZMHxgP5ix72ii00cN7g+FWPany/1kCa87IOrWymaFHG2t7E9ucnTpm8A7sE4QinnQ5ylMjEyCjlWI6T9hPmhTOJH+ERx7JwS1olAAYhA+2bITFixaAY+/vBTWbdoOmJKJ/iBYmjBiIHzm+APgsH1GAwIHtl3W/giufwMDATRTQr8G/O3e0yWS4shIpZGmdBPPz2oSIl4IgUnoMo+IcKJNRCAAhDBEumUENDhw4kRHacsiT4MDX2vgPAvYmdBUGhhjI/0aTlXu/eSKBHxvV2UNLPtoAzzx6vvw2rLVULqjPJY6R9fBQX17wdQJI+CgvUfBxFGDYEj/YhIf6nbG0p0wQ8kDXBmeU99bIGC1hiwj1AAgeRsHGNwqOF48yIZNsr1hDMwL2vBJAEDUBtpt45eOxoEFNINC34fn31oJC9/6AFZ9UkoaBv2Dkz6mHTB2px+5H+w1ahDpE6I2zPK3Eysyq2C1CaYJlHZjpFJRDTgiqRzfWdGkcwKT0C2fLz3logJA6Cl3uodcZ1OWyZ7PAKfl6SdVuaIHDIQ5UNuLUNErbRSbZONwiM6Gtz7+Crz5/jryChAgYqfhjAzIz82G0UP7w1HTxsNJh0yGfsWFro+AqizQ/Qfc5C1GQpwTcDbFvp2wAAFZ4dr0AbEFLpdu0xEy8dv3kwdRMkvD29h2TmYDYQ4MRKMTZeIkuWuldpbE0xL/CO4/wdvX1NTBc0tWwT8ffwVWb9hGzIz+QY+HvsWFMOewfeBTx04lfwc0dbRsgGECmClwgkViEszfXBrpWANrrhR1Y9TlkF5OQYOEIFzsIY+gbnWZASB0q9vZsy+msZQCTS7aEdGkiT3L46j7oWENyOBHTVRSmeBMjkyKQVUroEIfNQb3LVgMzy1eBdt2lid5F+BcUpCXS7qCU4/YFyaPGQoD+hhDIK83gGIEJC+uV69qghcRnYAHUSFYUICfjylK0GJFCxaSqhYi4yvWR8KJHTU74xgEvxTUCkKjnSWVPtJP+7hmURhjtJee98oyePC5t8lECrULMg4QTKFtM4o5zzxqCsyYPIqrHTzPBNOvAYGAYQe0BsExCq7xk8dGeOkLZ/3sIhWYhJ79VOraVx8AQte+f+HsTQRSViqgf74GB7qvgmqupBsjocYAZ5mo1sBVLUT9DZxAEVX4m7aXwX0LlsCTr71HExjmy2XlixMxphHQpOiAvUbCzP3HwZQJw8g90E7uRmVoOx56/QH4gnmSU1UJkT4CsUyCAUXyWeYXeB8+FhAUocV2MXJFJS60HsyKMWBQEE078DE1o8AfYZAlQILfT3aZ9JgIAW4NDBQeeeEdqgRBu2ld+YCsQO/CfJh14EQ466gp5A/BTIFzYXSgQKcZuLoB45NFZZI+0yD3y7ajDkxCeB51swgEgNDNbmhPvJxUNLd0FUiabMwHpKtivXIy5F4BLuUggsMoa2BLGBWzgD0Q5i9aTqvZj9ZvZadAJ+mn8kRMHRy6755UlrfnHiVQaIR0oh/wa/n9zoWS/9aTP2MJXgXTP5XbX0aG6Ytg5nZb3RBT3uh6LqhUgxpM8Wp8ZmX8H4wfH5Deww9SfBUwsCDNVZJIigY/p3tV6A6Z0TSOMBTiRIkmTFgNcseTb5DOY1dFtU3n4NGxFfWk0YPhU8dOg4Mnj3KxV22hWYfgswXMLIABFa5LpO0RYd6nGNoUTxR0BSahJz6buvo1B4DQ1e9gDz//VMyB5LZ5bapo7UgL5SRWACcoAQkJl/+WNIOAB8qNm5QC5r+XfPAJ3PLoy7D0ww3kFiiVCThpIK2NlsYz9hkFZx81FUYO6ety4bKKVatPnvB5crWNhXTlQkz5nXgYWjZAixJNTsGVNjowYVGFlDQSPhBNQhMIwaz8ZSvpMGl1iypNIPeBwIKuWFD/jmUMlAtlbDdMW1rq9ltTl4A3l6+D/3vsFVj60XrjQGmu2eg9jjtoL7jo1ENgAPZ4MKhKLJiFNXDVDQ4cCNNA2xgmRz5nmz15TILANo4AgQgTt9Auuoc/vLrA5QeA0AVuUjjF+AgkgwO3nTY/wokcH+ZeY6SIpkCbHtkyRQIL3I6ZqxZc3wQRzu0sr4Z/P/E65cHRLlhbBaNQDhshTZswAj53wgHURyAvJ4vnZEVv+6yBm3isKU9kVepe5ylfl9vJ5C6Tl0QkKkzkiSoinHPyAXuOqkShkWFoyhpjCh2EYeC3nA7EAjebVmg8naAtq0nkqQCa3GvNPCBA27y9HO5+ehE8/Pw71NBKsx1YQoodI795zkzSfniOi0bAqCsa8F5Sekj7JVBppGEUJAUhJY+qh4MGAqEEMjzNulIEAkDoSncrnKuNQFPMgcxVceZHMrnrtIFmEixb4Bke+UJELK97YckquGf+W2aV6urycULAvgf7jd0DTj9yXzI2wioFWUsmgwPpUuj3D/BK6lRLBJvz9ioWmBbX61UmHVxZo/eeiaSkHfz3IkjB9mhIHoB+62YlUDSbRjMQQjowq+MEh7bcUXQhhhlIXXrql6FqkMD4gd+vqqmDhW+thLnP4H3a4Pkn4GQ9pKQPnHPM/nDijEnQp1cBAUmv3NFUMRBAkDSD/q16OqTLJPggIVQ3hMda541AAAid996EM0sRgXSZA5ejds6IuoESMQMmjUBtiJUzYhQkCC2Or+8or4K5CxbDvfPfpHbGns4gMxMGlRTDWUftDycdMomAghjypNQXJJn5OIZBdxb0RYsRkaKZ6ekYMQ5+jkGQSdy3CtaQwMoRY3SJKQdlJJ3A2xmBopQzxoAGl27gHUR1Bb6YMdmQyvpRqNJSek2JHOvrG2DVJ1vgr/c9D4veX5tUEokNrE46dDJ8+fRDoSgv14kRpdzR+60AhGEQdOMnCxKUeVKU8SEwJrEN6YbwnOvEEQgAoRPfnHBqMStWo4oX2b02QdJldfLvpEZLZoXq3A65C6OYHXkAQvke4P5Qa/D2yvVw3X3PwXu4GlUOiMgK9O9dCLMPngTnHjuVzI5oYohqDLR+QInbZFL3DX2cyt5N/DyVJ/shxPRasFbJRjBHkxJP2g4m2I2Sgt0cfCB79nZi9AMafEjFgmyvGQa78jdgg1NCfnmqFpD64EClgUxFBO1Pdc9E0ejcZxbDnU+9Adt2Vqiek0AtrqdPGgFfP+tIGDtsgJdycIyCgAOpdDDaBMU6kLGSqnhwrJGxrTb3PwoS4kWg4QkQIrB7IxAAwu6Nfzh6MyKQOq2QXBKHu/XNj1yKgNkBnnxwkpf8NoEEI1DEygad504kEjB3wRK4+ZGXYMeuSq9nAk4KOKlces6RMHX8cMjJ5poCO1lENQe2SZBJKUTe122J44yReOJ2KQU92ch7WMEgnRRsGsG8FJ34lamy+UyMmMDcJ8mnJ1cvyI100MNPPxhTKvO2PoIVJyqUISZKtgGWBg1JzbJM2aligDzwQG24+f7X1tfDq++shr/MfRbWbdzujT6cpIcN7Av/+7VTqTNmFhorGaEo6Q9MmgF/e6AhJZPg7lG8LXO0VXRINzTjcRA27YAIBIDQAUEOh2h9BNLRHGgGIa7zos8OOLoaQUJS6sG0acb9YMniPx59BRYuXglVEWtfNDY67ch9yf1waElvjzWItgumOnoBDqJ0N6I3cfizaYgYESPDAr/1sC2rs/aHLtZJjokyydtN3No+eQXbXP7A5xAcM8DHSC6GNCehUxORChP5jJQxRlMHwjgQAxSxwG6qLBW7RN744AvULAstnPUPNsX64kkHw3EHTbQdMvm+OZEig4Q00w0xDZ50vK2I0Ss/bf13JuwhRKC1EQgAobURDJ/vkAhIZoGmIfOHFrkxY8CnklStIDRzwjc/0qWLzCQo/wNsylSfIHDwv/96Ct5Z9Yl3nbiCHDmkP1wwZwYcPW0cO/SZSdoBA2WsY7sGOvtjMd7BHYvWgEVyfChthiTTNeezJc0gxY0mpx0zwehpPtorQEGJdryHjslw944PZwGA+SOWVUhR5aDvdRQM0L3UbJDZWIyvRNdQVlENf757ATz16vvELOgfFCx+5zPHwMypcm8dGJBKhiiTECdk1Kkje5+tPkFiE8of23EAhl23IgIBILQieOGjHRMBuxpVvRNksolWK8SBA2ETxBBJOyRaG2WdrzaMwn3PLobb5r0OG7fu9FIK2HoZtQZfPOkgGNy/2LEGUYaAvP9da2FHV5uugZZF8KlsBw6ifRWS2QNjl8CAQt0OBwYkQnGMAL/XXvX4Tm8QPbY7J52qkImbfBQUs2BLJZWVNWsReLs4y2t3X6OpJQYmkkpCkPDYS+/CHU+8AZu37/IGNApMPzv7QKpywCoUXdKYCiRwV0iXjhAzJUkb+SBBDud0JcEjoWOeKeEo6UUgAIT04hS22k0R8MGBW3GlEiRa1buUKOJKVTEHAg6iIIEnGv6vvKqaLHtveOAFaq5kH+MZ2ACogOjnM47cz2oNUln2ChtATIBy47NpBJVu4EZATtTIEzcfmbd3kyyxCDF6gmSGIB4UtAgQxMkSmpmFcIJSiagPXrRnAr0j7Z8jtsv4lgcEtbmVasWtwZ/TnbC3hRY7oi3zM4tWwJ/ueiZJX4LM0DfOmUlNn/LzspPKIPGeSbpBgwZrzywAkcoljSYhySMhAtRCqmE3PW3CYaMRCAAhjIlOG4FU4IAnCD5tXa2gyxplQqBJ35QwWgEi/Z1BwAFLHfVKdNO2XXDNvQupdr6mtk6BA4DpE0fCF08+GKaM24NSCrwaFNW6ZgUijX00s6ArG+zrvnESg4J4rYEABgYQMkP7NL6JTOPMQGodoivBa8HISAYBZicRMBHPLvB1+OZK7h7z/U7u46ArFeL6Zcg9pnEgAsfIvce0BJZAXjd3IaxYu9m7cmQSTjl8H/jSyTOgMD/HAwk+k8BVDfia78qYnGqypY8WCBp5qSr5CJUNLRiA4SNtGoEAENo0nGFnbRUBDQ4sEDDOf55zXkS5LitDqUiQyZ+6/FHVgvxmKx0NDlZ9Ugo3PfQSgQPcTn6QXp4+aSSVwI0a3M+mFLQIUf6Nq0n8sb/jtAdWc5Awn6SlAAAgAElEQVTMGMSyBZE5tsXAIAkUtL9qPgkwxLAO8cyCDxR0yoEBIl+MV87aANxgS+6rAEMBicYfQffb8MSpiQZ4e+Un8Ic7nyHfBLHLxuMU5ObAxacfSsxRXq7PJEQFi1FGQXwwpOGTgD9imHC80LgW6Bd6NrTVMyTsp/URCACh9TEMe2jjCOiKBe1zwKtLNwG4CSKmhBEnC8MUYIkiAwa2TeYJIsOWQeJkg6vGX/7zCfhg7WbP3yA3Jxu+fNqhcObM/ah1MK3tVTqAm/gwfRx9XUSI7IfgVpF++SMHz/ZQEF1C2qAgxSRvwQCvyjvTatQDBEnMgmZD3L+jzAF+TKcZBDREtQlxlStRfYLdxqSjPli3Ba6591l447213sguKsijbpDIIiFoxHMgBiGTf1O6AX/bCocY3wQLGF1xqROlMkgIJkpt/EAJu2txBAJAaHHowgfbIwLpuCTKapLp4kiJoslBW62BTS+YngoRU6S6+np4d9UGWjUuX7vZc0XcY2AfOPuo/UmkRlUKpomRaA5IgKZcELV3P6UezGSf5GugLJI1Y6ArFWQ9KeBBDI5czGOAgccQtD870Nr7nwooxDEKUQbBChoti+AbJXkVKcoyOw4c6D4c8rl1m7fDL26dR823NJOAOoRLzz6KrJnx39qWme+/0SSg3kABB9qORKvJ6ScaAzE6E6ZIlOtiawMePh8i0MwIBIDQzICFzds3AtFyRitLFAW77d7n2ydbEZoVGzYoBoGNkWz+2bR3RnHai29/CH+6+1lYv2WHaw2ckUHVCT/8wmzYf8IeVAsvK3zd1Me32G1gS+UYXYI8/HX5Y1RjEPUs4DSCry1IYgG6GCBobOQ43wS/HMMHC06jQADB7FD0DJIuYvAQX70gJZD6t7hqCpMgVQ6rN26Dq2+fT50hdbVF/95FcP6JB8KZRyFwNKZJJl2AaQRdySDjBSUrFkwgTNAVLoo10ukj54/Q+cFe+z4Vwt53VwQCQNhdkQ/HTYoAPYTNLBhnoawrFEhBoDosykPer1LANAOnF2zPBQUOnnztffjnf16Djz4pteAAH+5Txg2jtMJ+4/awfRQcG+ALE33AkFqMphssMaXs7I8tc+DVx2sOIWYVqVIILapK6KTjLw4oJIOESBmkWWnrygQ3Vgw4NOJHESoKYMTxwikoTjlZkGBYh5Ufb4E/3rkAlqz8WLXwBhjYtxguO+9oOHy/MSqlwGCBQIJhDOhvFC5KKopSDIZFUE2fmCniz2lgaP+UVtGd9L6F0+qeEQgAoXve1y53VXG6AzFCwslUWi7jhVlK2OSM9QpQU8i8SnTCRD0BPPvmSvj9HfOhdEe5XR0iUzB5zBD4xVdOgZLehV7THkklkN7AMgV+5z+a+MVtTzsl2hWi69roOSDah7+ff0+a+A0o6Ex6gvYaaKnTD3LECJsgVS0xlQ5eFYsSKrIehccTjqGkElgzvhAk/Pa2p6gbpAAYvAdD+veGH3xhNkydONzqD8RtUZc/CkiQFAQzCUqzomyz+XVHDQWXxfYaYWG/6UQgAIR0ohS2afcIJDslRs1yeF1FrIFlD/jBricAzSTQatAq2ZlxqK6to7QCdvZbu2m7AwdZWTBz/7Fw0amHwuih/eh6kx7iQhN77X5Vz4WIENGKFlV+WcrbND+QnE6IUMoqldATwIEebI0zCj5IYPDIn46KGrXOgMdLhjduoiZaUZ+M5Ws2w6//9QSggFHSDXjfxg0fAD84/3gYP3KgESo6C2ZJKzhGQb1nyl0FNIhXhtMjyAgJVQ3t/vAJB0gZgQAQwuDY7RFoyilRpxZEua7dEV0po9Ma0KpQCRJFfPbCkg9JfIYtm+VBjwLEgyePpgd9/94FXqdEz29frfrsKlBVMQiDEDVOEvpYBGe+IM2qLOg+6BWjmerazelwt9/4ZpxActmroCam5D3nRatT4W2i2pNYxok8EhyToNkmGV+vvbcGfvV/82DLtl1W/4Dpg6kTRsAV5x8Hewzo7XskqKZOuvSRxpQ0eDINoLRJlvVIkFSUtrsIqYZmjJqwaWsjEABCayMYPt+qCDSWWrDAQERntDR0lLAFAQ2mxwL2T1APenkf94OvP79kJdxw/wuAjXpkesHOi8cfPIl6KuyBzZZMmZms/pNV6m4VqMsYRYDoaw18nUG0SkGbI/ulbeZC29EGuVU3bTd9OC7t4JfBOl8E32kTGQNly6yErJ7bIjluGlZKMVMieMSKl9eXraV0w8ZtZTYKudlZMOugveCb586E4oI8qz+QdAOXPrpSSCmDtCZL5uYj04B5LU5nie5EGSiZYdHTWKTdNNzCYXEMNmh5bghJiEAHRqAxvwMxwtFNebQokcRl8jA3oIBNcgQkKK0C+RxsgW/9eS5s21mhVn+ZMGOfUdTeN8c0W9KeBX7OOFmcqMsapXqBLJMb8zWwdf+88vV0BoRagmK9qSGYXAqrWRg2WJIqB8ssmLGC+5ZW3g4MREABAs5IOaxNUSQa4K6nF8HND70IlTXOaTM3JwsuOetIOGPmFK5siPRjIKGi6v4ojZ7EPMmls3iAaBOuJCbJGIY1FafwfohAayMQAEJrIxg+3+IIxOkOaIoUO1yzzE+yzzXe+1GQENuMKdEASz/aSD7776xa71HDxx44ES6ccwiMHNw3ZVohqUOfKNCFIvask5Ex4AneLAYpNvrfwhrEMQbdqRqhxYOiGR+Mc9uUydR6ZZj90Zgy+pUkFspjpVjT4saWDx5wSGKDp7ueWgS3P/E6aVrkBztAXnr2kTD74L2sbwaDAgaXFhQYLYtX7RAx2rJpBsUk6DETWIRmDJSwaYsjEABCi0MXPtiaCCSXNJpHu/I7sA9ySw8bQaKlgc2D3LT35fSCYxZwQvikdAdc8deHYcW6TZ4CHUsZf3bxyTCgb5EVIzILkNzWV+eLiR2w4MBVJbgSNQcItNeBi1VgDVozbqKf9fUrjCgtn2ABJqO0KEgQQBlNM+DfBBAMEKUKB2oHzqkK1LaUVVTBz/7xH3jlnY9siSwee+zwgfCzi06C0UP7u7Gk2AMSLhK7kMnvY+rBmCp55Y8m1eD0KnwxBCJ7UDVLW46VsK/mRyAAhObHLHyilRGId0tkoZmvO0h2SmT7ZAEKDAa4lj0KDhpgy45y+ONdC2DBog9sbwV8vk4eswdc8flZMGZoiVfKKMLDzIwGT0RmQYOYIBmTG8cUuLp2V76Y3EbZW/WFdEIrR5GCXEJFmfRN1ENDQIPnjWBe9MCBl7LiVASNL1UKqcto12zYBr/515PUv0E0LSh4PWjvUfCdzxxLZlvRCgatR4j2cHDGW6pFeJLLoq5qCOmoNhtEYUexEQgAIQyMDo9ActWCU6FLi6TGrHJp5ZeQB7iuY+fXccW3q7Ia/nLvQnjkhXc8q9zhg/rCNZedA4P797KKc1n9W6tcEYqZznwiGhMmwbZvtpbJcb76mGxAF4aI1sCWLIaHe1sOvMZ0CV6FgwWhDDRxZndMQqRk1uhZCCgYkKDLH/GYmL76/nUPwrayCns5OD4unDODejawYZLq00CpBsVSRbQJZN+tSmyF1bLsgU05BBvmthw/YV/xEQgAIYyMDo1AvFtifBtfXcoogMEKyyIAQT/k6+sTMHfBYrjh/uehorrWXt/Qkt7wzU8dBUdOGevc7FRKIVp+5lTmxutAP7iljt3s3fM3sEJEeqyH5jsdNMKaDxJcwydvrJmmXsIcRBkEDRKqa+rg7vlvwr/+8yqUV9bYKx3Urxj+3/nHwYGTRnmAgNtBiyZBKhtEn8CVCzLuxHHTFyyGVEMHDadwmFDFEMZAR0bAr1rwKWKdWsB3xCs/ZX6YVnUiJvMrGhYuXgm/u+1pKN1Zbg9SmJ9L1rjHH7QXVywYsaErY1SuiIo5sA9rY44kgkNbtRDtvhhRH/q+BoE1aO/xljZIUD09Yr01bOdPxVRp8aK83wCwY1cVXDd3ITz+0lKvZ8OYYQPgf796CiBrJZ0eCQCY8SWlj5J2EJtmq0XwjLd8G+YgWGzvkRT2T8ubUOYYBkJHRSBOUKZbOLvqBddnQZcyCnvAlK9SlyvR4poN2+HKGx+h9s3ygw/cz59wAFww5xDIy8licEBiQ7eCsyWNysAmWqpmwYH5PNO+uhOfK7cLwKCjRlXycVzlNt+cdDUJwlJZd04jeOWSRz/NwNoEN04/Wl8K3//rg/Dx5h3euMP20OiPkJWVSS3BrR+CESeSDkFXNdhW0aJrMUJYVT7rxrV0rArAc/eNtu595AAQuvf97VRXJ1qy2EZMOjcsRjYRr/wkwZgytsF9bi2rhGvuXQhPvvYe1NWxmgEfwDOnjofvf34WFBfm0UM6aoKUJBaLgATJCzMY4Ae37qXAqzkBB6qxUhAi7rbxlw5IsLbMuvuj6fWhezTIuBNgWh8RyUqVw1OvvQ+/v/1pqKhSqYb+xXDF52ZRqsF2flQpBi5/NEBVmAWV9tJmXFEb5mipbCh93G3DrdseOACEbntrO8+FxVYtGDMbPEuxwuUyNFelEDU9wtyvX8roejHU1NXDDQ+8AHOfWWxr06liYc+h8KuvnuLKGaWUUa/UDJCIahCQQfDAQUrmQGLt++Z3FdMjr9+BGjZdfcJJFySIblQcE7n7p3HnlCoZwxgIGLC/DYjFfdTWJeDWx16Bfz7+iur8mAGj9+gPv7x4DoxSpY/WelmxWKhNEK8EGYuUylJ2zHh7XMdH35q7q9+vzvPECmdiWaqQYgiDob0jEK89UGWNERtc11XPULhWkMglZ84QSSjeBliy8hP48d8fg03by6hcEh+WQ0v6wLc/dRQcsu+ekM1m9yQQQ/qfhGKW2nX2ydoHQeeCk5mDaBlj12qq49kWU64kMgpstQWzI13VxCktkKB6N4gWRpczalDgsQm2vNYAVQCy8f7R3x+B1Ru2Wt8NnPQvPPUQOP+Eg1z5rBgnGYAQtWPWrJZlEbyUltw0N+4CQGjvJ1nP239gEHrePe/wK45LLVALZ2QRIqkFu4qT/K800DGaA1fFwA9l3B67Ml5+zQOwbvN2u3LrU5RPtehHTx9PqzKrDhe2wKzK3EqOdQm6zMxgClt2Ro9kT3PAoexKVG/UfZCm/6QXlVLekSP+tXb4KGr5Ae31mRvVVIoLr14aNNkGTrqZkxmLddG+H4bheumdD+HX/3wCtpVV2pMu6VMEv7/0DJgwYqBvxiVVDea3NVBSYDba8RHHKY871achmCe1fICET6aMQAAIYXC0awSS7ZT5oSZ++bbXgjFAwteRJaDfFiSI/W1EmJhogNr6BPzlnmfh/meXkBkSHi87MxNmThsHV5x/PPTKz+EJ3gMEpi49IgjTFQ1RVzsfHLgld1cBB/HmVHr2j6MQ3Gv+dXY9RiG+uoHvo4xFbdTltRSPlD1qK2ZbCqkcPGtq6+DPdy2Ah59/x7os4tg6YNJIuOqCE6FfcYFt6CSVC1L+KCkGZLw0MIj2/XD23cpnwzBn7fqFDjvvUREIAKFH3e6OvdgmHRMVtcsWydFOjQwSrFEN+OABAcGCNz+Aq29/BraVlRM4wAft5NFD4BdfmQMD+zkzJJs6iFQuxLnZiYixqbRCVwQHevXMeQVnUuXyDMIgCBCKVGd0UfFlOiAhuTkYN36yXgiqtFY6h8a5ey5fuxm+d+0DVGorBA02dEIfjtMO39emGqIlj1Gg4OlipA+IwW1JWoQAEDr2AdcDjhYAQg+4ybvrEn32wK1WdTMmonNNLwUqXYxpxGQfxJ6lMsAH6zbDL//5JKxYs4nYA5yw+xQVwA++cDwctt8YS+VKDlcb1NjmOcQuOGtb21VPdWR0aYWuyBxIHwLd8ZD7EhCTY26LmfMNd+2ggnAILr/dtVesqRs8JZt16SZhnGpwtt5i721ZrojVNwoW5z77Ftz04ItQacy6MHJTxg+DH33pBBhS0tt6I7jSR9bGsB7B/Funx8QXQdJcXjvwoEXYXc+57nzcABC6893dzdeWrD1QD+GIMNFr3axaNiM48DrrmTa8+Pqv//UkPPbSUkDnRPzBFdqph+8LXzvzcCjMy7F+B9q9TgsTMzIafNW4KYGMF4WlotuVBmE3xzvu8O4euHc1pa5BglyhgAYNDlzTIIMhGCc4/UUnvPZUp+SLZh1w0ikG/CyBVaOTiWst7pwWOfXl6WMAoK4+AVfd9BgsfHOFBWTZ2Zlw7jHT4OJTDyVPDgsExLjLlDpS6aNYNFN6zPglSBVDki9C6NHQhYZglznVABC6zK3qWifaGHtAZWRGYMgMgp9acOWM8uDVGgTut/D2qvVwxV8fgq3GAx9X/rg6+8H5x8OwgX1odWbdEvGha3QIUdc61yDHGNPErNKIN1Ap+q7SUU8DNJ4GWRhKoECJQzVIkFHmwIHfuhrjxT0mXGfBrqieTzbtcukWqmSIpL+k5BY/h0DAMQhmjBrBotbPIBB5ZtEK+MWt8wAtmeUHLb9RsOh1fBSHRWXFbHUIqpdDur4IXfGedK0nXM842wAQesZ97tCrjKdx48oaje+BaYZTj1OPKWOMUrfif4AP3U9Ky+D/3fAwLF+DLZx5wutdlA9XXXACzNhnT08lzs1ylOc9lTc6AZgTJpomOUbMiPtkL3wBBz61HgUNHRrgNA7mUgjOwCkqxrNgQRCDrXVkakBAAqVdYis4pBlVV2USTCBNK2gJq41TEsulGoMJIDBpLw1qLeOVaICdFdVw9e3z4dk3VxCjgD/IDJx3/AHw5VMPBWQU0LxLGjj5pknJvghUaaPAL49TQ+d0cdCWxrAOm3RwBAJA6OCA94TDxbMH/HCVuUgEiaJB0GkEpm5NK2dxSzSpBdQp3Pn0Irj+vuehtg497YBsbA/bd0+48ksnQHFBblKfBaJqlRmSV/aomuNYUWIXBwd6vueQJ7fSFt0HT4bMClhBgnGMxFelpbXvJulAk8xNXXXFmlxlQ9CPGBbp0cBsi2onrjo7ioDWuiwK2FX23+9+uAF+ctNjsKF0p/36D+jbC357yWkwceQgC2gdSED9AQPbbOuq6ECE78+hrb79ktuuek96wjOyq1xjAAhd5U51ofNsifZAOyR6q7FI+mHV+q30sEWBoqySsSkOUrZDsGpB2dSK2Esa5TgmwbAIEZc6FiMa7/suyhzYVbD5h8RIcuj4ss6ra2MgXcUgYk0qEZX212bGkYoQzaJEiyS7ynBNN9WgBYteCa7y55Ax7OtmgDQyv799PrUeF8YLJ/lZB06EKz5/HBTkZjNI0PoDLVQUFoyYL+nRYJgDq0VgYGPvSRfVh3SVcdNTzjMAhJ5ypzvoOuNcE+WhSASrlDIa7QGuzHQ7XX64JjfGwRVveVUtXH//8/Dgc29b9gAp2kvOPALOPXaapV7ZLdFvpcvOiakcE4WmNfStVYdHDIOa8dC1E08k7h2xqqN4o1bAIDUxn2IDIGYTdHvsqGhRm0GJWZRrQWxSMYbmti6LDR3jjdAecZV4MfOSnJLRXh0SQ89yWWsSxPUz0idk0fJ18P3rHrQVDXisfsWF8IdvnumbJ6nqBVd1w4wCMQwCaiOdHp0vgtOGaADXQV//cJhuFoEAELrZDd3dl5OcXohqD8QB0aQQSKwoPRaclbJuzCTWyy+8/SH87z+fhK2mthwn/An/pWh/dtFJMHwgttQ1AEBbKFv9AYMAoXHdqtg1YHIMgtbxp68O15MLL+Uid0N2Sy+334QarVyIK9cT1T1T6UCuf2+u+JjObOr4YcbMRwMtaYftizk7YsXaEXGNG7fi9smsi+hleLzakkcpf7TAgMcy6mnq603ZbgNXNPx17nMwd8FbtuoGx+CZR+0Pl5x9OOTlZKs0mGvg5Dl9Wotw3/UzWoar/Tk6ApDu7mdOOH77RSAAhPaLbY/cs59e4FlStAfeQ1Y64iWVNBpVOD1chUkAqPuvSyKWjD375gdW7IXCxEvPmQknHLwXZGM7XVUqZtMKog43NC2LvLjOXBwWnXWtFnxFRYmpJ/SoKFNufPJqN2YfbWw6FBUnasdKSjNYEahrdLWrqhbO++ltsOqTrXTqY/boD3dc9TlyoRTWhVawEkNFc7Pdb9uLFaOmRi6mboUvryVNgi2wHU7P1Eu3IfcFi1qLoFMMOnW2btN2+Naf5sLGrWX22YB+CL/6yikwcVQqLYITKloBo4xzw5RJWozFigp8NoPx6pEPq3DRTUYgAIQmQxQ2SDcCja3CWOiVXFeua8frRBFudQeuo96ry9bAlX97BHZVVttmTMcfNAm+97lZUJBncrj04DSNmDy2wNWUM4jwbWztCizOeIaft7H1/nGTWCoKPC6G7WFf7LMHekJT1tXiLYG/EwD3PrsErrplnneKP71gNpw9cz9mXBTtreMr6QfiYNrQF6FxW+jGR6MHFpoJvnw9gjsOpWhs2WMqwaJiv0x8CSgYjQKeSm19PfzprmfhwYWLrX4GY3vOMVPha2ccDrnZEV8EjLs0c1KljuLlEW+/rHQIjYzddL/TYbueHYEAEHr2/W/Tq49S2/R88h6ubFtLvgcptQeuxlwqGXZV1sBVNz8GL779kRV55eZkw28vORUOnDSKVrZij6zTCM7P3vVeEG1Ca82QUpntJLMHvv2QrLh5O8VSmId5a1MPcekFWxEiqZxEA2CjIVnp/vvJRfCbf8/3xsL3P3sMfPa4aezsl5lB3TAJKKg6/SSxYitXrPFWyK6ET/omuNjZoEUAXPrsT/QL0BKQS70ZDBOm/RFIWxPRIrz87kfwoxsfhcqqWnvoUUP6wV+/+2nABmNeJQNpDjIgK8u5Kjo/D+fzQZUmEbFiSDO06aOtx+4sAIQee+vb9sLj1OBxdfeSv7XOc6akUcSJUYEi7uPFdz6Cn938H9hZUUkrL5yk0O/gpxedBEXYjMl2vtM2tdGGTE60GDWbifodNLWyT15pMu0tYkxrX+xLGQgPWAOiSJUEwQU8cAvocX0n9bFFnCipGqkOwXRNHaYaDEjYuL0cvv3n+2HZ6o20q0mjBsMfv3kGDO5bxICAAAI3wbIAwUxeUpMvMWtpNUPy+HEAStgnhaEEWzHMEr8KEwgHwhyzobdrbOQ3WdWg+oVYwaIte9QsgjFUUmwNjvnyqhr4zW1PwYJFy23nUWQOsLHY8QdNNOyWYQ5UVYOtcJBqB0+sqHU0yWmGdK+9bZ8IYW/dIQIBIHSHu9gJrqExcaJugOM1ZBIqFlXgqDmwdrVOe1BRXQPXzn2OKhcSplsjqr+xhnzvPYcktc6VVS2rvk26IVK9EF9HHlnRNzJRp2JKvMk5ck/8dbA/qUnbXlcRwFOhez39Gyxli/gJaw9sOmSSAyB1wORKkTr8be5BVU0tPPXGCjrQrOnjIT83x7EHtILNgBz8rSctm6pxtHZLAEI8G+NsuSkavk2DtWyQyHgqfi9VZGLdDHbDr2pwsXftyf3UjfPscI3FJNZxvRqeX/Ih/OrW/0BZRbUFOJP2HAp//uZZUIi6j5h+DCJWRCZHGDPy8zD+HrgjAmsKeAYWIf3vTdgyPgIBIISR0SYRiOa+RZwoD3a7mrUrMBHM4Uo2obo2+vbKr7y7Gn5921OweVsZW/ya+vErvzCbhYk6N2vocHrAmppxKRWTOvP4B6qb1txDNX6CjhNhRpkSnM3ErtebyewD3EyoBpNokaTN55vlcnNU6PoeaHGisDPEGtQ3QC2mGOoT/NvoEMQUSGCSpGpwQspBBiErk34j3Y1sggAwNym1TIeQClgSwDExcMCL4xobU7NMTnZ8VKWqzQIJyU2unI6GvzIagIlduNXRGDCGr9dFnEK3l1dSp8el/zVQkp+c7Cz44Rdnw6wDkEXgyZ5TCz4oI6GoGufaKpw9KwwTRTsODZza5OHWg3cSAEIPvvltdelxKy47aSq7WsseSFrBlog5MZe2qS2vroU/3/UsPPbSu9ytEQAK8nPh8vOOhdkH76Uc6HzrZNEeyMOUQURjwkSZFhsvaUzl8SBgQEoGdQtlSTvw/OW4cAYFxpTJ686XfC7pgATreUCzJ6c7dAMhZAsQDNQmElBbz1UhyCQgSLCqe0P1aFEiggJkDjC9kJMFkJOZSXqE7CwzUdkWxLqaIT32wwdb/HkLKJUoEF8XsEDTnlKCSkw5Rq4Ek4CCirmIKNNlZuJTHlLuGBXcStmjq8Bxbco57gImUJdQ35CAvz3wAtz15BsUe179Z8Csg/aCH37hOMjOyrIVI5oJ04yYrSgxqQaxw3bpMl+s2BJmp62eD2E/XTcCASB03XvXac481SrQM0YyfgdcP64b3OBkZVrpRlwT0Vzml7c+QRa1uHbMzsyCQ/bdE7772WNhQJ9CS6/K5G9rxsWFzlgsa9W3Kwnz6dh06P3k1ILzdLAVGjiBJVjprmlxuVluheuElTLJycNdfnsixia0CVEGh8GY0xngRFSTQCU9A4Ma85tBQwOV3s2d/yad5lnHTIXB/YuZOTAAIRcZhCwEC5mQazoNij5BVrzpVDOkyvHzilxW5vzbGjwZq+Mm45nJEdO9IziWarJsAYvA58IrcseIGT8EZcGsuztGxYpUzWBLehsASx6/+ce5sHl7ma3KGdi3GP763U/BkJJiSu8Ii2NBgkqZWSYhItANngid5rHYLU4kAIRucRt330XE5Y/lNaGto+59fs2467mgNQi44v3T3Qvg4effgdpaauNEznPf/vTRcPS0CcrwyC/DyzJtcSXFIJoEmcS04ptX9W4lz7MS/y8u/x+dhDXlTB4PxrfBggPT5yB6d/RD3Bo22WZIyVbPvmgyueQy6gQoTIYABAQBSHPX1DE4qK5PQE09QC3+nWiAypo6+OnfH4a3lq+lU91/wgi46sunkAUwMQjZmZCbBZBnQEJudiZkZzB4EFAmJY82bjHOihocpJx0zSQsZYUu7y+TtB9N2y/C2GQjGJSeGrE5+WYBBLexAASbOot0e4r6D88AACAASURBVLQMgWf65Zc+SvqBgEJ9Aq6+Yz48+sI7lkXANM5l5x0Dcw6bTIyNtQaPWDALk+CPcVXVEHQIu++B2M2OHABCN7uhHX05jYkT3QRq7H11BzxZ3RoBHTsnuoY460vL4JKr74aNpWwqgxPPwfuMBtQe9C3O55SBpVexqQ2X4clDVVsrR22C3QSdrPhujM6PVifYycuUckr5pm1EZVgT/hyr7OjYpjui68qn2ARzrfHeDH4znui9luMIe4Dnh0CLNQfIGhhwUMdgoRrfq0/Aq0tXw69uecSq6jGOP7hgDhy09yhiDPKyMgBBQW52BoGEXEw5IJtgUw0ufcPTc8yPeVFlB4gh0OkZrZtgkIPjxrA0hlFw4011mFT9N7AskBgjFUcxEGpJpUVT4lsHCp0bqGVu7BhnQOAakvG1vbXiE/h/1z8Iu5RYccr44VSdU9KniEWiRoOAY4UBWaRSx/wdLduN6/CYbnqlo58h4XidNwIBIHTee9Mlziw5j+zU524l63KwzsOe/Q6Sei+YuvG5zyyBa+9dCHX13LERV1ffOPcoOO2IfWlyktJG7XtgV1ae45+vT5BSQ0fjK21AE6tLLZbTIky3elQd/xoAKqrrqHQQu06O2aME+vUuhAwBCSpfHtVHWAMcVcLnXPJSmTYxCKGYG68JjK2kEBAIVNchQGiA6rp6qK5lsFBeXQd/uG0evP7uh954O2DynnDZ52ZDUV42gYK8nAzIy84isJCXzakGSUHQStZOyhFGRu1VgwPd2dOWCyo7Yw2yhJ0hwJkBsG1nBaz6pBRQ2IclmYWeUZaUs0abTDlWqDn5+DgtgpdmiJh/udSCSu9ErMR5vDTAtl1V8J2/3A/L1260xkm9CvLgZxefDAdNRn8P3x7cVZA4XwSueOAxLFUNDC7xO8J6FKe/6JptubvEg7CbnmQACN30xnbUZSXV/KsHZvTBb3O0ppxRd78T4IArxrKqGvjB9Y/AG++t4coFyIBB/XrBtZefA3sM6KMaMZn0QiQ3aysXtAYB92Jy1KlKwRpbYUWBkF7ZOgGa01IgbX/x7++FxSs+IUHghBED4JYrPg1F+diO2ukfeMWb3ERKVoS8Eua76TMf/PDXP7QCtwCB0wrCHKDmAAFCVV09VCE4qEtAVV0DdcX85Y0PQnkll9zJT1FBHvzw4tNg3PCBkI/MQXYm5OdkQD6ChOwMQE2CMAmWvZFzTKJhnHBSl2Hac5XzVi2SCSBQ3t7P+6OPwAW/vhOWr91CNPyU8XvAjd85m9Ih2mRIgyyn7G+Zqj8VCI5rPqbHgpQ64rU4nY0YgbFY8dp7FsJ9zy5W/RkAzp01HS456wivnJHaPptUgxaIuhSPCDSjzbQYOIrHRjqC1456doTjdP4IBIDQ+e9Rpz3DZPpVsQck1jPNaqLOidIPQFv+KtX9so82wveue5BWiiJOPPWIfeEb586kfLjrs+BKvnyFN68ixe9Am/nEqtvpGdq48j4WIJg8NAMdZg94IgB45s2V8NWr53r37utnHQ4XnHwwT/ZeG+VoIynXGImBgi+8E1igXRllpSs6DqlMEEGiAIKq2gRU1iWgsjZB3TGvvfMpeOPdVbFjbPrkMfD1T88iM6qCnEwoIJCQaQGDCBfFbVGEcwJmDKzxDKR02ol7c0i5oGNfdHdPm2owZ3jLo6/AtXOf9873hsvPgqOnjqU4afdMWlFbh0FTZWHMqJozUTY5zuUa1HjXPgjWBMw4K+pGT68uXQM//8fjsL2s0oLASaOHwtWXng7Ya8TzRFDlpQzKJN0g48WNE7/csfleEJ32oRNOrEMjEABCh4a7ex0sVX42zhgJt6WHJv5Ggx4Saillt5lkkQr/97w34KaHX6TSRvzp26sQfnPJaTB5zyGWTqXVlDGJsboD8USwzIHTKeB+dM0+34n0V1a+QFGVuQnI8TQVDfD4K+/Dt699yLvh5594IFxy5uHmNbfiEwAQRyl7K2HjXoh5CqnG4GnPXI2pXCDtgUkvIHNQg6kFBAXIINQmoAJBQm09vL3yY/j9LY/YOEdHZ1ZmJnzngjmw79hhUJCTBYUIDggoMKOAmgQECVT2qEpJda5fGANSGzRk2AZcml0SgKUZJgFcwtTIVV533/Pwz8df8071j18/FU48eKIycZISTIAMc14OVKXurdHYt9MHiAzx4pqQ+bbWCdscS4Cj7s+An99VVQM/vOFhWPT+WpVmyIWfXHQyzJg8yjYWs5bX5I+QaU2s7NgxYAhBWtxYb4n+ons9rcLVtCQCASC0JGrhM2ZVyFy5rWQQzwMjyENAICvAJI96I0oUHYI8WD/evBN+/o//wDurPqEHME6E+47dA379P6eSV73O10uZHQu5ZBXuaw6i4i2XXmietXESQCAqv4FYEvbhd3oKnAQ2bSuHr/1hLiz9iO2Lhw3sS/bFewzsy2VtKmUgPg0uNSKiSz+fLmZPnjmRgIOI3wRpD6hawaUTEBQQc1CD/9XDPx54Fl5c9F6jo/nQaXvBl06fCUW5WVCUm8lMQk6WYhFYj6BX7pIKYQjmWCWbNlB2xVLRImZCXhvlhBExGhdF3O8nm7eTLfTHm7fTee89ejBcf9lZMKifsYUWYyFcXWOMCSyaPLyka5pRySDBiWcRXOMm/Be1JZe2zxH3Squ3UUJcSbH949GX4V+Pv2q7lOK4PvmwfaicN1lj44yqok20eHxw/4bU5Y7peVSER1yIAMHgBu06EmISIpBmBHzxlkwFvKoSBgEfgLRSNA9Fpl2NHS3R8QnaVje0eeLV9+H3t8+H8soqOhMUJ5577HT46hmHuUqFiJOcNUbSDIJqSUwCv0aa2aSr7pbJThsR4WtC5wutLKZEFTV1gNeztawSjj1wIvQuKjDKfJ44ZVUrD3Xrt6+pZPEcsEp9EQQ6kyWzOKedSjUIuiYiOEAGATUHqD1A5qCiBhmEeti0oxx+ft29UFbO1Haqn+KiAvjRJWfDoD5FUIgsQm4mMwnZWaRJsFoEc54Sa6OPY98AA6bEbVBAAIsoNbASq2LX6tuNLKbJcf87yyvh6dfeh/7FBdS/oDA325o3WSGfGSO+uyBPjs0RKTqAYO4YAWJ+1ZbzijjUAGLt86FFuAyC/O8AbrvovXXwgxsehArTwAnPDwHlzT/8LBQV5HIpqWHLtItlNK3mwLMGCL5hUqrOpGl+7cNmPSwCASD0sBveVpfbWF6Wc8uSU3Y5ZgsOohoE8+BEGvzq25+Gx15eCglccgFQudf/O/84OHjyaOecaAVbaKmMDYQMe6AslqUuX5vmJDnr8VM+7Z4HuopBBHaUOjEAiGyLdWmhKS8Uup9+k0FRAjIRFZgfzpMbS10juERghIyCeA14JW6iSTD6BL3KFQ2C0x4gOGDNAQIDZA/Kqmrh9kdfhOdfX5rWcDj8gL3hMycfCsX5OcQiIFBAJiE/O9MKFqlPg3VVdLv1dQbSwIi1GlJlgbca4+Ktss2kK3vCPhzEVKiUhjg6OjtoPgcNGJ0GwVWrtAQgmKFiGDN3fTTOYzwRkqoZhDGTxk42NdUAG7ftgkt+dxeZVclPQX4OXHPZObDXqMFWh6BbP/ttoF1VQ+pyx5ZZYac1QMJG3TYCASB021vbvhcWr+w2tLtZNXKKgVdMVsSnPOp5peX8DzZsLSNx4sqPt9BqGFfUB+49Cn78pRNMesH1WBA/esnNMhXrpxecTz3HwpUKpq890FGM80GwlLishgUgmF4HOFHjZIir+R3l1XDjA8/D2x98DMccNAmOn7E3FOTn2aoMnLhc90T2GkD1Oqr1s7MYDFFXRbGNNnlnWRMzKMPqBZxwje+BFSUyOMDUwoq1m+F3Nz9glfNNjRTMeX/3wtNh/IiBKtWQRaLFvBxdzSClhTwFi2GUMEhUVUGMQQLqjN2znKttP21YJ0lPVVZVwxMvL4X5ry6DfccNg4tPPxz6FOVxBYVxeWQ7aIyRAARnnsVjoG1sh5sSK+J1srZCmBw/7SQAWafb8DNVtfVwxV8f5KodM8hw7H/vc7NgzqH7cNqAOpY6HwQECD5zZgCa2VZSWMEPoanRHd5vLAIBIITx0aIIJOfk+cmmHfDkQSnUsjwgrTe9MAmmmc0Tr70Hf7zzGdvlDjsKXjBnBnzq2GnG+9+VA3puciiSEwrePCDjlP88T7h8dHPpVv+anc2yTp0wS8D5fzQoQoGgUP13PvkG3PrIi0Qz47kMHdAXDtlvHMw8cBIM6NvLWesa0Z+bAHny45bLeK0GDGHZpjGM4gnZ2SuLYyL6HVRiegHBATII1fVw97yXYcHLbzfrvh81Y184d/YMKMrLgiKTaijAkkf0RzAOiwLQZIXOY8E05TJujsymMIDhvhBOUMkCPp5ct2zfBc++tgxeWvIBrN+ynSZOnDS/OOdQ+PRx021qA4WSGiBIt0NZYUsVSDo20E0FxE+rCVzktJqIMbVrKI57V81gUguGZfIEmYkGuOupRfC3B54n8EQalQyAUw7f1+oQHCBWIME2c1JaFZOOsB1Lo/0ozEBpThVHU3EJ73ffCASA0H3vbbtdWXJzJlerbtMLqsxRNwNK6nan+gWgOHH+Gyusqn5I/95w1YUnwD5j9rCmMbZ7Y5z3gersqKlWMUXyGvs0YqmcKnBRgMACTGnUw6tFbUxEk7RxLKypTcAf75wP8156N2n3vXsVwJwjp8FB+40F/LeI/rhJEjdLoknQOBcSo2Bz/s6ZUfQeOCnxsf30AoKE0rIq+M3f5sK2nbuaNT769e4F3//KWVBSnG90CH6awaYYTAti0Ws4u2fWnIizI4InAQfudwJ27qqEV5eshEcWLqJ/R39mHzIZvv3pYyA3hx0esZpCekRo4ybdxdMDhi0QKHoskhKPOC2CEyvq1BoLMJUhmAIHFjgQ65ABazZug//53V2krxCAMG74ILjhe5+C/NxsTq9J+slaLztWwWfQGEg73U3zHEObNTDCxt06AgEgdOvb2z4Xl5b+wLj56RSCeyg6MZrYz5burICv/OZO2FDKbZ3xZ8bk0fCDLxwP/XsX8gNS+ixEW+B63RqTuzaK7a5EQ5zlWrKK0iDBWQM74ZlMgLa8UKoIahPw5KvvwV/ueMqWx+m7g+BlcEkfmL7PWGIU+vUusoAglzopoiBQWRyL7S569hvjJdyfsBmWQagTYWICdtXUw0NPvwZPv/iWpbLTHSEYq2MP3R9OPfZA6JXLJY8oWMQJ2jEIvJL12YwEsQICnCT1QRoJBRi27SwnxuCNd1bCxtIdXsdGOUecBL9x3iw47qC9qNySj4020CyWFAClq1pEd9Kae+4DhOT+DCTEFB0CVjOYbqWcXtOOoU6Yq1/H7RBIXvbnubDkg4/t4dBU64bvnwejh/Y3OgRnvUzXSAyCSUspX4QoONZ9RdoqDumOm7Bd145AAAhd+/7tlrNPVfIlrneaZhURn6bhNaNApWGo5F7+MXznmvuhuraOrgkngy+dPAM+O/sAyM3OsqsnaVDjHoy8srLlYLr9rddGuW3z0LJ61DbLxCBgEyRDnRN7gI6F9ew/sPLjUvjhdffBrgqu0Ej1079vLzjusP1hv4mjCBzxKplz/XGrZQ0QGJDhOUgFg/geJGDd5u1w9Y33Q1VNbYvGDaZ8Lr/4DBg+sC+JFMUXQSZnEYv6ACGZVcGUC1s/J2DrzgpY8v5qePKFt2Dr9sZZjV6F+fDLS86EscNK2LDJMAiWRbBaDSeY9PQHrWQPJGhx6TUHEJzexgPHIsrUHTZ1uWeiAa6/7zm4+6lFFiBn/tf68ycXnQRHTRtnxrcDBJxKUU6iZtxrZ0URv+oqnQAQWjT0e+yHAkDosbe+5ReeyjRGVlI0aUq9t5QBGnoV87LaNAZBBb52x5NvwA33v0D2s/iDk9HvLjkdpowfxlUKxhgpWgro14I7RznJwQrYEKOdtrCc1WJFoZQFALH/AE/OVGJIFQQMEDbvrISf3HA/rFlf2mTw8boG9OsDB+43Ho44YBKJNCnfLkBB6RQIIJk9YjwJIJhzwElYyhufeOEtmPfs681mD+RkcXKZPfMAOP6w/W25IxkmWQ0Cszz4w/0gnL6AAYvxZqhDwWYVPPf6MnhtyQrYsm2HbRTVWGBGDi2Bn3z1DBjYu4ANm8j6mY8v5xCt9pDunbjfllYvRM8pChAIEIkvhm0yhWyOlPhyHHSVRlwfkmcWrYCf3/K4TbGh+PTcWdPgK6cdBrk5WVaEKwyJ6C3w/osVs2hvmvJDaKtYNDmQwwZdOgIBIHTp29fxJx/nf9DQgE13nQ6BFOgRwxh293OiLStgNCVuv7h1Hjz56vtMLaOAr6QP3PDdc6GkbxE92KmEzqyaXNOaeHMk1yVRDInathZclzviEbQTICr1nUGR0wCgSdGuqjq45s6n4aXFK5p14waW9IGjZ+wH+4wfQWWfwijkYGWDCBaNCZDEtbYefRAYoCA4wcZAf/3XI7C5lA2GWvozsKQv/M/n50C/XvnGdlkmZwfOpARUPADwXIQxKN1RDu+sWAvPvLwENpfuaNZpHDJlPFz66WOhV342mTX5pZamkiFimuWtnpt1tNQbp0qxcVMpXeLrRJdJDJoCDFKaitUll/z+bqhWDM/0vUbCTy48Cfr2yrcVLraaIaYNdNQLgdmlSOMmg2jiWpq3UYjCbrpJBAJA6CY3sqMuI+XDkR46Pr3qOjdqNbdriytK7p0V1fD1q++BVR9vsWr1mVPHwY8vOIE69klbZ13m5dsrOydFWUExc+AcC/2udul7H8TFNbqClO58Otcu7ZSxhA0tjiuq2ajoqVeXwU1zn2n27cISx359esGh0yfB4QdMgqK8HG65LF38zLVKJQMyCPgfAYS6BE3ITy18Iza335yTwUll1pHTCbDg6h3/47SHsY627ol8n2tN2Wd5dS08//oyePGNZbBtx66U9s6NnctFZx0Nsw6axPqHPCyzzID8HO4wie2onUjR9bIg5sD4UbdEc5Ly/htKwgkVdSWDK/f10mlKpIiCTesiatgWZFUu+MVtsGmbS7WgYRLajI8e0s8wCMYvw2gPdKmjTTlYPwq5JxEnSfNdbat4NGf8hG27VgQCQOha92u3n228/4E2i2Ew4AyE/LbOvv6ASwVXfVxKK6eyCu4omJ2VBV8+ncvZtBpdlNpaf8CthsV73zTnoUZNSHdLJ0TFILRhHpqZBHOtthcDr5Zd90TTGMkAhDWbdsCPrvFXic25qThBDxnYDw47YG/YZ/xI6FtcaPsg4DVLjwMRS2IlA67ab7njUdjRzMqFVOfVp3cvuOC8kw2b4aorxJSKqzuYVt9eVgHvrFgDL7y+FDZs3tZigJKXmwM/v/RcGDmoDwEELLdMNmtyPQq4BTLP4tpeuzmxbmzblGk2bXkdcRCVmPipBlMGSkxaPVx69b3w7oef2DRQ76I8+PGFJ8GMvUfZbo4IjqWDJpe8NiJU9JpVqXbPbfQ9aKt4hv10zggEgNA570unPauW+B94jWpMqsEaJ9UnYN4r78Gv//mkXVUW5OfCL78yBw6cNNK5J5o8e1yr293R8jZazYA5d2pC1SAAgXUI6GCo+x+UVdXBb255GD5Yvb5V9xidGHv3KoSjDpkCB06ZQCt4ybI7oSL3Ylj87kp4/Cn0X2B9R2t/8NgnzjoUpkwey8JJ5WbJ+2b24rXFy2HBS4th566KVh973Kih8P0LToHi/OxIXwjRIHCKgcAjshmm/r+t2QOJXRyTFuuHYEECN27SaTZMR4kLp5RD/uGO+fDw829bTQYKdL98xuHwqWOnGrMk30xLOlhyCi7ih2CAMttNGxpFfBECQGjt16BHfD4AhB5xm9vuIqNuglLqp41iyBjJiBNFyR0VaMnrldV1cP39z8PcZ96yJzmwXy/4y7fPhuGD+qp2t5Jv13oEsSd2JZC4XhSb5XhrZbWKamVY5JqlUY/47EsFAaYZML2A+gNxMdxVnYAHF7wBDz/9mu3C2JrTwAf/0MElMH3KRBi/53AoLCxg90oDxNDf/76HnoL1Gza35jBJnx06ZCCceeosKMzPYU8G0167oqISVny4Dt5Y/D6s31gaW9LZ3BPB+3jKsQfCaUdNh155mRE3R04veJUURqsiaaX2EOQ1VuorDIpzVPRbgTuLab8vA34n7luwBK6fuxBq6kw1T2YGnHbEfvDNc482TpGOLWDXTVX6aP72dAiGRQsAobmjLmxP/Fto1hQGQnMi4AMEJ0zkCgZ+4MkD0rnIuYZM0pxHVO5bdpTDj/7+mKv/zgCYOHIw/PnbZwHWgXt9FqxQ0fntk4KbzHkabLmjdLKLt5ltW4BA62XRXqBqH4xLoGmzXGn6IKDFMYKEXdX18ObytXD97fOg1kwCzYl/qm0x9dCrqBCOOGwajB8zksx3cIX67rKV8OyzL7fFIZL2MXPmDJg8aSzR3Rj/FavWwHMvLIJd5RUtTiXEnWhOdjZ87TOzYeqEEdALnRxzGSRQZ0nTdlqslrMjZa70kGuXq/fbbHOqicW6IlbkSh7+WwSb2v9A2ARhDxDYvbZsLfz05sdghzGJwrF88N6j4acXnwS9CvIYMFuxrmNMSJ+jmpjhNgSW0W3TYxBcT4Z0m5S1U/jCbrtABAJA6AI3qbOcYryDYuShqEocbSc7W/vtW8/ixPr+2i1w5Q0PwydbWNGOE93MaePgqgtOhJxsNgGySn31b10DLtt0tEGMBkvRiQAtltlF0ZUZEkCoqQPUIVx9y0OwfWd5m99apP8HDx4A48fvCQMGDYRnn3kRSku3tvlxcIclJf1h5tGHwpZNm2HFig9h48YtrU4lxJ1o395FcPkFp5L+oFcuphjYpAm1CGjSRKWW2eIq6Oy4RYTXMQDBtbW2YNmWOQpAdkDBdrFUTZsQSKzdtB2+85f77PcB4zF2+AD47SWnw+D+xQwCDFD2Ojua1Io0zHJ9SJx41HMSJWTbdmC5XQZY2Oluj0AACLv9FnSdE2iaVnWdG+NWTc4DgXP1uHJ6bvFK+MWtT0B5FQsUsWrh87MPhC/OmeF1b9S9F3S+1YoUzSqpo9ILwhzg8ozSLMZ2Wbo5ou6i2rgosgaB+yGUVdfDtopq+NP/PQar1m5o15ufk5sDdbV1bbqa1yeME052TjbUttB4Kd2LHzNiCHzrCydBv8I8KM7jltPCIIibonR21B0l28LzorFzjNfjZIA2DJN+DDbVRoCAS2Nd+2fzfWhoIKHud699AN5d5TQqaJb126+fDnuNHGRLHZlJyCT/g2hfkihIiFou2+qFABDSHYI9drsAEHrsrW/+hTdW4ig0O1UvSIMeJcLiRjwNUK+0CfjwvOeZt+CG+5+3DopF+Xnwnc8cA7MOnBjT3jmac3W5b35gSs13THmjmdHbsvY7OkGIHwI1I0qgU6ATKnKzJE4x7KyugweefgP+s/CN5t+EHviJE46cDqcfOx1652VzisHYPGOKAbUHedmYZuL+FFLpwmxU+66SU1b0GD8EYZVENKpBghYr2nJH46Hx478/Cs8vXmnvdEFeDlx14Ylw+JSxyZbLpDtQlsuqokf8QFxFT9v6gfTAodjjLjkAhB53y1t+wY2XdmGulTvbUe5VgIBx0/Oc48xqu7q2Hq65dyE89NwSq9rGBk2Yb91r9GD2P9AtbiXHqh6KMiHgQ1D6AMT6H7RDLjoWIJhqBgQIWEFADZMwzUAMQgMxCJhmeH/NZrj65gfahZJv+R3ufJ/ElMnlF54OE0cOpPQCMwgZUJibBfkGHHDr50xbvYAT5u4DCM4Dgb8L/Lff2dE19tJpOGHd/nTXM3D/gsX2ZmRnZcLXzz4Szj5mKn0ntFEYV20YLYLpzyA6BdEeiOWy8z1oWbvzzjc6whm1dwQCQGjvCHej/adb+y0NmGxL25i2t/jw3FVZAz//xzx48e1VBCzwATZp1BD4+ZfnwKB+2P5Y1XcjnU2Wy37DGrKUNcYwVIdv6r55gmi/icIHB9ziT/s/SLdCrGRAoyKxO8aGScgibC2vht/8/T7Y1Ew3wW40nNK6lEElfeD7Xz4T+hflEXtAjaKM/oBslsWoyYBGBxT5nrQni9C0aZj2BElYsSJ2NLWMmueoyMD6/x57FW55+CWbGkIh7vknHQwXzpmR5CgqPRm4osH4gUSal0UZBCtODCmGtMZgT94oAISefPebce3iGMc5d+Lr6QEsjZlYue0U28kaBGU7S93uGmDDtl1w5Q2PwLLVnItH1fVh+42BK780G3rl59LDPao9kIegOMhJb4bUAsW2Xy01Si2bFIu0MGa7Yyx1ZBYB0wxl1XVQVlUPtz38HLz85nvNuAs9b9MZU/eCz51yBBTnZ0FxXrZJL4hJEndxlJbYXGppHDRVor29tAjJ3wknVLRtzyMNmRA0S3UP+yA4sCBlkQ+/8A5cfft8yy7h+Z92xL5w+XnHeCBAmAQGzi7VEG39nAwQJP3SOkfRnjcae94VB4DQ8+55i664sYchufdRX3uxUfZ/0wNROQ3WJxIEMlas2wJX/u0RUmzjZ/HBNuewfeCbn5rJHRxN6VaSg6LyoI+yB+25WvJXjAyQxElRLI7Zg4BLHXECsI6KBBBQh8AMAqYaFi56H+56ZGFajYpadNO6+Idw0vvUnCPhyGkTKbXA+gNmELjdswEIyC6Z1sfSpMu5J/I9stqTNlw1x4Fm25fEfCecFwKnGjQgEKMkYdoEVM9/Yzn88lYsg0XFDk/mxx6wF1mPC1Pgu4lm+n4Ipsujq2Rgn5CMDBmz7a/P6OJDL5y+iUAACGEopBWBpisYmB4l/QGuiuhhqGrAvTQDMwgvv7safnXrE7CjvJLOAVXZ5594EHz+xAOd77wRH7IyO4PyzNKTAR960ulRnPOc/qDtBFl6IiDuROobTWOepFa/pmMlNW4y7Z6rraMiahAQJCTgvTUb4brbHoXq6pa1X07rjSwf/QAAIABJREFUxnXhjfLycuCSz50Me40cTAZJmF6w1Qum3TOWwqIPAzFKJt0k4EAbZclES+Ew968tehHEpZo0qyZ9OkigqEGycd1ErYqrdGBg/cq7q+Gqmx6Fiqoae/cO2nsU9WRAxsTTHMSZJaUACKHtcxf+MuymUw8AYTcFvqsdNmW+1TxstWKbu9Phwy5hcq0ICJRZjKFdH39pGaAgq6qGXeOQNfjGuUfByYdNpnpvzieb1ZEotaV7oTWFYZCgTWGSHBRbOSE0Co4UYLAxMHllbv2MXgjsiVBlKhmw5LGsph627KiE3910P2zdXtbVhkOHnG//vsXw3YvOgAF9CqDYgAOsYMjPZe8DbNJEBklmbEhPDjbI4vEjBtTt5QGQUpejUgvCrFnAbBpYidulVDdIV8fFKz4mbxBs3iQ/+40bBn/85pmQn5tttTmcZmNtjniFSEoOY0FdUPE3pV04N9ieupwOGRThIB0agQAQOjTcXfdgKfPuZoK0boIGCEhpl3ZT1G5y+DC8bd5rcMsjL0MdcqwApDu48ksnwCH77sliLMMexDdpMiZKRpilLZadg2LrXePizaGkra9rjmRTDCI6MyWeqEXgagZuu1xRx54I5abc8bYHF8Ibbzev/XPXHUXNO/Pp+46Hz512JJU3YnMmZA8KsYMkpRewxJG7SFpVPwICOx54UvTZBIINpokTD9zWlr02Jdz1G5cpcaJpZqU1CfKdeW/1RvjhDQ/D5u2uqyNW9aD9OLqLWvMww6YJQGBXUenHwNfJQDuD4pIRAELzBmDYOlgthzGQXgTiAYJf0kUeCEn2svE2swgQrpv7HNwz/03bpKl/7yL46YUnwv4ThqsmTbpqgVdEUvrIGgXXzbExi+WW0snaLZHAAqZRTJ279KFgQZprda2BkK1mwNbLlGZgoSKCBEwzLFq2Gv4598l2MzNK7+52vq1wUjv/rONg2qRRrv8CWivnZBFAEHCALZ5d2Z/voqjTTVzyx9dJE6b8u5WXHve90E2bGgUI+H0xqQYeM0abs3az1ebI6Y0fMRCuufwcKC7IMx1OVXkjlnhmNHCpZ6SqJ9kbpP0qe1oZyvDxThiBwCB0wpvSGU+paYDACm42SfKb03A3R2OURCCC0w//+68nYd7Ly2xDn6ElfeBn6IEwarDXxdEJspxRUkd0rovml/FvYQpkEqA6d+O3L/lmEZ2xYRKnGdB6Gf0QiEUwFQ2oRSjdVQ1/+Pu9sMvoMDrjvd8d59SrqAAu+/LZUNIrz5Q2ZpG1MoID9D9Aa2VJLziDJCl5dUBB9yKI9cdopWgxLv3kdXWUsW8AZFIvBkzDkauoMRhraIAP128FNEv6aH2pDf3YYQMIIPQpyncAwQAC1O7wdwRs62+8VusRotMt7Vj6uzvGSThm+0YgAIT2jW+32XssQDCiRLxIWilZcyS/5wKzCmgv6x6GtfX18OObHoeFb31gV897Di2Bn1x0EozZo4Rzp9YUxvkhULtnfF1+U44VJwSmi11jGuUz34JJQISIfFUZdI6YCBGmQNgSfFfaWXPTHdehj+x06xuglsSKDeSHgP9RyaMRLe6qroNb73mSOiCGHxcB7Ez5xXOOg1552dSUCcEB/kbvA/wvBwGCVC+oqhbNKHETLz8P71e5YEuriJi1mTeh7QACu4ziGFq9YTv89OZHYcVa14Fz9NASuO4750DfXgUGIBiwbK+d/xZdQgAIzbyRYfPYCASAEAZGWhHwV9P8EZo0la0sTZpisyyTpVJucztk/kx1XR1877qH4LVlq62qfNLowWQpO2xgX1vvTf3upYsjPgBVR0frGGdWS21pKRtlD+LTCMweIEAgYFCvgBGyBw0Jeo3TDEqsiOAAgYIRLc5/aTHMfy7YLuuBeMwR0+GYQ6aQ70FBLndtFO2BiBMpvZCFY0ILWfk1BAoyWeouh9ZMi3BB642UGgcIxknRVDBEW59zwyYBzQ4grN20A35+y+Ow7CPXq2PUkP5w3XfOhb698qnax7JqnkCRK4GokVlgENJ6roWNGo9AAAhhhKQVgZQAIbqq9vowaCaBV0eSbqiqrYPL/nw/oGJbfvafMAyu/OIJ3LXOiM0IIMSYwDgRo+lWZ0SNwiLQ41/a+LWUQTCmUMIeSOpEKjKwRE3SCMQU1CeMxbSx0jVqdQQIeN3U4RGBghEsCpuwdOU6uOuBp4IfghkI5H9w+izYe+xwxxoYYSJ2b8T0ApkjoSgPbZZNZQvl37HhF1Y2kP0yi/Y4Ny9pBzYVkrLY1jotth1AcCkGAgj/eByWfegAwkgECJefA/2KC9IECOZ6DYvC6RV+jTixdu5TkdZDJWzU6SMQAEKnv0Wd4wTTAQhsCsOrIlfWqJXbTsRYWVMH3/jDvfDuh65r3aH77Anf/dxxMLBvET/QUViGD3lxVKRad9OYRq2QpCmNPAStAK01AMGEXYsPdUtnnPAFFCBIWLV+K9z+5CI4+9ipMKh/HwIE3n9UzZAArGqQskcECsgkbN62C2761wNQY8o9O8cd331nkZubDRd9/nQY2K8XMQdU0mjLGo05kgUAAgQyYNPWHXDv02/CZ46bBmOG9idwoMGCAwlt1xK69SkG7Y/AnghrN22Dn978OCxfs8nehFFDS+Day8+GfphiSItBiAMIrEsIAGH3je2uduQAELraHdtN5xsPECKNaQQg2JW0evip/DxOtBXVtXDp1fcClnRxnh9g5tRx8O1PHwMD+iBAYPc3do7z67y5zMuJsNoLIHDVQobXfIpr1xEcADEGyA5gGePytZvhf35/NyAVfOHpR8DIoQPQv48dFTHFICwCMQ0MFohRqKsnXcId986Dj9e7CWE33eZOcdhhQwfBeWfPJq1BXnYWMQZoEIQljdyYybAHhkHAKW/N+i1w8wPPweoNW+Gv3zkXJowYyJUOuC0xCoaJEh8NAz7FPEiwZHMD0BRAIG2OKX21oNl8Fyg1JQZi9abBWUMDrF6/Fa666TFY9fEWezqoQbgWNQgoUkwLIASRYnPvZdg+OQIBIIRRkVYENEAw7CQL9nB6j5T46W6O1j0uBUCQPgx4EkdPmwDf+tRRMKBvEedQESAYC11tBJMMECTN4No9tybFoK9VdBbaCQ8neClfxJQBTvQIEL7xh7vJ/a6oIB9m7DcWZh82Bfr2KSZ9Ak8GDA4o3WCAQm0CWQWARUveh2eefSWte5GPfSogAyqrqtPafndvVJCfRyCwSjkDNnZOR888GKbtNxFysgByMiPAwPgesDlSBmzfUQbzXlgMLy9ZCeWVVVCYnwt/ucwAhOwMwJQEAgsGCn6/At0OGTFqS0ph29YHgRm2lR+Xwo///ggxCfIzBqsYLsMqhrxGAUIQKe7u0d69jh8AQve6n+12NR0CEKYbgNAnTYBgJgntOY8Tp/ghGIE6JV2b8/CPAgTXndIwAcQAANTU4+qfTZBWrN0Cl//pHihXk2B+Xi7M2H887L/3WOhd3Auyc7KhISOT0i+SfhBv/h27KuBftz8EtbXxtsu5uTkwZvRwOGDa3jCwpD9NuDvKKuC115fA8g9WQ01N57JrxvOdMG4UHHjAftCnuJAAzebSrfD6oqWw6qN1Kc83JycHPv+ZU6FPr0LLHrGWwIDAhgTU/Ve/srNsF7y1dCW8/NYKqKp2lsRoJHT1t86B8SMGUFoin9iHLMhFBsEABeulISZCrcjHpwQIRryrfRC09TgLW00FjAHPwjC8v2YTXPn3R2Bj6U77fR43fCD85bKzoXehBgi69XOoYmi3h18P3nEACD345jfn0puVYkhDgxCXYji6OQBBDJNMqoFXg45BMCJ1vsQWAAQxSNK6A2IADAuADACVLday6PD9tZvhimvmev75Et/cnGwo7lUIWNtf3KsIiooKobAwH3Jyc1A2BjV1dVBZWQWLl7wXywqU9O8Dc447FIYNHUirR7xO8fvHNMf6jVvh0Seeh63bdjTnlrbbtv379YGTjz8chg7uT/S+WP1yaWgCPl6/GR558kUo3Zp8vsg2TNlvLygoyIfc7GzsDwq1NbVQUVEF5eUVULarnDwjynZVQE0tW3TrH2QQfn3pWTBxxEAGCKY0MslYyYoWTZmjFrU2IzKNAQRp1OSNIenJQM28XBWDgAdk395euR6u/PvDsG1nhT0TrPD507fQSTFHMQgGIJiUA4t5XQWDGIpp0Byslptxc8OmwUkxjIH0IpAOQOAyR65WiPoBeI2bRIPwh3vhvY+cBuHI/cdRS9vdnmKw/RW4JJOvR0yPVIdGZZ+MNetXXndfLEBIL8LxWw0Z1B/OO/0YKOnbm0R38rDX/v4IWtZtKIV7HnyaJs7d+YNA6JzTjoXhQ0qI1pfug7RINy3BUdRZun0n3PHAfNiwaWubni4ChF9cciag86DYMrOWwekYor0bpNyxuToE0ajoFuh8jcZQy5pomVbnsd0cdbtnHmevL1sDP77xESivdMzI/uOHwe++cQYU5GS7FujYuMkIeKX815lGGQ8Iw5KguDf0YmjTodYjdhYYhB5xm1t/kc32QYgYBjFwcEZJyCB8449zYamqYjh48mi44vOzSL3ePA0C2+e2VRWDdGfEqOnadSxrpCoEU66IPgZieoStq39yfdsChAH9+8BF550IJb2LuJ2xSakwKYLiN/ZYQDYDRY9rPimFf983Dyord482oaAgDz575mwYuUcJiQpFJJhhgA2et/TmQPFm6c5yuOmOx2FLDJPQ0hGLAOEnXzsTxg8fYM2V0EcBtQgIElCHQGWPqtkXHsumpZpxYDHTcgCBvUEcQDAA0/iFkIuiBZv4XciA+voEMQlSQovxeXbRB/DLW/8D1YYhwXObsc+e8Kuvngq52cbnQFlM+82aTC8G06QJdRrsD+K3vQ5ljs240T140wAQevDNb86lNxsgWKMks3ryrJaxL0E9XP6X++GtFeusUdKU8cOoWdPQkuLOBxBMeoEmY3JEbLDgoKKmHpav2wI//9v9UJmmEK+p2Ofl5cIF5xwPE0YNYZGdyZ9Llz62fJaKCAYIFTUJeObFxTD/hUVN7b5d3j/msGlw9KFToDAXwYHrlyBNk+icVZoGwdby1RvgH/c84ekIWnNyBfm58KOvnAETECBgcyfrwJhBk6uAFmE2op0fm3PsxgACG2sxIyCpFdGeiHBXhKvCtkkq4pEX3oE/3jHfNjHDyXzm1Anw04tOIqAoBmGaNYjr5ihmSQEgNOeuhm11BAJACOMhrQjEAgTzwJfJSlsti8Og1+ZZOh2SaVA9XHH9w/Dqu6ut1fKEUYPhpxedCCMG9XUAQcocrSDRCbPkQemVORq7ZVkV0sU1Q4MQvU7xdEBanMoayccAtQcNUIGNl2rQNrkelq/dAr+68YE2Awinzz4UZh6wNzcmEnpc5c0p1saISeshyqpq4cbbH4N1651Nb1o3uJUbDR86EC7+zElQnJ/j5f2J+TD3RCZAZj1Mf4raBCx8fSncP+/FVp4BfxwBwg8uPh0mjEAGATtAok0zNnhSFQ3UIppz9ajpsGOlGeOEhhVXwfIQM6KVqCW3VPRIrwXbi8EwB7o3g8Tntv+8Bjc99KL9XiA7dvzBe8EPvzDbGj5JFQeVAEtPhqRW6KajJTEIzLLJDzMIre9m2SY3Leyk00YgAIROe2s614n5Yix+0PhljsnNmvTDT2sSCDzUJeCqmx+HBW+6Xgyjh5QQQBg7fIAFCPj8bspJUURw0tpXrwpbBxAc+4E0sG26JNoD03QJQcLydZvh1zc+CJVKUd/SOzhhzHD4yqdn0wqY8+emOZExisKHfZRBQKGkNIH6YO0m+Mfd86C6Dc4lnWtAtuNL586GcSMG2VW7bscsDAL2shAGgT0guDcFMjB/u3MeLF/V+n4UBXm5cMXFp8GE4QMZHBgWwYoVpcmT9dEgeNAiZ8H474Tfs0OEiq6Bl0kzkBU3Nzaz3xPjQvqHO+bDw88vsaAD43fW0VPh0nOPJLAlhk/sIKkAgjURcx1OrbV0LEBoXnVPOmMhbNO9IhAAQve6n+12NU0DBPZD8Ns9+1bL8h5TrNjN8SmY95Lr5jjkv6mFn118MqBiW+hRsVoWRbbry2CaNjXSrElMcFrOIEQAQp3up8AMAnZkxNbNqEH4TRsABGpzfOYxcNA+Y8hmWDsJymrc6M04xWCqKlALga6MmGbYWVULt9zdcQ2gsLHSBeceB73zcyi9gOeM527TIiYPTmySYT0QHIiTJJ77q++sgn/eN7/Vba8RIHz/4tNIg1CUm8WdIIVBEDfG7Exy55Qx1XqA4L52yQyCs1BmDQILeXH8cy8GYybWwO6jtXUJ+OEND8PL73xod4peIBefdjh85vjpRjuhejFQzwnjOKpaoVvtgWpg5ggEwxw0kzFpt4dL2HGnjUAACJ321nSuE2tstYQTsCvp0sI+80BULW/5gchNbK6d+xzcM/9N24Ogb3EBAYSpE4bRw5tBgu+iSCsofN24K9I25sEoQjNmEJjzJVq1GQ9CP8Xgzh8f6rrhEgoUK+oSBA4QJKAPwm9vaj2DgFUL3/rCHCgpLuDJ1pbp8YSLK0bWp7MATlwZWRPBKQ88p/c/2gjX3/ZIqyfcpkYhxvdrn5sDE0cPpgkZV+0FOCGrqgG8R9QR06j43TkbkWdNAkrLKuFP//dIq6saECB876LTyAcBwQGeE1YzkFDR2jX7zY7aCiBogaLVH0gbZ3TStI3LFItgvw98P7ftqoTvXnO/Z7Ocn5sN3z//eJg1fYKzGjciRcciuIoR+c5YZi2SYmhNj5KmxkN4v3tFIACE7nU/2+1qmsq36oZGRKfSZMAPvfp67lSnUw64/e1PLIIbH3oRatG3GIBc8K780mw4YsoYBRBM74Wklr5mBWi6OzofBH49ChAsm9BEhOIAAqVEzOpO+ihI9YIABNQg/K6VAAEn2y+dPQsO2HtPS48LQGAFPk9s8oDHOHMTKNNGuq4ByquZ0Sirroeb73kS3vtgTbuNCdzxXuNGwoXnHAfFeTwZF+VlQUF2BqVGUBQotfmSkrJAy7S/pjgSC5OA15d+CP+496lWgRoECN+96DTSIFiAYISKFiC0FYNgIsv6A2bQpAJG0ilJHgiWNUBHTWkVblINDUA2y9+99gHYuNWZJPUrLoRffnUO7Dt2mKq+UKk3k1ogMynTw0TMoAicBYDQrt+B7rzzABC6891tw2tLBRB0SZcVKdpUg4ACQ6OS37yj7Z947X24+vb5UFnNLoA52VnwjXOOhFMP39ewAgICRJjIv5kadmpu3alOWASeRF1umdmEpgPSKEAQYZ3SIGgG4TetBAgjhg6Eb33xFOhTmANFOVmWQZBmReIroFMMCBAItOBEW1dPKQYECWU19fDGstXw7/ueJjq7PX5QHPfZM4+F6ZNGQbEBB8h6FGZnQR52XzR9EyQPLoJVTIvYFAOedy2zHjsqauFPtz4Ma1shsKQUQ5RBQBZGmJg20iCQB4IZUA4gMEtC2hyTTiEmQYlzo9bjCBLENwQ/88KSVfCrW+fBLlWqiv09fv0/p/1/9q4DXsey//84yzj23hGhRCEakpkiSkWS9l6ab70taWrvpb1Iqr8UiigjLRSiNIQykr2d/e+3rut3389zjmO+zjn38356H47nPM99X9f93Nf3+v2+A2pXLScchLCDog800zAzX4HzzqJhk6T8fif2xrUTvWfBGIEIIBSMefqfH+WONd+szddFwKY6csRzqIIAAN//+hcMfvlTWLeJzX3w5nZu9zZw7oltCQDg7daSslSaxhr24ibznsnkKgFksqI45O1komOuKgZpMWB5XB0UaTGWsj5yEIbspoqhe4fW0PO4llAqpTjtxpWDQEoGkQ1yBYET+aiyQR4IvOBuy8yh3fjmNG57LF29EZ5542PYsGnLXrl+ypUpDVed2xNqVy5Lu/XUFAQ1XEFQkiLL8qQpIrI/9W1AF0rkTWAVAQHC1rRs+HjK9zBu8sxdPl5UMdxy8SnCQSjugJYCBJaMKgdh11UM8QGz/w6o02XYIAz/7loNVE0QbxDxShgxcRa8PNpX1fAybtm4Ltx7WU9ILZHsKgh4HSgnJfi98MA5z++EVD2ssmGXBz36xUI7AhFAKLRTu2dPLAgQ1Ii4mLP81QVLXQeptKpJde7Z8w+wkrB4xTq4begY+HMlh9LgzbBnu2YwsM9xkJyY4EhkWjEgYKDVA0p7lIqClFXxZsea710HCFws9rI1Z5REpkTZshgzSNCev/og3PfirsscExKKw38u7g0H1kRynQcI1ioYDX6wjCy0CseAT5cdeaDtkZYFG7Zl7jF1QLyrSdUW5UomEjigfr8p5ydLn9x5N7gMCh5HBVoKELDNsHD5anj4pVFkILQrDwQIt11yivNB8JwIdVPE4Kbiwv5n8KLXXj4KTO6Q4nFyCBSoukcUClpJcKmNJsFRfRA8qM6Be18fD5Nm/OLaLLj4n9TuULj2jI4+bEqqaOoI6bwR5Luh1TWEZdp62x1ezq7MQ/Q7hWMEIoBQOOZxn5xF8KZIt1UGCHFvioasqHG3+CxcBLwprt+0DW5/cSzM+X2ZO/5jWxwIt57bFTB0R1nmLvYZAYIxiknAG6DxBojXb90lJUMMQGAmuiYxqjxPF2QCCH+thrt3wyipSYPacOVZJ0CZEomO6IeLLQIEl0go566LmhrvsLujSAaxopGWTRUE5CF8+cOv8O7HU/bK9XFGz+Og3eEHEf+A+v0p4jkg0kx2LeRFCh/OB0GSLNlPglsMCrY2bc+EZ4d9Cgt2UfKIAGEQGiWhD0LAKIlJihQVLd4MnFuw8wBhR2CZTJJMNS0Q0qQOo6JisCmhmf/malz64AhAmao+MI/i0lPbQZ+OhwXaagiUyUHRcXNCSZVybnuCuLtXLp7oTQvECEQAoUBM0/5xkPHKqmGAYKWOnILovebJC8HYyqJZ0hMjJ8OYL+fT4oGPwxrVJi+ECv8qGqiPijdAqhRwC4FVDBpKg//OVQXrhaAL0q4G0yjZTJUC8bIYUDWwPTOL3RTTOaxp8POjdimLAasHl/U/AQ5rVId4B7wL5xYDkhMVIKg5jnIpcI+NBFA1HkLzpm2ZQYCwetN2uPup4ZARJ9hod66qpKREGDSwP1QuUyIAEEomsikRtkSIM4GgRj6Irg2JvlbDKbStJolmRpb4OGTD7N/+gheGf7pLVQS2Wu5NYU1eBRJUVcTNYsgnR4UqTDswSApEhEseg/qAcIqjVzHon/F7snrDFrjwvmGwXlpu+FllS5eAwRf1gNZN6nDVo1hxuub1WlCQoGAavwseNHMljVoNu9hy251rJPrdgj8CEUAo+HO4z85gR31Xe2MMOigGMw1ccl1ODnwweQ68MGo6+c7jjeyAmpXgvktPgjpVylHPgSSNwjnw/vl8g2QAwTe/HdrKetO7HY4XAwReBXJLc0RiINpF8+KWDb8sXQW3P7NrWQzVK5eH/17SG8qVTgmAA5QK2uqBO2d17wMfG52BgCXLywZVybAxLQuee3scLFyyfIfnvTMvOLBeTbhiQHcom5LgFAxuQUZwkMjVA2qJyBurFBYXSQQIzpUyBBI2bEmDB14cBX+vXr8zh0SvpbCmq06FxrWrMIeDqjAJRJhUXwZvs+wVLxqClZ8PDPNUFDRg24wJiuIJIm02dRWNtVj2viHYgpi/aAVc+8T7kJHBqh581KlWgQiKdauhu6hX9DjzMDVHUqfREGDeU/kk+RmX6DWFbwQigFD45nSvnVEsQPDSLvae1zIykhJVrWCUDEpWdK8D+O6nJXDPa+Nh49btdNzlSpeEO87vBq2b1IVixZik6FoNErBjiYvKT8BFCHdYuKjzTVFJ5qJkkLt4fkhZdgFQPbtyEdSYyJMVuZeOFYSbn3o/bgUBPzM5KYkinpFlvz0tDdau3+Tm6ajDG8P5vY9z4EB5BwgO0GbZLmz2hm+TJtG6GHfjWNVg8mQ2bE7LBAQIYyd/D59N27P5DF2PbQk9OrQkgJCakgilk9C1sDiUQAWDeCCwXwXPh4Iuq2QgPwQJvvJ8BK4kvDZqCnz9wy9ujCqWLwMlUlLIqRKjn9MzMuLKIREgPDjwdKogoNQSqxn4bPMsnBJGCJ87G1wUBgia6mgBQoCsi98FlPqGFQ1IWMTvBDlMAnyMGQzDJ7lqGh7X0Yc2gFvP6wZlS6X4FEfDNbAuo8o90MobVw5277uw124m0RsXiBGIAEKBmKb94yDzknZx31VT6fwOSiVetqLgiYwAS/5eC7e8MAaW/sO7xeSkBLj45KOhb8fDXNuAQYLJYHC912B7IZDJsDsAQYabFjXcBcp5oTVuVhbu2pFkB5QngAsb9v9/+Ws13PD4e7BlezopLCqWSwU0PapXqyrUqlEFKlYsRyABb/rTZ8yHiVNnipUTwCV9u8DRLRrKguYNfTBYCP9LpOwAGQMsGZNZErErnEQO1QxO7oiqAHR5RLljWhbMmL8I3h41yRlS7e7VhIv+gN6d4YhD6nN7AQmKKMvElojKG6XPzwRF4amoaZCSFVE2qioM5VFk8Jh+Ned3eHHkRDpUPNcu7VvDMUccQkADwcHatRtg2YpVsGTZP2SutHbDZlIEIHfl0ev6QOM6lYlzQH4MpADBqlNxSMBnLcMLmVVbNvkhKcb/Dnhiq5pBaViTKnhiWgsmEp2rVDnwyPBJMObLeW56EFie16MtnH1CG/KUcC02qsxYAzFD3hWHSKysOZJinO9Cfs51d6+T6PcL/ghEAKHgz+E+PQPVL4TNYfCGiA/cJeXYSoFLddRyKku7uNwMsH7zNrj39QnwzfzFvBgUKwYnHtUUbj6rMxQXKSO3GbidkIg9WBfVG1QxON952jX5ysGuOMcx8TJOm8FIC9URUAHCwMdGQu2qFaF359ZQo2pFSEpOhiwoRrtE9eJHcIQOh7iw4aNkShIMua7I5Cu6AAAgAElEQVQ/VC5fSiKJ2T8AS/TJxXnnq2ZD2krRvrK2QRCEaWUD/RBwgUVFwOaMTAIJC5b8Ay8MGwfp6ew3sbuP5OQkuOys7tCkXlUCB6lJTKyk3AhjsYw7WoYxLMsM9+a11ZCOMdpUSRB/hKxsWL1+K9zy+HDnkYFACx0b1TUTq0U0LpADGenpsOKftTBq0kxY+s9aeOr6vg4gEBfCAS3lr/iWlJJY87tg5uUHoqBAr212DBUPEJEzIpBTq2VtOeDrMf78sgffIaMkfSAwfOiqU6iapv4GSkqMIShKtYbkwaL2YUWPzIHlIOyEs+juXivR7xfsEYgAQsGev31+9PHLq+icaFsM0mow8sZABUFbDCTPy4KXRn8NIyb94ErGzRvWhEevPgVKJCcFMhksOVEZ6Cr7CxAVpawa31Exn4ZJpoqgPARtm+iCjKxz3QEvX7MJps5ZCG0PPRCSk5NpsUOHQ124dbFYtW4TPDj0A0gX0mCrg+vDwLO6uUAmXtDwPyCSn0/tU8maVwWQ3FGAFi62XEXwygDlISxbsxEef+VD2CJtnN29aEqXKgHXXXgK1KpU1vMPjOICZXda8dBjxM+0C6habhNIIE6ChGGJGRWCrqeGjYdZP3EmQXJSItx86WlQpUIZt5PW1gvurhFUpaenw7c/LoT2LQ6EmpXKUPVFKzBqMqXXjeWsaJViR+OyI/WCSzUVMibJfAUg+9yFoHGSqhjm/LYM/vvshw4Q4bFUKlcahv73TKhWIdWZgykPR1UMCBxsdcmqesKSXwbgO5duuqMxif69cI9ABBAK9/zu8bOLp/+OF3Hryt9quRzwQpDsBtldTfnhdxj8yji6meKjasUy8Oz1p0O1imUcMUtvfLqDci0HJStCjs9kkBvhnjJM8m0GsZDOYrMbBAgKANT8R1MKsf3AFQZeALUHPW3WAnj7o6l0nlgJuLr/8XBk8wZULcCFFRcyzlyw4IBf6zTtUh3RxdeqA4iLgGoG5CBIm2H91gwY8tzIPWaYhAZJt1zRF8qXSpIKgiguRL1g1Rb2GH2PXpI/5ZpQPwAiLgrQwarCN3P/gKeHT3DAcUCv9nBsqyasYpGxQgDAFQKfeqmmUgogqEWjElmSxnqvjJ1ZMPOqHnB7jcmtajVuAQIHNXH1IOx/gBW1J0dOgdFTMcFRa3QArZvWg0euPiXgHhqvteAJu0xi1ApC2GJ5VyS/e/wGEr1hgRqBCCAUqOn63x9sbgCBd0/BMnKYqOXLreysqLsn5B9c/MAIZy9bukQKPHBFTzisYU23MFoCVrCS4CWPdsfkyVneSnFngpuClRI9Xk/CJOMb2f2qm6G2HBxYEKY+hjzh6/H5xfc+h2/m/kYTWbZ0SbjvagZCxPiXnbcSz7AC8sXMX2DD5m1weqfDnFpDte1KuFSuhEZSM1mR2wxsu5wJT772Mfy53Ovrd+dKqluzKlxzfk8ok5xI2QuuvWBsjNW0Cj/HhRiZUK/3P58N5VJLQsfWjYXQyoQ9rYTg88q1m+C2p9+HjVu20eEe2bwRXNKnE2dSFAeptHCVQEFBuKUQWznwIWA7G9IUX73A10ZMC0Wv7yyfaEocFmO7rN+HLdvS4ZrH34ffjP8BzvG53Y+E80860vsfCDkxLv9AFT3GNCz8HdiVVtvuXCfR7xb8EYgAQsGfw316BvnZRak3guMaaPXAuisaJUNaeiZc8cj78MufK+lcEhMS4KrTjoVTOzQ3LQZNcQwRFg0fwXMQVPvtHRV3tryq/APt82v/XMvI1D8WZjoCBK4kMHmRn7F6wFUEXfQ2b0+Hu4d+CEuWr6bzbFC7Ctx56SmQWjJZeAbe40F9HQa/NBamzf4d+ndrDRf1OtpZTCsBTTWEuFtVOR0CBGw1YIuByYrZ8OaHk2H2vN/3yLVyWLOGcM4pHSAVLaGT2EERFReoXrDyU/owAQXeOCgbXv7oKxg+fiYce1hDGHxxDy8LNFUmHLPN29LhrqEfwh9LV9Fb1atZGQbheP0rZVQwpdUDriQwGZFaNAK4tNqgPBbH7JfSgSZj7kjdotcDjneYfxMwClOfDw0nU0CAIDFkN65tpz9WrIVrHvNACM81KSEB7r+8F7Q9pF7AICkmvdHmkhjZr6p4die4bI9cLNGbFOgRiABCgZ6+fX/wwT6srAABR0W2WPZpdryDcv17AxKsx8BDwybB2K9+ot0m3qw7HN4Q7rzgBEATIRv77MJoVP8dMIYJ+iFIkJ1k6ux+cBP1+6VSgrs/y6tQXT/aMbvWggEJWEFYvmYD3PHMBy574tjDG8HAM7tCUiLuiNlQyPbG8fj73f4KrNmwhYKsTjqmGVzcux2USEoMGEPpLODYYa9b1RVq4oSuiqM++w6mfjt3j1ww7ds2h95d25B7YjiSGne3SqLU41JfgO0ZmfDSqC9hzPR5lOCJPfYR914YdOKUMabqDPIQ3vkMpv3AFRdMNbznqtOgZqVyUkEQQybhGnBLwUsaA3JYddwMM/rzSdjLExgbsBuPr4KVA7xeiIcgVQS1YMb3nfDtz/DwsEmOl4LnWq5MSXj5lv5QXdtsxu9AjZ58BoPJXxBCbxAg8LTvTDtlj1wo0ZsU+BGIAEKBn8J9ewLBnVQok8EQFbUvTs/Watm4KZLigQhdAKOn/QiPvfOF04BXr1QWhv6nL1QsV9oBBDWKCac5crATKxr0GUcldw14/oiKtMCJa56W8cOtFL3ha3QvAwXLP+A/4xj8uHA5DHphNGRKvPW5Jx0NvTu1NE6QrNbQG/n29Aw4+cbnAxPcodVBcO2ZnaF0Ckom1UHSZ0eoMgArCGwFzVHKE6bPhXGff7dHLpbundrA8cc050hqdXwUtQAuXroYqTcGXjNb0jLgiXcmweRZvwaOYfQjlxMZVXfmusDq9TPq8+/hjTFf0e8k/pvPcfdlJ8OhB9akuVZAoDwEJneqQZORxYrfgS257+xiGWyt0RnG2IwzYdS7hVpjJNtew1ZQtih58FrB9MbPZ/3q+Ac4r0c2OwCGXN6LKzLWTlkqZtb/IJjg6Lkqu8PB2SMXSvQmBX4EIoBQ4Kdw359A7G4qbJiUS8/eVBK8kRK/dv6iv+G6J0fB1rR0OqGUpEQiaLVoWDPglKgsdCYrShy0c1P0/eXY4CYGMzvDQ2CAEI719ZkCzkRJe+cU6GQAghDuuM2QDR9NnQND/28qgQ48jnsuPwWaN6rtABAREXntodes3bgV+t/+cmCCcTFo1aQeXNe/C1QsWyoAghRscQS0UTOkZcEX382H0RO+3iMXy8nHHwUd2xxC/AObF6E7W0dMlGoLnsfjwyfCrAVLYrwYht97EZ2HLtishvHXz9zflsIdz38olSWAS09tD73atyBPAwIDWD1QsKCtBZFA6sKpBM9Yu2GuVu3osaO2mgIDrpwxSTGenXIYKON1jz4g/31uNCxftcEdRkpyIlzXrxN0P/pgF0im1RCyW0Y/BwUK8qwtKSLzBki6fEHtjNfDjsYj+veiMwIRQCg6c73HzjQvwyR3s9RqglYPbGlVpF96Q8Ub5aat6XD5w+/C4hVr2eS4WDE46/hWcH6PtiRx814IDALI7MZpvwUoaHk1VGbd3Z1UmLCYk8PWP9RmcL1mb3us3APHyhdr4QfeGA+TZ7E7IC4CL99xLpXNncGTmSEcgw1btsMZt7wYd94QWNx8zglQsSxnVuiirJ7/ts2AXITJM36GUZ9O3yPXQO8TjoEORzR1kdRqRsRZAf5YEASu3bgNHnzzU8CFPt7j3SGXQLnSJZwdM77GggSMAr/onjcAeSr46NCqMfz33G6uUqCqD+UiqL0zL6TStqHKEh4Xl4N2pnoQyz3gs7DKnfgW4wISshjsWKMkS959Z+JMeGX0V6SI0UfD2lXggStPhmoo6XQGYXw+4faCraqp7Xiu/gc7YTe+Ry6U6E0K/AhEAKHAT+H/5gSChkmGqW7kXqpUCO+snJOigAfunedQi2Hs1z9Rfxofhx9UGwad3w0ql0918i13Q3TBTRriJLa+uAAYGVvYi572U6IFd7KvHQxhLO8iZPpjAqkUFFCbIVtkjuhPkJEFlw4ZBn9JtHX9mpXhyRvOgKQkzKTkdggfWzHH+sdFo//tr5CKId6jTvWKcOt5J0K9GhXdTljHFj8fvQQ4SjkbJn4zDz76bM9UEHp1PQq6HNlMUidZXkjKAgFsuoCi6c/9r38Cf/3tzX/seaCKYfi9F5JTpII4lfmpMgBzCa559F1YJMROzCYYestZkJKU4AyQGCQwMVElorbCpAAsOPf5azPlVS2jtpO4bOIzZYwoYLQhZcY1kYmJDB6whYRx5zN/WuKGBa9NjHe+/syO7PwYylpwvAN1UhSSojVHivU/kEpJPvkW/5s7SvSp++MIRABhf5yVAnBMuUq+QjwET9piB0VNcww8S0l55i9/wd2vjoe1G7fQCGDp+dZzjoe2B9d1u+S4ckfxQtBgp3hqBrc4mHIr3t3zUWGWHaPffjk+giHUUUohtRJYxaAJi9xe4KS+s+98nRYFfHQ6ogn8Z8DxQjZUv3xFLj4k6vF3JsH4r+fnekXURZBw/omAz7wwM6eDAQKnO2I2w5jJ38P4qbP2yJXVrX0rOKlDSyYoSvaCAgQdzz//Xgv3v/YJ4HNuj25HHQLXndnZETN5ufUASTkMD789AT6fsYDeBvkKb911HlQuV5rshrVyoCABf4ZtB0dQ1HK7cjtokPI370FgGOTb4NvE5o/w2DNIi01s1OqOAudf//wH/vP0KHIT1Qee350XngjHNG8QE+/MFYQgtyKQvxCHa8HvGwGEPXLhF8E3iQBCEZz0PXHKQdIWb39V7279EHzYkSY6BlUN6kOPu6oN/4bw3PrCGJjz+3J6L2Tun9H5cLio51G0y1Q1A1sOe/8DdZJzZkoacRsT3rRrngg6XmFQ5OWc3HdGngEWP8g6WD0QhJ8w748VcPUjIx0R7YJex0DfLq0C/ANlnuvuGXekv+Ei8tQHAYe98PyVL1MSbjnvROIzqLoC1RTkhyBExeFjvoTps37eE1MPx7RqCv1PakcERQyWQnkjqge05YPthCGvfwLrN8WvfOBBoMX0wwNPg0Z1qzpyqQ91CvIQRk6cBa9+xO0RrLA8fWNfaNagBpXbAy0GMpuSzAVZSLk644mT+QUHCra09xEjbdTURqmYIfdAKwNqq+3bCvFsxnPg7fEz4dWPvybCoj6a1KsO91/eE6qUR3Kul71axYK2clyVxJFzvcX47riI7pGLJHqTQjECEUAoFNO4709iR7Iv9QvwbQaRBbqUR95hsdyLFwS8ob4+7jt469MZ1GbAxeDAWpVh8AUnwAFURvfRztpf1h1UcCcVR+4ovxvYUe3EbtIuGLpY2IUcz4WNfnD37j0QyBkwOwcmzfwV7nllHH08Apk7LzoJjjq0foB/gD/Xz9EeN7YmXhw1DT6aOtcpPOLNdoWypeD6/l2gZZN69M82SnlrehY89dYn8PPCv/bIhdL0wDow8OwToVRyAthIanzz7xcsgceGT4R1G7fm+lm4ePVq3xwu6X0stQqYVOeJdMrt0N7+1z8ugrteHuMIjndc2B06tz4oABDUIIkqCFiWl/98+2ZPcA80zjlsjCTOkKJgoOvauiYG+DcMlP9es5HMkfBZH0g+vL5/J+hx9CFOvcC+B+z+yPbKcm7Kv8mFd+MBws6d9x65QKI3KTQjEAGEQjOV+/ZEdkbuaP0OtEdriVoapYygYtYvS+Hu18bD6vWbCTRgOt9Vp7eHnu2aOXa29ro15dGFOqnW3QAJWiBkh5UbWTG/XAS3eMtQa//ZSx29D4GtICBIGDFhFgwdNY1+ExUaj117OhxUtyrbQ8sxKg9BZ5LK1Tk5RNAbNXUuvPbRV46fEW+2cVc++OKT4NBGtQmUoO0zOypmwW1Pvgur13qm/O5cLZUrloP7rjmDSIpEUBSDpB//JSIOfmlMntUOrAqd3+to6N2+ORE1lVNij4dApYtBzgEsxV//xPuQJvkVl/Y+Fvod34qrB07BwJ4IAYAgHhlaN9IKTX7OPbZC5pU6zD0QB0XJXcCfaXKj5i+o26aNeeYKTw68M2EWvPTR9ICqo0r5VHj+5n5QrXwqSxs1wdPJHAX8UGVBo7SDyp09Ie3Nz/hErykaIxABhKIxz3vlLHOrImhwk5Wr2VaCasXZQMmXX/HmuW7zNnhk+OcwdfZC4izgAtKpVSO49dzjaWFVIyF9jldB0Jundc1T4hYOBEvbjMQtnz3p/AAET1JEuaN3WHzug2nw3qTvaR7Kli4Bj1/XB+pVrxhIpiTuhPTMHQFOxggXnz+WrSZXxYVLV8P6zVshPSOLyHllSpeAmlXKwWEH1YYjDj6AnChJ6igtBuQhvPjeF/DNnKAHwa5eFEe2OAgu6dOR+AfaYsCdbWZWFsz4aTHM/nUpyfY2bdlOXAiM8C6fWgoOrF2Z3BMb1KrsAobyOmetMKEU8LrH34ONW7bTIffp3BKuOO3YADFRcxd8+iWX5xUc0rw7k6S8zzyWe8AQA69bfg4Gk2kbjY/X5y1QFcFaK8tcbtyaRtLGeQuXBw7khCMPhpsGdGHjLKkcBNoJBiiE1QuaXhoBhF29qqPfizcCEUCIrotdHoE8Gd5WzaC7QTWSEVtg12KQVgOBiOwc+GzmrzDkrc+ctK1GpbLwxDWnQa2q5RgguB23tV1WFYPI20KlVzzJ8M1zV8hbunAzWIiVOQZ8EMQwCYHCkDcnwGffMgcAEwmfvL4Pydi4FK7H7AGCW4hETonSSuvSh31r1fCTQZRUSXT3rRUMrCBszcyG9VvS4dbHhsHm3Ux0TC1VAu6//iwoXzoZSiVyxDMtzgm8GBOPAMdGFkcdJ67y2NYPh2s5y2ghWDora4nIxmtk5bpNcM1j7wEmYeKja9umcMs5x7vP1faCs1i2Y+oAYf4Agq2MKSCkeoEqFgQcaAVBr1mt9lAYk0gbtZLgVDvSXpu5YAnc9fInsMnMRUJCAhkjHXlIPcev0WAyp2Qg8iW3GiwHR1UakXphl29l0S/mMgIRQIgujV0egXgVBLyZ+vAa3nU5bwQbg+vMcCT9Tvq0uED8s24zXPvkKFi8Yg39PlYOzu9xJJx9QmuzyKi80d4s/c1TCY0+BdEvvlzKN8Q1Wgnyz2z3Ek8FCD6hT10UXcojkgXTs+HOl8fC9DkLaaxrVy0PT1zXh1QaDiAYT30U/bnPkMVJwYFdtFTT7/P/fEoiqSgys2G7aTN8On0ufDD+m0Bi4M5MPo7lad2OhBPIRZHbC8hBwLhlDkUKZV+oE6WoE1ThELSTlnkg/4OgfbWW6NFo6drH3wMM9cLHMS0OhLsu6gEpycUpBdNWDzjISXv1PrVRZ3xHqpV4oFeVFbGVMc+rcbbbBvy67AVTWUBQcO9r4+Hb+YuNcyLAUc3qw+CLekDJFGm7WHmjVA6wfaIuovGqZFE4085czdFr8zMCEUDIzyhFr8l1BPKtZhC9uO601DzG7YqNoRJ68D/+7mSyX8Y2Ay5MDWpWgmeu7wPlU0t4sqLYK6tBTKyzorcuVukjlZnDfvwCEPLDRYhbQTDxz2p1jGFNxAPIyoataZlUUv7hFyYJogfC49eeRgZBupgR+Qx34bLLZoTAqIVK2y70SA/WmTnIGXkCHb6eAQJzEKiKkJ4FazanwZ1PjnDpiDt7WWP65F3X9INKqSlCUOQKAnIQECDosfMiHHt8zLEXzwcljeoFVEwiwBEoasCVVCHQMOq6Jz5wXgiHN64DD1xxMpRKSRTeASc6OpvlQLyzBy07ajHEc83UCohabOPfsTKg/BPrexCQNxofBMupmPrD73Df6+Od3BXfD6WNj11zKikz1BjJAgG8LrTlgLHVyluhyhGNo8+/iNQLO3tVR6/PawQigBBdH7s1AvHbDOI0KFtbrSIo5yBQclVCmgEIeEP9/telcMsLY2DTlm10M8ab6G3ndoWOrQ4iF8WwosE6Lbo/m5unLcN66Ztx1stnFUGT+7RSYkOoKI+BkhxR5oi2yyx33Lw9A2586v9g/h8raKwb16sGjww8FcqUTCbbXCbW8bNyKjTwSHECfy4vTL6K4KseelxK+ES/f6wgsFlSjmQyZMEvS1bCk2+OhXTxY8jv5CcnJ8E15/SgY8fqAWcwFCOTJKwg4MLFx85z4wSlcsDW6teFOcnr9Nx0F865FtkcbpSdDZu2pdP44bHj45AGNWj8UkskuTyGpARgsCBERRsJrhUje1zh847POwi2FvB38qqIqcWyVTAoKRHPDTkjD7w1ASbOYDdNfTRvWJMAT5lSKY43oVbKeh7abvAAwit6vK24d4skiCYYbUdVk/xeA9Hrit4IRACh6M35Hj3jeGYyusvWxU1DmZyaQdPvTCKiptvpDRgXtuufGgWzf1tKiy4lPB7WEG49pyuklkqRXZNaLHsuAu1icaE1ygBrnIQnHy7FBgmLefvz7xggqMSRzZIQIOAChztgXeCaNagJD159CqSmcGwxlubRR4AlbH6HqGRKLnEzgtHP15u+G39jUEWmTZLqiOO4HQGCGCahouGtj6bttCcCeh+c3etYBgcY0kQERQEIZlF2YVNyldnj9Au0Shq9MZKmf7KfBFZAstlbAgFWWjrc/PSHMO8PJvUhSMEKDAIs317AqGcECGImZHwy8g0QBNXoWFvTJtsmoz8HfA+YmOhIija1UfIZ0Orgt6X/wPVP/p8jW+K5YADV1acfB6e0P9RJM5VfEMNB0PwRW62JUekQNPAGYJKOuke/9NGbFZkRiABCkZnqvXeiYQMhJXXZni2XZP2N1aXeifUsScQ030AIeZ/N+AWeHDkF1oizYuVyqfCf/p2gXQt2mVMJI1UMwGvFVTPuSHH6Wi3Fys7VthosYdHtvuIMmQcIGtrkw3m0veASHcVVceOWNLj2iffht79W0TtiiXzIFSdDyeREp+Xnhc3r3LnioUV5WUjpt4Ut53gKvEW3qgf1ZGAvBDZL2oaVhHR2VVy8ci3c+/wHLlVyR1cGLmK3X34aHFCtIrsnJidASeQfoEmSKe27CkJALcDzxO0SWbz073QOvjXivSTYlVI9JLalZ8ItpkXTqE4VeOLa06Fs6RRRMqCjoidLcl6BN9KyRkla2bDnHAS5/l9UhYM/YV6NShuDiY1atVGnRBvKpNc5KjDueHEMKTzso1WTunDbed28MVKMtbLwaszPrZJHqwfWECq/1/KO5j3692gEIoAQXQO7PQJ5qhkc+ztIVvTyRnuzDaZArt2wFe59YwJ889NiyM7Kod1Wu+YN4Mb+HaFS2dK0gGo4ULwWg/Zo8d8cWVGd9UQN4XfphmCXB2Exd4DA9saeg8AlcvzZhi1pxMJfuGw1jXXrpvXg/st7cZ4AggJcZDVHABc2YaurBDCQZGQxgsyca0MYVUUm8hDQ1REtlxUgoKsigoSMbPj8u59gxNgvY9IVwxcD9rv79WgHndocTMmNaI5UMgktlotDShLv2rG87wx9VDVg2gwMC+IkBZlrg3bgGItNxy3gQJ7RLOrW5z+CmT9zZgGaZ6EKpJwABGzNeKMkzmXgEr2W4T0hNQwQdtRa0PkOBzJpxUtdE633geMiaPssB+CTb+bDI29PpCqDPtAT4qYBXeH4to0hoRiSK4MkRO+eGLRXVukm/js+cq2I5ZN4u9s3gOgNCu0IRACh0E7tvjuxeG0GXBKCunGvblB5o6siCMtbQQPeQnU3+ek3C+Dp96eQXz3eDsuUKgHX9esA3do29cZJzmpWWg3aZqB+uJfWeWWDJ3VxFcEvGz7IKb6qIRYgyLG6LAZe4JSHgL30DVvTYOCj75GPAT6OaFoP7ruiF5RITJCSeNDkR93yFADR2qrlbwEI5one07V1SIcvro50HOiHILkMGQwOMMBpc1omPPb6WPh1cVCLH75qDjqgJlx/Xg9ITUkkYIAgoWRSAtkrE/9AIpd11678Atv3dqMbh5ug7adA9UDaI+RMiRWQzCy47bmPYIYABPRReOqGPlCuVIrEPgcBAlVjrCrEWC1bgBBf0hgMHqNxDdgqC6A10eUugMmEMnHsM1/zm7elwe1DxziSqo7xwfWrw5DLT6ZETvVsUBmjA4laOYgTyqQA0gd98TtrpHl+SLf77i4RfVJBHIEIIBTEWdsPj3lHagY85HhkRc89MIZJIoHEG/jaTdvIE+HLuYvIsx5viscd3hAGnX8ClCAnPr4hBoiJtldruAh4E3Y7LkOm2xlVw84AhEAF4fH3yODIA4STSQHgqwecI+C4CMJWV9a/rXTIMuB4CdQrD8khNTxK2wzMRWBFAwKEbRlZMGvBn/DU25/kWkXAnerAAScClsERFCBAIGkj5S+Y9oKw7GPli5YEasWYHMikclhL6kPuAeZZaOAVA4RsuO250Q4goOHSk9flXkHID0DIDRww2PJcj3iOiYHURiXXWnBg7MQzsrJg9LR58PLo6bB1e7r75qLr5c1nC+nWOYB6TwxnlOTIn17Cy2mlDHyV16HKEQfMourBfniXLHiHFAGEgjdn++UR59ZmIGCgO1wpgYe5CNZNkW++bJjEOQ4An3//Gwx58zPaieGjfGpJqiJ0PaKJDzuyHASR0NkSs1YP8iYs8oIW7OEGSYu70mLYuDUdrnn8PfhdOAgtG9eFIVeeTIsuAQTXYmCionoKsJyNFwI8rLj9cyklEECQJESvBvDleq4isC8CPacjLyELXhs9DT7/Nn5aZKe2h8D5Jx/LjonJDAooewHBgXgfWOdCL7fDI+EDzuuYaX5lrrFUr5wDBQeUhJmVQ2DmlmdHw/e//Enz37BOFQIIZUshSZHVHzvbYgherwpemAyqYIt4M/F8PFxiYy7ERCXh5gD8tOhvGPTiGFi1frP73iLY69nuULim73GQnJTobJO9ckFaCppSKoDAX88+u+tmphEAACAASURBVCJ3RU7eZNv98iYSHdR+NwIRQNjvpqRgHlAwm8Gfg0141CqCLvzqt6/sb9WLe68E5i2s3rAVBr/yCUkfs7KyISGhODSsXQUeu/oUMhvShYkkYFIZ4JKt7rqkFy03Wtp1GadFWX+ljG8Agiy+tlyeN0mRQ5LYLAlVDLwTRoBw3RPvU6YAPpo3rAUPXtUbSqckxgAEp+WX43fnFveyEB0bUwBjiIqkAtCevsQ/p2VxJUFbD2s2boM7nv0AVq4J5jRUq1QO7rnyNKhUtqRrJTApUdIbhRTIpfxYJ0jTtJGjC54Ag0YBgXKcnuTpFSAIELakZcLNz4yCub8vozfBDIvHkaQoACGJYp+RC8FERZKL5kFSjM0RERploHLgj09bDBoq5gyQhGAbm7XAiaX4OS+M+hLenfh9wJwK0zfvv6wXHHpgDVf9ci0Gd+zimhiOMjfuk7564ESlrr0QSRsL5n10fzvqCCDsbzNSgI9HjWbcDVgc9HQXZvXuKmvTtEfLSwgHOakvwm1Dx8CGzdtph5eSnAQDT28PvY9r7khaVrVgWw7hpEdnLqMpgtLjz13V4Hdj+ZM5ZgV8EDZty4AbnvwAfl78N81u0wOqs44/INNjcp0FCNiHdi0GY+4Ue4kYuaAQ/3Q81U9AeRFEWsxkbgL6JODfR0+ZA69/9GXgbc/r1Q5OPq4F7czR5wC5Bsg7oL+bhRj9G1SbH9sOiV8/CNgWI9+EjKaYN+EBluZY5MBm8UGw4/foNShzDPsgKKcjDBDw1DTVUKpEaAntyggmiMlUu7iCoGoVDpBylspGout+hiRLMQTD35214C8Y/PLYgKwRfS9O69gCLj75GFKxUCiT8GQCpETJkfChTEHwq9WZmPZYyHeiAN9OokPfD0YgAgj7wSQUpkPILxchfON1XAS5CeP7qLES3shxJ37P6xPgi+9/g/SMTCherDg5z916ThcXeuQJicYfwTHZ/Q3WOv5ZCRxmPNBS4ij3AgxEJoDvHwYI+Hfc5VpiIC/GUknIBti6PQNuevZDmPNv2iE+qPohTopBm2AGCSR3xGpIAi++Goes10l4dxj0QmD7Zxo/6Ysz2c/39ZlAycdIJfz0TLj1uVHwkxg5HdygBtx/RW+WYSZ4l0ICBqS2YL6ElxOKcVU8wqe5uOMdJ807qj8kDdFZVbugqxxAJ8Xrn/gAfl/KMtEWjWrDQ1eeAqXQKEmqB85JUeSiFI1sAJZrHcnKGgaxmqvhHSt9WmMgjdSMqzPJMlbK+to//14Htzz/ESz9Z13g693swJpw+3ndoFYVzBUJZomoTNT7H6jEkTkHeXEP8mqLFab7S3Qu+3YEIoCwb8e70H9anpJHY+bDZVvu95JUTLgH+GcPDnjHpqXoOb8vJ5CwfNV66g2XSEqCjq0awfX9OpALnfZjyXpZOAn4zDfeHLkhc+vBMsCtllxVDfiZ+nOaNNUS2pwEJytkcx80dFJiIrsoAqRnZ8P2tCy4fejH5L+PD0xxfOK606k9ojJHjSp2VQSRO3qAoOBF0pDslRTYDZvSPalB2HCIVQLe3ZH6+/Qz/u+PZWvgmsdG0rs+eX1faFCrkvNlIF6E40p4x0duLRTn8Cwhi/JhWWBlDtQdpygDZIeuFQStHqjJk3ohcBbD+4Cpjvhoe8gBcO+lPaFESoJkMTC5U/kI7KYoPggmvRNypIoQOg58T1UfWlJiAMSKaoH8OihvQeKdqQKSHag04HUw9MPpMHLSLCGS8hgg3+DmAV2hS5vGPsrZRDc710SpHuA5xOPOuNZCXDAbcQ8K/U12H55gBBD24WAXhY+KbzqTu2Wt6+uaREcq2ZpdmQKErWkZMGzCLHh30g+weWsabQqRsHjbucfDMYfWD7grejOZ4E1WiV5OQmh26PFvvN6yVudPKW1s/sTVA12AcVFDUKAlffw7kgLvff1T+GImxy1Xr1QWnrqhL1SrkMqkRFl8k3V3LrkM2N9nsCNsdaN1DPAi5IC8EXMo+dHkAngbY64eYGkfF7z0zCx4dPjndHw39O8EyYkJ9Nl4DN7EyYKDsHzU8yHUGinmGFWqqcQ/Mc/CY9D8BawgpLtWA4OXles2w8BHR8LfazbS8XVsfRDcft4JxI3gCge3ZjC4yTkpmtK9QCtm/OfWWpDWTFhdEauy8cZYWkGwpl94Ht/MWwRPjpzsjhc/HwHpkc3qwy3ndIUKZUoGqgfcZrBeB8yjUFdQC2YDmSJ5VLqKwr0mOse9PwIRQNj7Y1zkPiGvNoPV61MFQVoJjgimvV3X+1U1A4OM9Zu3w92vjYev5y0m2SPGHB/eqBY8dGUvSC3JVQRtNQQIixpyowqHEFHRmRIF+Aix5C8+N+35c3/aAwQu5StAYMOfbMjMzIHH3/0CRk+dS9dChTKlCCDUqVqeTIY0ptjt0p3Rj/d14MWNjyduZ18G3YEX4/zHnA7e5arLHy683vEPtQSo12cZHnIjqBpTXA2HxOHRSu6Ee8AmPd7aV+h+AW+JGGAlAEFbSHocse0FrsL89c96AgjrNm2ltzq5fXO47oyOkEghUd5BkQGCtD4cQBDgEnKltBHO/poU1YIAP8uT0TmOUdzQ/HuewqLla6i1sGJ1kPSJVaMnsWpUDkm1JrbZkBLx5xYYKDeBQYHIGuPwZXbk3VHkbkDRCe+xEYgAwh4byuiN3ELgVWOGCBbWl/ubqnWp4+qBX3hV2aDlXnzrL2b9Dg8MmwgbN28j0IBx0D3bNYMrT2sHqC8nEqLIA0kqKOoGa1GriXg+Dpp3bLzb0z1n0CyJOAiu1aAGOsiV4OPVsr0udLgTpjJ5Vg68NvYbeGPsN/TGeIxo9NOodlWpIHirYKwiuMAhw2C37Y54AMEuwlrFsQoSZ0ikEj3bN5d0QjNtQRtrNR2Sna5WX8IOflqBye2bEAAvZmH11RdbPWBwgEAGMwzQaGpbWga99bk9jqT4byJ0UuVAqzAiE5VUzIRiLLeksSsOkJNtyKZGsYDvSdwB/IMBrGqApBWCcNYC/Y60G/C1eHzPfjAVxn45z5mE4Vti0Ng1Z3SAHkcfEqwc2KqBKEGozWDArIJcBbB5KRciY6ToHrynRyACCHt6RKP3oxHYEReByWCeUOdvtsEdWVAKySADSXXPfjCNDGiQsIgPlI7dfVF3OKJp3WCrIRTa5ECC4ymg10AOVSK8pjxsX+sNf/ziy6sJ7zKFgyDthoxMrhwwUZHL5OO++gkefGsCHSuSDx+6sje0bFI7qOPHhQ7L5pTJwAmPvgeddwUhAM6ojM4/CShHbFXG5WJ4/4QAQMBFFXIkWtjzNpxSxEQM4+foLjYveZ0HCNZS2yc3korhX1Mkiqo2fI7vFyyFm54dRb1+fNx89vHQ/eiDXXuGCIpYSUhkRYBmWiDvhIGVVBFy8KC5l6DHotyDeH4HTPRUsiyDAVtJsE6gCApHTvoeXv34a8jAMpI8cK7bH9YQrj+zE0WV6/gpvwA5HNpe8EmN0r4hHwwT5yy+Ej7S2UhyI2Ok6M67F0YgAgh7YVCjtxQJmawWnr2+4/hcZYFTb19LvVZqJqRF7Evf/NxHsGDJP9RqSEhIgPaHNYBr+hwHNSqX9YRFaSW4doNJwou32LkebyjQSSCChA4VgxzZbjqZppDWlFgXLpfPXPAXRRYr+fHafp2g17GHEhBQZYBTNCR6q2C/m/SLQV4VBAvOmKlv/RGM8Q/SQwkk+PyncAUBB5H4D8Y/wilAjP2zWvvuSHuvYEVtuFU2SBUErMAQsDJSRyFWfjTtR3hixOdu7FAi2rpJHZdfwa0ZVlgoXwJBH7ZIdDHlY2TAYC3AtXrgSLO2ZWBljZrWGIol1+t17u/LYfBLY12wmN4DDqpbDQZdcALUrVYhQEx0Hh2Of6ByUe/dYW3C4/Fj3HhH0sbolruXRiACCHtpYKO39VWEuL4I1l3RhPaEWwq4eOD9j5QOErGrTPNxX/9EaY/IS8DPSElOpDLuVacdS310R+6yqgaTzWBDnKz0UXkMwZuyJ+GxtTGXrPlYigV4CD7N0TsZLv1nA5x795tud9m7w2EwsM9xFMzkAAKCBXEo1DwG3WmGj2lH15ct53O/ne2YwztmayvsOJCyG7WfadsvXLb3VRWqIOzogKyZk5T3VQng0iddBcFLMpH099R7U2DU5Nn0CRhw9Magc6B21XIeIAi507k6Uum+OJEs9bgUIGhVJd44IFjyfhysVFAViMtWcBUF3yJbsXojDHljPMwRIycdCjxWtFM+vk0TqcRwlHeAkKgcBNdWUPUFV20CcyBvrDJcCxB2BM7yMT3RS6IRiBmBCCBEF8VeG4GgooEXlAA5LCR7ZCDAVQYlsFkNOi5mrHrgm/OW7ekwYuL38M7EH8iMBt+9QtlScG3f46ArSskCYU2evKgkMV9B8L72QZY4k+/oJi07Zts6QdkcHx8vvEr8IwWDZApwqRyPNRMGDH4dVovlLropohcCyRsFJHDwEZsSoTSTfQZ4UVEvhPyU8l0VQVbucCVBaRQEciTDQeeGLwatVggBUX5kx4F+RLty+Y0dIARPXBUZplOA+HFjXwZpzQh/A8cPPRDURbFy+VR4e/B5ULoER2Xz+IHIHXncnIuitI348OXaCwVbsdRWFnsDQh3fQK9Fk7ngnEBzcihE7OFhE+GruYsITOgDwerZJ7aBMzq3ZEMkAqbe3VPNu/R4uaKg6ZMiww27fUrbJ2wHHoGDvXYLK/JvHAGEIn8J7N0ByI2LgJ/qd3G8ULGqwasWYq2XjaudMOGxenDfm5/Bl7MXQlZONu0c0Yr35rO6QJN6VaWHL0Y+7gbsDWpw2dBYaBc2JGDAmSg54iLvnHE3zkoGcdozhD91AyS5o6oYSEaYDTc/+yHM+Ikji8uWLgHD7z6f/Bt4oRPCnZTKUY6JHAR21/NmSfkFCAwSfGM6bFLE4EAe2pPXF9FC5MsCHhh4FOB3r/nT3ccDCN6fgb0aHPdATZyyc2DT1jToP+g150Z4xMH14MErTyF3R27P+ERJzbCgvr7jlASvb25zaNvFXGvSbrFcGPI8UDtlvD6zALKkioU/xxjq9z//AV4dE+Qd4Ccee9iBcMf5J0LJFAUH3vTIBjFZJ0VLqMX3iB/nzLO2M+Bs737Do3cvzCMQAYTCPLv7wbnt0Pc+XEVwAT6+pWB15mFZJIKI735aAkPemgQr12ykG3piYnHocHgjuHlAZzZQwp2bLPpe+igpkIasSOoH13c3u3YZR1U30OKrY1usmDPKsX4IVDlwIAElhdnwysffwJvjvqXfxMXghZvOhMb1VMlgWg2SJ6BtBpW7WZljfneN8X0p+OC1suAvEwUA7uz8YmSupV2R1amUUD9X/QV8zLPJsRAeAi7Qvyz5By576B2XOHlO97ZwYc8jCQgiILDASkv36qCoc+3my3kd5A5I1X3SqhP0Z3zt8bjhsY3/5md45v0p7MlhHuhzgbwDdE3E604dEpWEaHNCbCXBgVVLTMxN1mhOysaV7wdf+egQCtEIRAChEE3m/noq8aoI1Mc3vWg8ds8k55uwDcex5EUFDNpqwL9P/mEhPPrOF7Bmw2baIZYpnQL9OreEM7q0hDKo69dyraoaclM3WH+EOAzy8BLKC5/wELKyqTWCIU1UKjcyR9wdf/XjIrj9hY9dKfqGs7qQPFN3wtatEP/MbQZbdqa9o2t75He+LUjgBVp/U9s+eb2Tf83ukOJ0507KD3HRxHlD4yZcgNUzgvkb4h+RDfDxl/Pg0WET6QARFNx7WU84+tD6jn+gMkccK3VS9C0Z9Wjw15oSJZWUaFtExHORlpHziDDJjfbf5v2xglIa0eXRPqqUT4Wbzu4KbZrWY2Ag1Z9gKwF/bsOYdI5zaXUFLKxj7b/zex1Er4tGYGdHIAIIOzti0et3egRsFcEvUMw1IGAQIiziz1S374CBKhlCWQ10oweAtPQMeHXMd/DBlNmwaUsaVQ3Qse6MzodD/66tIDkpwZvNmNTH3BwXXXRxHKdFLB+gLBJZ+Pg52Npwkjhh5AfVDCzl+2P5Wrj60ZGuXH5Su2Zww5mdSZ6nGQyq6Vc2fm6phHQM+WEGhmYrwKGQf/MkUvviOK2D3fxMN99uEeZ5ZptqBgYEqggwZJOq4dF3JsGYL+fRgWFb5ukb+kKDmhWp/aImU5hbgdwNBVUqDdQWka2H2DYWg1DhvJjwJSUrcmqjzK1R0vy4cDnxDpasYOtnfWDl6opTOUAMj8cqZ+JWDYRfkiC24NYMKcyF0ZpV1FrY6dtP9Au7MQIRQNiNwYt+Nf8jkFup27Ho46kaKJ9BcxrUfjnIQ1A3RgQSK9ZshJc+/ga+mPUbbN2eTru0WlXKU1ZD24NlRydx0FbiGEtWDNoI8+6VV2Ptxys9XkvnjkxJvgccPsQ7YVn8snNgzcatMPCx99zCcuiBNeGRgb0htURy0DAJHQGRtIatBjUpkvaHTyXcNYDgAVo+pQf0CzzPuwJI3Oc5bwZfQVB5I9ssa06EN0javD0dbnxqFOCCjI96NSrCU9f3gUomw4KkjVg9EHvqMKlTr1BtpygYVX+NYEKjdcb015kSZ3GO123aBne9Mg5++HVpoEWDALT3cS3g/JOOhNIlWEGj4NP5HASqBkJAdXbaypORClGIHOvm3c1H/rgf+f+GRq+MRiB2BCKAEF0V+2wEgq0Gr7rXJD0mj7Gs0ZaAiWVushp88qPvJevOcNGKtXDvGxNgwZKVkPlvBkJiYgI0qlMZbjyzEzSrX13K815CFgYH7u+G5Ka7OWvHLKR4ej9rGW2Jd24nLEZK29Oz4PYXx8BXc/+gMa9UrjS8eEt/qI6ZDE7uiAseAwRv+OPVDG6h3sXdfG6THawi7NnFxxIU8fPtouwDo7jKYkHV3+s2wyVDhsOaDVvosI9u3gDuveQkKJGc4BIvOVmSKzDqmImkTgVyQuljU6tc5bQiZ5QqgWaBWAtlPGbMAnn+g2kw5qt5zrRJx7N107pw54XdoXzpElRdSjAtLKoCkbuj9zhwyY1iOMUVKx8ilqtjoiCuiHewz25bRfqDIoBQpKd/3558fMKiVwN4hjmDhLiqBmuaFAINxAXIzoFvf/oTnnxvKvy5ch1kZmVBYkICNGtQHQad3w1qVirHskG9Iasls1QWdAeqroraarA3cN5SS/6AtkmsdTBKHjNZ3qjhSMxLyIERE2fBM+9PpYHHnvqQy3tBu+b1qUKhHIRYgKAMeKliiCXDru7o9+2sWz8M/mQNuFJpaGCcpNWAu/Yv5y6iXAOVD151envo16WVC2TiICltLdiwo6AvgyVIestpvlZctoJIbH1QmHgiCDcGOSXPvj8VRk2Z4wiTDNaKwaENa1KrqH6NioGAJb2WqIJgK0HG/hvn0NopKwBUUq2eSeR5sK+v2ujz6FrMiaUyRyMTjcBeG4FYwiJ/VJiwaKsKLofBgAPbO9bXIvNcNe3fzl8CD7w9EVau3UTEs+TERHLfu7bPcVCvRoUAH8FFQ5uysM1tILCAFQVjdauOiDpQLM9EXwQkKnrinXoj6CK4+O+1cPZdbxFwwUeHlg3hvkt7MjjQcjn2rwMVBN5ZujaHcA92gYKw1+Y1rzfWWpG2mdRjwAIEkjmKZ4S6Kd429GOY/P3v9NYI8t6682w4oDryD3hRpQqLdZ2Un4eBk/tcTZF0UloJr1I5IwI7kySq19329EwK2sIIZ2ujjMdVp3oFuO+SnnAAgQNNYDTVgkAYk68gKJGSritJe6TrSzgvChSi1sL/5JKNPlRGIAII0aWwT0cgL0a97vR8i0EqCbTwBzXr+HdmnXvmuW1LYHDOB1PmUjQ0mhPhv2FIUtcjDiIjpVLSJ3bSxhhugq8yhANznBe+Na6RXAk+JgYJaMmPZXP8mQKF7RmZcMWj78G8hSto3PE43h50NtStVs61FLS1oGZJrpetPIgCCxCYEOjnTMYFiYqSWaEthz9XboABd79FXBJ8NDuwBjx3Qx8okZRoYqiLQwKmN2o6othoW4BgVQsqkQ37a7i8hVxslMdOnw8vjp4O6yVNUr8wVSuUgYFndIBjDm1AVY2AAZcJX2JwxxJaJitKxkIccBA0o1LDqvwbUu3TL3P0YYV+BCKAUOineP87wfggwec06L9rNUAXFSd9FHAQY6okO0OVP27Zlg5vfjqDgAL+GV+P8sdzT2wDpx7XHEqlJLEdc8DBzssKsXzMdszBn9kUQ242BDMmrAsfL3wMEjQd8K3xMylsSjMBbuzfEfp3aendE3FnTMx8Bim4ANrUybxin/e/2faeEVQlCgEEBlJM6lRPBHwePvF7eGT4F3Q6OEdXnnYsnN2tNcsGqbWgBE7bWgg6X6KfleW1eBmj57Tg3KjsUueHzZA4nGnJ32vhpmc/hL/XbAwMLQI7bHlQQmMo34MljQIINJFT2gp5uneqxbUcN1cUInCwP17TReWYIoBQVGZ6PzvPoKpBtfYGJBjHO/TB1xhefo71SYgFC/watMJ9/N0pMG32QiKZ4f0W5XJndWsNZ3XFRZkDfSzXIBALHfNv/FouASsPwcEEbxMtCgzV+RNoEJDw85KVcOWj78OGLdvpfdo0rQvP3XAapCQx+U771eqB4J0eOWHREdQkfGg/m9rA4XiCIjcaHNhzPX+uBKkZEVYQ0KHwikc/gO9+/pN+p1zpEvDsDadDU3LGFDtlWXCdHbXME06w9apQgGCrFhbAkadGLjbKfyxfA4NfGQeL/322D7RR7tupJZzXoy3JZwOLvgAYVi6EA5iC6hgFANxi8LkLAY4LDRr/X0RM3J+v9MJ5bBFAKJzzWiDOKqxqkPsgLyShcB/LQNcKgTXc0bIx/p71UMDXIkh4btR0+PSbnyEtI5N8+SuVKwVXntoOOrc6CEqIHa7tBatVb/jZVhMYJND/e6f/uDkS3GrQRWpbWiZc9/Ro+Gb+YjrXBjUrwYjBA0ge54J8VBInJWntTWv53O8s99+FI560VYEczZNaVJsYZQR/mLHRb/DbgAs0Po485AB4/OqTKdOAqjpoIuXK9QDoI4CJkwTYXJKEXEPSngqYIGkyI4ED9tFwvAghLq7ZsBXufHkM/Pj7cu+aKcTSfl1bwXnd21I4mI9oFp6IyVsIJzbi0WkFhAFB7pJGBwgicFAg7mWF9SAjgFBYZ7YAnFfuqoZYl0W7sKjjogcC4bAd9E/g91AJ4l//rIOHhk2CH35bBhkZWbS7q1ezIlx+8jEUE80LMC809EwLkNgxqxTNuBpqeBO+NrBllfKws4d2Xg4KXPiYfl7yD9z5yqewbPUGai9ceeoxbPSjO2SX7meCe4yj3u64Gu6LSyO+74VvMWj7yKkIZLEmJ8qsHHj2/6ZTm6FW5XJw14XdoEldrh6oAkV37SQXDAE1nA9HepXwLwYB2uZhl05fPQi2PjDf4+XRX8HHX/7o2kBaMWrRsBYMuvBEqFyutFcsgHAM5Fg4PyNIVLRVBlcxkApU3ryD/RcA7ovrKPqM/+0IRADhfzv+Rf7Tdyh9dP753h/B+SIYE6VAVcHIH+1CNGvBX/Di6K9g3qK/SceekFAcDq5fHW45uws0QBa6lIRdlSAXW2ZHbKTZ87tAncyweZI15dGAKjzvdZu3w8Yt26BWlXKQnJjABDYb+6vZECKf0ERH/Zz9ESTEumbGaR8ZP4IwcVA9LtIzsmDp6g3UXqiQWpJHWuWpIk1V8igPj20txJJbc7NR9vHOHMyEnJHhE2bCsPEzHEFSx/vg+jXg9vNPgNpVygmANC2DACnR5y8oFyGsVlBPjVi/A2NIFVUPivz98X89ABFA+F/PQPT5bLksjWNr2GNNk3zLIbjbc8Ag5LjIIMK4LmLLIjsbZv2yFAa/+imZ76C+Hhfmww+qDbec3RVqVi7rSIthfTrzEmI982n3h2x05ANINSFMsgy0R7DkjS8IrO7xfBlEWikkPS1UcOVCjBBM6cLzErhBs6/71fHttLVZZLIQRPMY9LkwJka44xfvAc3r4K8Il+fx4TgjLsgoBA7EfltJkb5awBUEBQVWbsnVBIBps3+H+98YD6iCsY/UUinw2DWnQuO61QLXAasTfDqo9z5Qgqt/Dntq5J2SKWddULSs0X2sUI5ABBAK5bQWrJPKfXExzorGijlsouQqCtZEyWjdfQgUpypOmvkbDP3oK1j2z3raNZZMToJjmjcgS2ZXOjYOd3mTFn0VQeWPyqVQ4MP+DKYCIm6R9t4f9t5XYybtU9OnGPtd/bu1BPpfVRRiVSm+amBDuTxhMXZedY6c1FXe1L63qxQ4Qp9nfyiIUFmjmmzZVoJPkAzaKKtN9uzflsH9r4+HlWuDioWqFcvA5b2PhU6tDvIcAqkuKUAItBQ0Y0GdEUNmSDrvluzq5zMiJRasu1fhPtoIIBTu+S0wZ5cvkGDaDborDxIWeRG23vmWyKivzcjMhpGf/wCvjv0WNm9Lo304EgT7dm4JA7q1Cnjpq7wwHkiwizqBg2JcRRDeopLPaQ74ePn4SJQhCgRXC3DeBkaqZ4hsDEM8A8+RFWMqCjbtb9fzE/J74eSlRtH6ga2o0M+MnbZaVnNGglc60GhJtYGrLQw6qIjg/CcEnNG/4v+kUiFEUeWgqHEVVQxCTo7qprhy3SaSMy5etiZASsT5v7R3O+jT8XBISvKKF4pxpkAmJSdyxUfDtfCIVX3CrRAhUKrZFl5QdA34SY0kjfm96qLX7asRiADCvhrp6HN2OAK5LTbhXaj1R7B/jkl+lIqC1d7TnwFg4+Zt8PyH02HCd7/A5q2Y/ghQrUJZOPP4ltCn42Fk4csOikxa1BaDAwzG7EZJclrW150hL4a8sPPOlhd43iXjchbaARuJnt1R6o7Ttg10XdEydbCisG9AQvz5ClYHdAx0wdc13/2uXBUKGrQiQmAB/6O+Av+WNhIcAJNOjQIL18oJEBM5wz+tbQAAIABJREFUsVE5CAFJo4CFDVu3w0sfToePpv0YuEYRAGDVYGDfDsSFsE6JufkcBHgkxoFT+SO2ChSYT71IdiMUa4dfsOgF0Qjs5AhEAGEnByx6+d4dgXiLDu27ZWUhkp9RCug6gl4JOSJZ80DBuy8yGY4XLy0/o5TtkRFfUN85PTMLihcrDlXKp8LgC0+Alo1rm14zL06eQOj7zrpo4KgE2wTxx8nxLXSlNAtCeNEMv4N1CFQVhSNJatKk223vfZMdD3jcVt+x/i0ZEwGZ3ZabU+dTlBO3C6ZWWqhkIB+kQCnw+1qZQZtrqTq4ZE2RlsarIKh6IiMrC978ZAa8M2EGIDHSPg49sBbcf0UvKFsqxeQleGMmbSuo1FEVFbGBX+KdEZPQyJ9m+SN2jvfuNy1692gEdjwCEUDY8RhFr9jHI+AWUVd25u2VLqBu8REym7YOlJtA/WwFC+HIaAQIJrPhr5Xr4P63JpLeHReLxOIJ0LheVbiuXwc4tH4No1tXx0ULDnxlgfkHbKXrCIVGAalDyHUD3uHT+WiJwYyxBQpuMXQrppbYdXFh8qQFCraCoWXrPb3w2GqIrv627eNcEwUc2PaKO1U3Pr6tIojBnQ8DCE9iNXjCVWXovdWhMdRGsARFGxKlpMRxX82Hp9+bHCAl4lhhTPj9l/eCetVNxgKZH1n5orQUiHPgfRCcysW4dDKA9G0ivlrEaMsBqH1PLt3HX+3o4wrYCEQAoYBNWFE43HhSOVpHXXley/Q8Glg2xodWBoh3QHa58RwXPUFNyY1ITntw2CSy1cVFBN3xWjSqBYPO6wZIUKN+coi0qDbMYetcWghkhXYkNN0lOjBA5sxcMteFXwCDLna6ZvjSu9tou5a8OjlSK0SOT0vYSpjcW7vTcKuAQJkhkir3I3A+Fu2YdoqtvDiugZ6Ia8cYkBi4DphXgIDQGmRp1YArBZyNoU6WWmFYsXoj3PzshzTv9lEutSRc168TdGzZiEO6iE/A80rcA+EasBGSd0wM81ScPbYlmAYUKLYVFIGDonBvK2jnGAGEgjZjReR445MWeSvpSG4hZYPuIvHfbTshzE3gdoNf0LC9MG3OH/D4iMmwioKdcqBEShL0bn8oXNCjLVkzB4xuTDaDAw4qd5P5oUWP+Au85KnuPWb6cLGTGjyR7DTXQUCOtlAYMMgKS2DJkN4MWz5InDS7VKus3M1rKFg9kLaNs1EOy1BlAXeIgqsBnskftLnW6oqXcnrugSMxauVIzbBUzuoIiBopzeCA1Qs+fwHnHgO8Br88DuYvWhGIb0YQcMnJ7aB3hxZQUhw2FRR410RxckTAgGBB/TJECuuJrXyWChRdyJecve8GReBgNy/J6Nf30ghEAGEvDWz0trs/AvFMlHTnHQ8kaOvBOixasBAGDZa8iCDipY++gQ8mz4aNW9Lo4MulloB+nVvC2Se0hqTEBBfF63eVPpXP+SSo7a+Q6mixIOq9JyVquT/QSjFSSHV/dMBGvAHYPyEEDoQbEc+3IcxTQHyxu62GIO8g6HjpVANyvKQmMZUdHAUcW7SdLlMqGZITEng3LlHaqlBQiSfk+NwLB5wMQPT22gxKfNWAAaISEhUkqGIhPTMb3vzkW3jrk2+9UkIW+SMPqQ93XdyDcjFoTE3VQF0cMf9BI8Kt7wG3FjS+mf9MEC2QsyDXgrsIdn9Odv+bFr1DNALxRyACCNGVsV+PQBAkBA81IJczUkLNPAgCAGOa5FIFlcTIu+B1m7fBW5/OhP+bPAe2p2fS7hB9Ea49owN0PLyhs/mlhUOAgI2CDpaYg9kArh0gbHUPEnjVdjwKdRk00cN4LH/+sx5m/74CDmtYE+rXqOjAit2t2lyAmPK2Lla7Odvh1oKCAlulCRsQqcRz0Qrke0yibIyLerSBrq0PghLJGHbkDai0f6/gxqdchKorSja1VQMTvBQ2Q9IKAlaLRk2ZA29/OgM2bN7mRgM/t3nD2nDLOV2hRuVyvmLkkhnZTplVCvbPcuxSQeJ2T1iq6jM7AiZWewCw7eZ0Rr8ejUCeIxABhOgC2a9HIB4fwQsHPRchwJo3iywuaK6iEENYxPK+aOOl1/33mk1w/5ufwQ+/LoOMzCy2Yz6gGtw8oDM0rFXZxEP7hcBJ24xVsi4U3vCIy/3qBuhUbb5rQAoA3OVircHlBGQDrNq4Bf47dBx8NW8xHNGkDjxx9SlQtlSyi4DWXSvHQxu1heEm6E52d6sIHiAEcxWsZbEmM5KTpXBBMNL54RGT4Z2J3xMY6nn0wXD3hd2gVEqit5guVlzIfhpkxDwN4jYIU5HGR+ZKgaCTMMapGtjWAo7pnN+WwZ0vj4V1G7cGrvtK5UrDPZf2JOttrGSwp4EQDxUYGJ8DAmMCFnBOXRCT8E08wDEqBSthFO7Jvna83K+/7NHB7XcjEAGE/W5KogOKNwJ5KRt00VKQYAlzvOAaiaMJT9LFy8vjuE89748V8Mg7X8Dvy1YBLmzotNi8US247ewuUK1iGQMSgiqG+DJIX3LWxcB447hTdccgORLWAfCfDVuh/11vw9JVGyAlKREGX9ANuh/V1Pk0YDVDkwMtgU4XOl6sPGNe+/87e6WFlQu2FaLHi1kGKiEk/wGq1hSD5as3wCUPjaRzwGO5rs+xcEGPNhRvrYstgjGtJjh/h2L8+8TnlPRHBVDaYkBxYjgZkhULnouA18SGTdsJHMz+7a9Aa6F0yWS4sOfR0Pu4FpQUqePmoqUluIsVDN5Wmf49QF6NTWfUMbbjv7sgbWfnLXp9NAK7OgIRQNjVkYt+b5+OQL6cFlUybwh+AWWDs1/WnnWwxaA7UlxMvpzzBzwxciosX7OBzrNkShL07XQ4nHNCayhdMkUWETFRMn78YVWD60tTWqSS85jAaDiHJn1Qeue06DH7Hhfd+96cCCO/mEOvO7BWJXjxpr5QsWxpKA45jlXvYpCVZR8gL3IFQ4lxu8JF4J07P7S9o3JBn4yI0dZsTMTOhRyANHT0V+RciQt3nWoV4I1b+0GV8qWd86CmWDJAQKDgBKHkUIkgwX6mVyQoCDC8AwMO1Dlx47Y0eHTYJJj8/W/OsRHPAwHX8W2bwiWnHENkVK0ahCsIHixoZLNWEEzaZkCZweOkToluvGUAd2X89+kXLvqwaATw+s1RanA0HNEIFIARCFYS/AFb0qL6KtkMBuuy54FAPF4CL4K4OL/56Qx457PvqVeNO8DK5VNhwPGt4HRxWlRdO5HsAkz2cFBPcBFh7wNVwquawhv94IKqxLpMcQGcv3glXP7I+9S/x8Xqv2d3gVOPO1RIdNwTx904VxDwz7IbN46PbsHahd53WLngxhYXY9nBY7WAjp1AjUgLc3Lgz5Xr4YL736FjR4fKG/p1hH6dD6PdOskEixWHxARm+zNQYPQkjhHOA8MDBAUf8iwSR3VMtKREJSuOnjoXnv+/aZCWkRm4yls2qQO3ndcNKpVNZSljqELgKhymzaCqBmvDrUZa+OY+Y4FBmeMdRG2FAnCHiQ7RjkAEEKLroUCNgDMRkjo5/13kj7qzzU9mg9gwa2lcSYK2bP7Pus3w0sdfw2czfoVt29OJj9CgZiWKhz6kfvUAB8CpGJQDIOoFnzxoExt1a+kXQbfg6mJLu/AcyKSdeDZs+5c0effrn8G4r3+i+TqiaV14bOApUCIp0QOD4sXkzwIW7LEYn4RdKXHHAwjaSqCYZKkYYPWAKwh6/Dnw+rjvYOiH02mW6lQtD8/d2AdqVS5LYCYRwQy2FmQB1h283WFbfwVVK8RWLqRqIUZYCBbw+FAxgS2jh976DNAUyz5KpSTDzed0heOQgErz5XkHOJ8eHLAhkh5jrFOib+Foa8RzC/aN7XWB+hJHB1tgRiACCAVmqqID1RGIJ3+0TotMahMCo+YxhI2UTLtBe9lUjnYKB/7zmvVb4dahY0gvj7tijIdu2aQ23H5uN6haobSzYNZWgvakcTfKZkpc1tefK3kNFxlrlpRTjI2daOEjsh3uwrN4Ny4l81//XAUXPTgCtmxLh1IpSfDwVadA6yZ1RCoIkFisGCBRET+Tn73znxIZXS98J6sISgxUHwo1QtL4ZAUzuCArWMB/27ItAy5/ZCQsWLKSpu+87m3hslOOhuREDjrCSgeTK3OoksDjFrSJ5rkUyaQbIwUAhvNgWwvidfHP+s1wxwtj4Jc/VwZaCwhOzjvpKOjXpRUZYymfQEGC8g0SnUNiUK3ggJ+0cbRyoHwPlx9hNK0RITG6hxW0EYgAQkGbseh4aQRsJSFgTSx/cQBBFhfr7Od4CWqwIza91omPKgryu1Pn/AHPfDANlq5cRzvjUiWS4cQjm8Llvblvze0FWUBCrQYl3TFA8K0GV+6XYAki3mVjx74YYFsBe/XcasiBTAEJGVnZcN8bE2Ds9PkEgI5qVh+GXHYSlCqRROAAS/a46+VWAwMGR6wT0yZLlMxvH5z9F8QaWkCUVxDwzl0rB1o90OcpsxfCoJfHQVp6JhE8X7mlPwErJVMmGSCju3QXbISfJde7J5t6QODIkAIMvHqCQRamdg6fMAPeHPctgTt94Hkf3rguDLmiF1VgrDxVj8uCKxrDQHXBVINkELXd5Mc0slGOblUFfwQigFDw57DInkEQJHCbwVcSfE8fB8hWBpx2X+2YlQUvmnrnoyBVh6zMbBg/cwE88e4U2LBpG30Mhjpdffqx0PWIxrQLtou/I7qRR79hxWu6X0BVgP2QoOGQIyeacr3uymf+8hfc8PQo2J6WSdWMZ27oA80b1vTlegQIAaDgy+Z6jApO8qtmsO0FGjszTlw50P+4pK+AAdsilz08EhYs/puqKQO6tYYrTm3neRIJxR2YoaoHjSNLG7WPj/OGg6vyRgIBJrKZyJBYdRHug5Il8fnreYvh7lfGBXIW8NwrlCkFgy7qDoc3qu3SOpV/oBwOzVzgNoMQE41aBN8HX6OVA35W8WrEOyiyN6VCduIRQChkE1qUTicvjwRl3Ptnb62sYEGdFcPPlsSo3IStaRnkjzB19kLaDZM/Qv3qMPD09tD8wBqO3KaLsNPJO+Kb5SCwbM9mNWjFw7cYWCKYmRVcdDds2Q43PP0h/LhwOU11/+Nbw1WnH+srCNJe4EoC5wTY3XBA8pjPNoMeG4Iv5WhQj1+qG7g4Y9UjQyseomL4bsGfcO0TH9DrUkumwGMDe8OhB9YQMCNtEKp0cGuB2jHiKaDgBWfNKlG8dNHHOCvfQfkk+Po1G7fAoKFjYd4fPE76QEnjeT2OgpOPPRRSkrF6IABKKgSugqCtBfm5y95QQqqaIeWV0BiREovS7ahQnmsEEArltBadk4rlI7hCcp6ZDTF2zGETJZP4qAvUwmVr4IG3J8K8P/6GrOwsSE5MhGNbNIA7zjseSpdIdsE+gaqBmu1IX11bDWFvAjxq6/yoNsEZuNhmZXObgXbJOTBp5q8w+OVPiLxYv2YleOm/Z0JqyWTu6ScUhyTkHiQUgyRc3KSET7vzUKhTfsmKYYDg/AeEnEgVBAQJ2TlAxys7+mc+mArDJ8yiCUG1wCNXnkL5BrgI47E5voQAGWsqxWmXHtQp6VD9DbyNMrdhLGkRWzHYVhg+YSaZXdlHuxYHwp0XdhfegSYwqjGSd0jU1gxXFgS8ONJnPkiJNKGRjXLRuRMVzjONAELhnNcidVb5smMOJQ1yRoD38I+xDBbDIjJTwi6ASPi+mb8YHh7+OWASID4qlC0F553YBk7t0Jw09brIeXKimikFy9QOIGhjRKrTmh2hDHzX3xeQgIvh5m3pcMXDI+G3pasoI+LOC0+ETq0acbm+WDHAvr5yEZSPYE1+uHKRP0+EmPaCKETCSgUFBypz3Lw9HS5/6F347a9VBAgGX9gdOrU+yBETExJYJYDVA5U4skUxS0bZO5GJnNlZYnalXAO1VNb2gjVFys6BKbN/hydGfAHrNwXdEjHC+bbzu8HBB1QPqhbC1QOxUo6nbLCtJK9Y4PGk/3cWmRE4KFI3oUJ6shFAKKQTW9ROS4l0vBP3fASb/hhwWpRFn3bD2lMPcRAcsdEoHtIzMuGF0V/DqClzYStKH4sXhxqVy8JNZ3WCNgfXM7bBomJwccGxrou8oPhURm2HWJtlajOYHbqqGoaO+hLe+nQGTfPhB9WBRwaeAqVTkgQY8OJLBEBahMUfQVwLd6bN4NULXOFw7RglT0rlgCoIAqLw+buf/oSbnx1NvgO4ML9xxwAiU2LyIbZnFMSwkoGBga8gBBM7NWSJ1R0a3czkTaoeSNUC5wu9Fm55bjT8tOjvwFcA2wk3ntUFOrduLMRNtVH2ag/2YBADJEtKNP4IOFsavhT2OwiaIUUJjUXtHlQYzzcCCIVxVovoOcVXNqh3v89twOEJmCghqAgoGnKLi+b3WrZ6Azw87HOYueAvKmHj4tOueQP474DOlABpvQ9ItieENhtKxP79wUAnx9gXQELVgxwk/QkXQcyH8O/f/fwn3PjMKMjMzAbsqz//nzOgUe3KvnyfB1nRLcQ7CHCKZ61MygFHCmT/A5I2ZmF7gf+M6oF7XhsPn323gNQWp3ZoAdef2UnAgVY3WOKopEAeM+zD+HAKBW6aCIlASVsJqliw/AP885gvf4Rn3p8KCOT0gW/bqklduPOi7lCmZAkDEJhoqBwNzz/wVR+dP9c2EnQQWz2wfgcROCiit6BCd9oRQCh0U1p0T2hn7Ji1paAae60W+FRCL6dToqIuVPi7Py1eCbcNHQN/r91EoKFcakk4v0cbOO04bjVoKmE4PImjjcVpUVQNOGPqvOw0/8g5EBdFXPiwt0/uhAQacmDdpm1w8ZB3KOOAnRW7wknHHMIVA2kxJJG7IioFZCGUFkSM3DKXSybcXmCHST8uWjFAciIrGRggrFy3GS64bzis3biFjufuS06CDmRGBJCUwIREJ8e0hlJuRUcAx38JpjJqhLM3YrLExB8XroD/PvshbN7Gcd36qFKhDAy68ERo1oDJpNb0KAAQnG9EMG9BAZXGNwcljWHFQtRaKLp3oMJ35hFAKHxzWuTPyHUYrF8CdrPVYTGuiZLmMuRwNUEWJ10UA06LALA9LQOGfTYLRk6aTWVtJAPWrFwObujXgfwJWMvP5DetIDgTJeOHoCmA1G5wBk8+K0KzGHDXHlQJ5MDz//clDP9sJp1XtyObwqDzT2CAIMAgSfv85IsQVDPoYqfl8ngXTSB3wbRinHmTyBsdQBCgMP3HRfDf5z8icmX51FLw0q1nQq1KZegY1MCJAQIfE+3OZUuOBQSn6HAtn5BiwaU2srkUjg1GYg95cwJMnvVr4FSwunLZqe3hxCMPhqREHwbFVQOvngjLHPWYbLYGATlVLRgTCdtayK+3RJH/kkYDUCBGIAIIBWKaooPcmRGwrQb8Pf47L7r8J+u06KV74epB7N+DrQm0Yn7y/akw9YeF5HqYmJgAx7duDP/p3xFKoqpBpIyBACfxRdAFyfIBDL+No59xIZTevuYb0C4dKwkA8PvS1XDlwyNpx1y9Yhl4885zoEzJZLc7t2RFMlGSHjv1+60XQy5se69eMJkVmr1ALQXeySNA0D9jJQFtld/85Dsa6w4tG8HgC08kzwZUWGg1g0CM2Bvr+OgcW8mna2mYAChVNFg7569+/AMeGTYR1qNPhXkcflBtuPOiHlA+taSxSg61FpSjIWDFBjYFlB8K+iK/g535OkavLcAjEAGEAjx50aHnPgI7smNml0Rv4WslhqpasOVrWrCpssBAQ70Svp2/BB58exKsXMetBkwoRAOlLgEynDdM4haDTwJk62NvDIQLEnERXFaEz2NgcIB/Z6JeekY2XPnIuzB/0d+0Cx9yeS+SXaqrIkoJlahIksdQ1sCOXBVjAIK0F6j1gaBASYmmkpCemQ1XP/Y+zP19GZERh1zWC44+9ABWV5C9co60PdTlMeguiafOwVr8GVTB0YqBkBHVNErnYOk/6+G+1z+FBYtXErDSB6ZuYhATVXTMuQfMkNR5MpC14EObWFmhfBH/7FQgijhRcxGVD6JbUiEbgQggFLIJjU7Hj0BeTovhKoLlF+iulYCASujiSCJx+cLS9qtjvoX3vpgD29LSaZdcu2p5GHR+NzjkAAx04rK0rSI4kGCcFXEBw2NwXASnnOC+O+cxsN8A7tbVpOipkVNg5KTv6aSPb9uEMiJSknCnzuVz7PkjF4HK+8JF8MeCv+UXQHvt5C5v9E6Jqq4gfoRUExatWAeXPPAOVTXQWvnNQWeTSZKzfxYPBLUvVo8BVz1QcCBj7+yUTVtBPRB0bl4aPR1GTJgZAAd4vgNObANnn9jGjQVHNmtiZFC9ELBSDqgW1CFR2gtRayG6xRShEYgAQhGa7KJ2qvFJiyyBVPleQPqoagbxPnBVg3CwUyjQacPm7WSgNG3OH5SnkJycCD2PaQbX9m1PpXVHCiQ1g1YPgiFOuEDhQVGIkyySnM8gwECACgEEUjNwRWPSrF9h0Etj6XeqVyoLL97cj6oYCBCYg8DAgMiBQsLzscZB7b7dACtfgzbI2u5Q0mScyoHaLQ+bMJNilfH3sb1wzyU9OMJZvRnIUlkWaie7lC2644hw64JklXreJiFSKzv4vGzVBrj28fdh1bpN7vLG86hXvRLcc2lPAmt0vhA2QbLETQ214tcoL8RmQgQljRImJdWDqHBQ1O4sRed8I4BQdOa6SJ5pbq0GLWUHn7V94NsIzsFPQYIxUNJWA34GWjA/OGwSqQvwUbdaBbjhzI5wRJM6ovPXKoL3Q7DmRa6MTZt6riaQk6DKCrNBgEGwzbB81QY4795htGMvKQmPrRrXFrKidyz0IU4m0lgIlNpS14UuN3mj+jM4aSMdk89i2LI9Hf7zzGj4/pe/aAyuOr099OvSMlC9sMehHA0qzUtngEBZKOtBvSCYkOiVDJhq+dR7k2H8Nz8HkhoxTOv8k46Ck9ujogSTGuN4HoTMkXyUs295+ATMYGsBD9YecwQQiuStpUicdAQQisQ0F+2TjA8SgvwDbTlQD1sW5SAvgVMLw6oG/TsCA3RYnD73D0jLYG+EIw+pBzef1Zl29CyVM/p6bTtIOVvJcNbhEPkOGOSkCySaBJHlciabEjFBMBtueGoUzPj5T+qz06LcuWUg2dFxEWj37nfLYT8ERCNsccySCm3RMGGSz99ZQKOzo/oeCEhYumoDXPrQu7B2wxY6lievPQ1aHlTH2z0bkiJVFSThknUe7JwYIIbK+3tQ4MEBgoWZC5bA7S98TG0efeDxtz3kALjl3G5QrjR6UvjIaw1eCrQZlJsg1Yy8VQuMYhzXQMaraH+7orMvzCMQAYTCPLvRubkRCPIR9MexJkrOH4FkfSJ91KrBDloNPy9ZCQ+8PQl++3MVLbBlSqbAjf07wgltm0gOQshN0QUBcQmcg4q4xC3VayZFipTP79wlClp206OmzIHHRnxB7Qgs69936UlO7pgk0kJvveydAnVnLUUL2cULOhCAoGFJ6mZoY52VD6H8g29/WgI3P/cRhVmhvPG12/tDtQplTB6ESBudW6E/Vz7f4Hgr74LVCqyk0PTGbWkZ8MjwSTDxuwWBqxz5Dnde3ANaN6kTCmJiq2vnKhlyTfR5C55rwAqT3ImJUeUgusEU9hGIAEJhn+Ho/IIgQWICw9JH4iLIomijoa3jYl6qBu6XZ8Mbn86AN8bNgO3pGZCYkACHNaoJD1x2EjkscpXAZDM4z39NdlS7YQEIElbEi3MxNiPKYddCBQu4k160Yi1c8sAI2LI9DWpUKivEwGQJa2KSIqkZJOmRLYX9cQQBgosVcC0OLfkTWVJACbUWDGkSFQcjP/8BnnpvCgGV1k3rwSNXnQLJRJj0GRHseyD+B1JV4Qnic2TeB/MuOI+CXS3RU4GeRUGBeQuPDp8Em7ZsN9UDgHbNG8Kt53eDkslJTtZoKwYIBJgDwc6Nlp+gigWt9ni3RJ8t6VsLkWohurUU/hGIAELhn+PoDGUE8pI+aouB5YV+N2tDnGgXS0RGv4CpJJJVEDnw29LVMOjlT+DPv9cRYChbugRc0usoOL1Dc1I4BAGCAQwmRlgXbLZv8GZAalDksxmyiai4JS0DLhryDixesYZaG8/c0Aea1a/uA5ucs6LPZFA3wbAfAtfQZck2yg1dtHEM2NWRwUpGlldZ3PfGeBj31U9Ugh/Y5zjo0+nwUPXAfD5+jFRMxKZC2gvYUuHz4taKuin66sGq9Zvhwbc+g5k//xngHlQun0qujU3rVfeeB/FUCwJYfO6C4R2oqgOBjGsnmNaCcCWi6kF0WykKIxABhKIwy9E55lJFUM28DwcKBzopAPC9cWMaZFoOyldAjwJk8r/xyUzYvDUNEhOLQ+M6VeD+S3tQaJH23bWkrbtWTX8k58V4HADD5uedO5IVswjMpP+rbLjthY9h2pyFtDhf0/c46Nv5cENUBMBWA8UsSyWBds5i2sReDMGLhMGU+j147gHxIAgkYCWDTZuwqoD+BxfeN4wSJkskJ1I2xEF1q7L3AgVGYRS17tp9qwXbKdhacHwPm7cgQVWWmIjA4bMZC+CJEZ8DkhT1gcffq30LAia+OhAvZ0FNkqydcoiYqG0FTWfU5EsudMSMVfT1ikagsI5ABBAK68xG5xV3BOK7LJodsxoohQKdWE0QAgfCTWAzHyY34oK9ZXsG3Pz8RzBrAbP5U0unwMDTjoWTj21GZX5qNcSQ4mSRsg6HRmKokj8iKcoizdkMvMt+4cMv4W1Jd+x6RGOKgEZpo3IPAq6KKjN0CYpG7uiqLZ7EaXv/3N6QbAiTMrlqwxboP+gNUlPUqFwOXr21vwRXYd+/OCQlCjhQ0qBbfK21suUa8J8DAU05OZQOiSmRs3/9y5EoaYxLlYB7Lz0JWjSqzcREY3zEIMUDAyJqOhdH2/ZhToTnHUStheg2UrRHIALgM89/AAAgAElEQVQIRXv+i+TZ51vVIICAdreyy0UgEDerQQCFgoQPp/0IT743jcyTSiQlQptD6sGg846H8pj2qAAhABT8LlZZ/aQoULljmKgoagbqyWfnwKffLoC7X/2E5rNx3Wrw7I2nO4Mi9UHQjIa8DJO4q6FeESI5FMtnFz0twEANknAR/2beErjx6VHUJmjZuA48OrA3SQyJ96BuhQKKON7ZZ0/QmMn4IZdBczBsi0HTG7+c8wfc/co4StHUB7Zuuh/dDC7p3Q5SSyQJt8A7R+ad2OgBglZSlCvC0MVUV6LqQZG8XxTlk44AQlGe/SJ87vl1WVSSInEM4qgZsKoQVj7gey9cthpue/ETWLZqPY1ypXKl4ZYBneHoZgewLl/K+/ZZF01k26O8kbyTwkZFWVze1xAn3WEj9+H8e4cR76FqhTLw/H/6Qq3K5SBBAptQ6kgpj86oyBIV8Qh9KqGODZ2XnLeSBZ2KQRwdsaKAi/crY76BVz7+ms61Z7tmcNOALtJeKA5JzqDJmxXRJxrCqIICdUcMxjlzhWbTvy2be1/9BL6Zvzhw5dasUg7uvLA7NKojLQ2XqaCcB++eiK0O5z9hHBMDlsq5tBbsMRfhr0506kVoBCKAUIQmOzrV4Aio3p93zfT/Xvtvsxpkh2sJi+F46DBISM/Igjc/nQHvTpoNKMkrkZIIpx/XAi48qS2UTElksmK4kiDrtGXRK/mR/RDU5lj8ELDcjws0tTXSoe/tr8LajVsBMwjQg+CQ+tWYd2AjoA0HAe2IuRzvAQKPkPgSiKpAqxRa8nckRbFYRt+H214cA9NmL6TfvvK09nDm8a3YuVGUE6oc0ERLm4CI407tG6mS6Odh68QpGrIB5i5cDncM/ZjSM+2jd4cWcMVp7SEpgU2RYisGxjVRqhjUYtCoadPWwTlhIBB0mXTmSNGXKBqBIjQCEUAoQpMdnWoYIFjNv/xZS/oBLoJ3NSRvBKwkaKhQwFTJ+irkwPLVG+GWoWNJhogLDioL7rqgG1SrkBq3gkCLkxgo4R9tBUFNhFTBgAsqWS4jQADu1d/41CjaXWPJ/e6Le0DHlg09UVGAgXIRYoObFBj4MdLqCZIiKftBOAHEQVCjpKxs2LgtDa58+D0iKOJ5PnhFLzimRQMCQAEHRxOYZGfCJVeS14FUR8RaWbMY0jOzKPPinQkzAsoFPNfHr+sDzRpUj/E9cEDBJVlyVUZbHI4YSu0ObiVwDHbUWojuFdEI0B0hR+nK0XhEI1AERyBeFQGXC00FJFWDlNqZaS9mPqa1oD9jroIBEzk58Nyo6TBq6lza6VetkAq3nt0ZWjeuHXBVdGFOskbjwobMfjRPwodWEbz0T+2NJfpZvAleH/stvCxl/ktOPhrO7d7GcQAcSdG1GTjACdsZXs4XvABiHRQ52tk5KOKOPysHlq7eAFc8/C5g/DUqGF6+9SyoX7MiJAC2NSQoyjgaciuFSQi+KsPvhQBMKxVcSWAFBbZskGOxZMUad5D4Pm0OPoDinEuliO+BZi5oemXIUlmljc7V0slL1RApHjExUi4UwVtDdMoRQCj810Bu+G9/jab1xys36pD8zs2YKhTdEmoscHdiWnMLdNKwIsEHnmcQUjdoq8GBB1rRGUTgY/qPi+DREVOIrJiUlAh9OrSAc09o5fwQdNeq/gj0d1k8Jb+JDYsk9hh38ljidxwENRDKzoEv5y6C24Z+TAS+zq0Pgrsu7k7yRtrFa1gStRx8yd06CKoBApses8WzC0wikyQFCOKDIC2GeYtWwnVPfEAKhirly8AbgwaQzTHJG6XFYS2PNeKaxl4qMJrzEIx2ZnCAEsp3J86CN8Z9C+kZ3lYZMxfuvKg7HNG0npc2mkAqriB4mWWAewDsrOjMkeSa4c5C0SImxnzncv3+hKymd+J7Fr20YI5AVEEomPOW51Hn/wuv+9NYHfy+HpZ8A4PcDkzddqxXfj5PIraKwL/oeAXyPtZh0RH4TLKjfb0u6us3bYM7Xx0PC5fxzhd5AXec25XUDNZZ0SU+mhaDOvlhVYL69GI3TAABy/1CFFRCH37GZQ+NIH+AhrWrwAs3nUGsfgYHxWk3z4Ah6CaooUl8mso/MB4IopRQgqINaMLPnvzDQrjzpbGAbYCD61eH5/5zRkBiqemNHgT5Mj6OE76HUy44tYY6KgJVJu559ROY+/uywIy2aFQL7r/8ZChllAtIQqToZlVOOE5C0D1SzzlATgxHOcs1tb+C6Xxe3nFf5oCx/mtuQNz+tgPlEVDYnbEvSL8bAYSCNFu5HGtgcc3PFz3e+5gv/766IeZ13PpvQhWLOWLeU8uSFuPywwvqzpyHDyhSLgI/EyiwhEXHPeAqgaobuA3AZEeVRCrIeHP8LPho+nzq45dPLQlXnXo0tGlSx/khKFBgkCD9cHEZVAkgvhf349moiP0PeEevpL5V67fCBfcPg9XrN9PnvH77AKheqYwAAgUGHAOt5EElSjqeomRBWACkZX79PK0kcEZCDrz/xRx4/F3OgujapgkMuuAE2blr3LRXLxDokexkm1apXAPbVuBqQjZVRh58cwJs2uptlXFhP++kI+Gsbm1ELWESG8WYSTkI7GAp6gWK3Fa+AVed4soa5fIqCo6Jthi3q7ePQnAbjU4hzghEAKEAXxa57brt4hqoxOdxrj6hTl+0d3cJsaV9s+C73nt+j96fWLzzyA9QCFYRPEjQVkPYYVF5AeoAqAsqvd6CCgD4efFKeGTEFFIaJCcmQPcjm8CZXQ6jXT314zXZUVQN5NaHAEEOQ4sjCFYIHIjDIJkWSSYCLtQbtmyHyx8eCYuWr4GUJHQz7AtND6gW1ywJqwo2k4FJejre7CzJEkcPRjR7wQEFAQjP/t+XMHzCTJqEi3odBed2b8tkwED2A4MSWnC1gOCcGr2NsoIObTVge+GBtybA5zN/IQCij0rlU2Hwhd3hkAY13HnEpDRKOBNWFLSy4PgeJl2TDskgpHD8dUG6RfjKgFw8ZsX39wXlttjvnEvcdnUkhtmh1t1uVOoK0jhGxyqbr4ikWDAvhfACq7tVfNY0QP6C577I+tf5VwUW071QYg2UNp0OXsCI2O4GIIpfs/xEmVOyOzy17aUxcCJ7vc3lzVHIi4ugu3d9p0CrQRIILTDQdUyBwv+zdxUAVlVddyMwQ8fQjUgLipSKAShiIagIdhcG1icGdmJ3oqKiopgoIIgFKCqg0t0gIN0x/X+7ztk3JkBk4P/e+37/GWbevHfvufeds87aa6+1bvN2uPetb2Dtpm10XG2b1ILeZx5FBkpYB8fj1uhlUtErQDArqQIRbHWk1kbsXFCrY1moMZPhlheGwJR5f1Ft/ZGrT4MOLQ/yrY4hLYK2HrLuQceHFxai/kVLoQwCGyMhg6HAhMsc973xNXz3+xzqnkAHx46tGnKLo6P5veVx8LIUElGi5k1wG6drq8wGwNyF6578GFat3+yuPy74HVs2hBvP7ghlSibHGyOJ/kBNoVz2hAnL0vO294tvv9w1BqqgZ5G4+SCnOSGveSGnOeTfnhsKegwT7x8dgQSDsJ/dFTktsD4i2K+edlccOc0YCjW3BTY/u/C8hjKeNfDbSWfQE9eX75yNZLuH/9ZedfmdTu52LDxQyJsRya95ku6ufbATdzcwSGBQphst/IrMwcMDv4OlqzfRkl+vWgrcdm4HKFsymSlut0Brm51XzevoeIDAtD6lKmZkecFiVjbsTMuA+976Gsb8OZ9e88aeHSiTwUc9s1iRfBFU5W9Mm3SsFNiwAFPez7U5YkCT76JAv4frn/kEps5fAcWSi8JzN3Wndk6rAUDgYFsKFWipsJM9ECS1UUonypYgc9Bv4CjIMM6JGICF4ACjrTXrQdkQZREsQ8IJksyYqPbAlxaCwHF/Yg9yAwWx84GjBCzWDhYV2LvTdXpqbpd85e6aOAC+J+aHvOaPxO/3/ggkAMLeH/PdfkdXUpCV0FKG+sENLHLu453zW9KEEGIjFSjs6i48txOLAwcWkDgNgGYu8ywU6HkPv75nhUWpEAIK+vxdBgmO2dCZEhd+3u16l0HWGliQoDV1/blCtR2pGfDkR6NhPgkVs6F6hbJw5/kdoFzp4qyiF8zjvuctnDBBnt1xJQZ0UoRCkJGhO3rOZ0jPyCYtwOejpxBAOPeE1nDdmUfTzp5Cmij22eczcAwzL56+Dh8skWiCJGsfol0MG7ftpCTJv1ZvpPN5/fZzKJRKXztskCTyA6fr0AjnLKOl0PLCzvQMeGbQD/DN+FmB+6BxnSrU2lg1pbQs/MYISboW8Fw1ZpqCqfDnUlZAUIEP1nv48oJnD/bdtsa8dDs5bhTknsL+FPcwIJtBQdBLOl9zg/uI7F+My25Pwv9jf5gACPvRBQ/XycMLbLaumFIDjz01La/LL70vDL+aTauLAwq7K9oKsBlukyK7bj0IwSp8GPnTH9idi2tRy8bJKnj2FiTkttsJsgj6Gt4ACX/CJQQRKcphakS0a4+UE8bzSE/PgteH/gazl62h8a1VqSz07n4UlCqWRCUGhQKqR+AyPa5eOBDiFyAph1nZhShm2XcxBG2XB46YAK8PGUcHfuLhTeCuiztTJoK2Oip7oKwCvr/u7u2QqcYCz8vHS5ugJnFwXLluC1z6yPuA3RoY0oQAoULpEpLc6BdpfR86MPI/4P+0jEGW0dJKqWwClmRue3EILFi+JnAxzzq+JVxxWjtITuKsB/qPNBW2rOHDmai90ZwnPp8MqUL1dfdZ2EWB656cQjwAkIFyKDf6LnEbBF3naYwdGOCb1N3boTkgp+N39wOB2H9vbtiT45d4rT07AgmAsGfH8197NZoMAswBk8+eltePs/xMBW52xfNbB56nqd7Nr8vYwuzEZXfl5iepje9qdwBPTJ6isBMgLRLCoSsc0N+788phRPVsfVmBj9+BBDM97so55KRF4Lp8sHxgOxwUOBCwEaCjYCEzKxNGTpgLi1duoENpUKsinNCK6XGlumXNciFGTCFkQyFGfT4sylDxTPV722UsPQz7ZQY8+u4o+psjmx0Ij/bqQiZCHPWssc/cXYCsgqr7VTuoY6UAQTUBFiQ4q2XJnLiy34dkJ31QzUrw0i1nAZYAlEHQEoBrcZQ3wNdXcEBlDAEc3LLJ3QszF6+C21/6gjIY9IFsx12XngwdDkOXSIyw9uwAlzKAwAIKJK3lclicyGUdFWYWrO9BRGwcwgbhj0BOYkP3GVKRry3Lyeec/jZfAMGPSQAoGPAd2ED8C3qlf20yTbxwvkcgARDyPVQF98TwAqsfTLfA0irsg314UebjdftwuyGPLP78XK2HE4sgp8sLF9ceGVDwq+a35hh37I6Cly2b7iYV8LhduDv6EB0gM5xb1AJUsW9d011iACDIoOTGhEQBTQiMybhyrZ7LIHa8tYavh4/dALgb3rBlJy3I1VJKQ6niSQLMeCzVVll3tfgalvXILlTI5xLIrp4AghglabvjuKmL4LaXv6RjOuSg6pSqWLpEshgWAZUbnHGSDS4y9wReYg9uRG+AnROqPTD+C7/PXgY3P/8FZGRmwiH1a8DTvc+AksWKut28AwjUoeHvJXx99j7wOgfb4ohWzl+OnQqvfDaWzlEfCD5e7sNlDLZNZoDgShmkr4hnDwgkaJyzu2cEFAtQ3V2GbFdmhzgdUU4ggLFC8P535UT9gDu2wN+HjoVzGwWZD+y/Q5SRZxODn383NxjgguRWZG6QiSe/c8OujFniuQUzAgmAUDDjvkvv6urzZkcQ2X3r7jZA0/sdOlOO0jqni78BAVob1g83f8UdbLAeqyAhPxNpRERlj1HKIby42gwDATomE8EBncixiGeAdM5pJ0D4HDSARyc6XbhzBwnyopYBsYyNKTX4soIHZR4wKDIrRLtiqvVLzd8dp1yHYEiTAjK+Di6vQDoLyCRJwIEaGOHuG3fdvR4fDOmZmXBQjYrw4i1nQQpR/kz3owaBtAjisMjUu++k0LGmBZw6GUybo8Y8C1jAdfubCbPgwbdG0nPbHVIPHr6qCxTDmGcSQfoURVvGYObFd0pol4TtXkDW4NmPfqD2Rh1LHImWjWvDg1efBiUk8CoczMRpjez54PImkGkw7aTK1nDuggG8eyHOOSdhIa+tIgCkY/Krd7jcZklBKiPYkqKMrZbACCgYlk6KDYLzDUJAtsqAEfo+Bni7z5AwdH4jId/pOeRngtilWTDx5IIYgQRAKIhR34X3tKUF3RVY5oB33+EFVsx9QnVHxyzKZ9mBAtmj+Bo404uyhjuQoP75PKfmzSLkDGz8jlwXInxJXCDwoYZDfiLE85NZTiZP7NnX4+Fdt98dWrBDrIjQokEmJPfjz4lF0BZA3WVrJ6LfdZtdnGVwQtfcbt50J4aTul+0wn4BkgFBu26k5DH2OdP5IhCDkAXw15qNcPFD78H2nem0y36lT08Kh9IFU5MdESDYxZXGT0pOdC4S8xwACBrxLJ0GeByDv58Ez388mhbxTm0awd2XnARJRRiEUCeDpibq67sIawlmorZGOSfpmMDXXfL3BrjvzeGweIXPXsCFH82RUHxpzY9Ue+A6JwL5C5I5UQjHlg2TggufUOmC4/6NdS2OMQiXCRimBHU3FgjQfefuIV/G0h/Z0pxlgPhamrKX3lZmI2HPOTw2+tlygEHLkKJLCN7HChL2XZHnLky9iafShjKoikkMyj40ArmWFgzNrYuqOvspxR3Y2ToTHPxDDwACoECU3YEFViaU3Sk1WICAizN1AcgWVScxreNrS50/ZuNgGLe4CoCxlLHWmWmXLop13vEwc+L0Cvkslejx+92dlFoMBW9LunxOfpo3hE/sXeWOR2lv8yz9Hb8G77iVRUDGgFodxSTJOSpmAazbtA3Of2AgbNq6AyqVKwWvYVdBhdK8qzZWy8okaHugXxh8ySTMIFiLZS1pvD0MA6J+IYBwaruDoc8Fx0NSYRZFanKithhqaUrBh399AxZIg5ANv81YAo+8MxK2bPPuiZi9cO/lp0DbpnWkXVF0BqZtkxkEtVpWfQLf78HuBW8MtTuls/xOE256NaswlY8MSxBXMuCrHiqt5cAUhAEBddYIiLe/0zJkGIq4d1EXT/rQmC4P49PBQMFrlvATEQEJe4GJye/4J573z0YgARD+2fj9q38dXGBVY2Ap+GAMMU4GuBvj1jtlFZg3CO1NHJ3odo44gcYsuk5E5yjHoB4hpx1XLPMhk56WFaw1sfteKHR8Dicj6nQWpINxwffteTxpadsaif8MSFAq/wAzCvktlcSBBFV5hcGAHWO3o8vhDtEFwoME/0QLZBQkarIidRVoS6BEPqs2AEHD+q074KIH3ye75fJlSsBrfc6G2lW47TDQySDhTQ4geI0qHUhciQHFiRwxzZ0N6VlZ8MrnP8MH37CLYrdjD4FbzukISWhtbHfxAhZ8Cx5fU9UfUAeDuERSJ0NmNnzy4yToP+RnyDT6g6oVy8KT158BNSqVlXAmX8LwGgTb3ujbOB141DAs0dGYKkOk8+WffrijLJTXEwTakm3HAQ68be8N/DvY9mtZLP2c8HXjIyc/DtUmKXg1TJxjFLmnlmYJNe3CY3DMnM4LriXXbDBkkJB9cjoluYESWoR/egcV/N8nAELBX4McjyCOole5Flrgap1Rd9/aaucTBo2ILlhuFEGinxC0B1933oVFVIbThi9FxO3Co3Ri3MSotDWXRCQISZIRLXtApjkKDrI8i+AGyZRHeDfD9WUbvqNiNKtJsKUG2iAJi5AXpRykeU2rmIAN/b2en8zMAUAWoJjlCWH9gZYqbLnBLxSaCeHjj9H2GNdOXLAtQNi4dSdc9uggWLF2E5RGQd9/ekCDmhXzBggh4aouNM7W2WQ/6PulZWbCMx/+CF+MmUpnhaZM13U/1ukcfJoiXh/keqQCjte4kDFHCnkgpKZnwAsfj4bh42YE/A/QVhnDmVB0qd0XWsbwnQu+1dHlL8S4J/J1//e6F8JaA2YNvNGQLtx63fnTLAu7lO/0NQJAVJ6oz40wBaQ58KZdMk04zw5XctAPlLBrttXW5nO4tMtQCc+zCJ6d29US5D489SYOTUYgARD20VshvztwpZ15B672uH5B8bsJ74OiWEHBAE7dBxTKln54dZvzX339UYxlZMehW83wTkGP3U6KdieDu0RlO+zOWHeUmuynLAKLsHTPzROtMh+YWVCYjh9p5Ww4AP9HynbWJChwoB2Riq7M8YdI3Ni7IXeQ4Hd1foL3vf45vb4+lxYqW/5wvfnMoKjCLKgJEB8EXbRl143gavO2nXDV4x/B4pXroWSxJHj2pjOheb1qVLNHIIWlBYx71m4GB66EddEBwHPWlEUVQbIwkmOf8fvU9Ex4dOAoGPnbLPqzC09uC1d2PZJaKFWkWATr/hI8pbtMvRecKFE6GdgLAWDzjlR44M2v4fdZSzwuLARwTIv60PfSk6iEEREnallBRIqqgeDz8/ey9z8IAoT83Af5nSrs/RILDDwZJiW3aFnKsQNOm8DwKtxGy3ghqEEi5g0/YwjCTC6IIpDA3GI7glTIaT43PHY+3Eo/U9rxxEDBCBzNueUFvvM7nonnFdwIJABCwY19ru8czx5ofVgEa0K/48LqwQGXGXxeAD+XJhLXw+y9//EDrpMom854ut5OrK5GbajonGq34WOnBcGZ4/hj9+DGhxDRz6QX3usTggUSpUHp+NQNUI7dBhDR77Q0QpOcESyaIn9eVGi8yEzGVCZHyyS4RTbyjcJy3SqGOkTM2PIYWvBRCLIys7g10LIHRPXzgo3XHcWJ1z71McxesgqKJRWFJ68/HVo3runaAL1I0UciE4iKAwh0LcQoyTEI3ncBrZ3vHzASfvxjLp3Qld3awUUnt40JT5JuEyN05yAoSaLMBMiUkgOCklXrt0Df176CBX95gyS8XN2OPRSuO6s96xvEOtk5Jlodgume8PdwsAzlO12CAO2fTgfRkpR+9gTrGeFwRFiot4Xp9mEAwP9P+BcGCu4zLYJS8zfq+KnMA33+JWWU30L9T7RXwtp9+7nBW1MzSLBeErbjhssR/jP6b2o6/un1Sfz9ro1AAiDs2njtlWfHUvShWqKj4snHHheNLAICuLsjyh53Y6J41wnGk5hmRyBOdLwDl5qus6SV3ZdtzctBi+Bf265yvLtxNKcpLaj/vgrVtJ+f/+3r0/q3zgNedv9Eg5Jughc67YXn81BXPWOxq3SyOOjRNJnPMoOCK9d6FuzoEgmhTLwCxPS5eTlCcl2eJ1dtLbV/yyVoZIR4V2hbAVmcyHkMChBw0b75+c9h0ty/IKloEejX6zRo17yuy0ZQgGDzGZhx8d32uviQkVEYIEjcNL7fjrQMuLv/cPh5ygI6/uvPag9nH9+S7iMVKSqTwKUq35JnBZDOC0FSKucsWQ339h8GqzdscZ83ZDyu6HY0nNXxMDZHkmuszAhpEKxBkt4DLmuiECdk0n0TGvM9JKrLHRzwTeNBAe/6AwxfiAlQcMCvG+O1kc0lC3od/VvzGXOsnWUR3EIeHAMdF+wOKozlIP1smawOHHP6zOFnyYSMsdGaFysmAMJeWSb2ypskAMJeGeZde5NgecG3LOpOgCZu2YHhz9R9Di14GSz4hcTHFPtjUDYAF1m2oRW7WqVnZZLgGi4vUK6PXWqWAVGSRyC8O6F1QPc7Rlyp4EUtdjV0yFjsYghRlixCyjDYuimVFxQcCENQWB30NMFPooxdDdoKFp0Hv9Qb5NjzYhFyBgle6iV7RRno4IIQdwcE35Ovs1mmvbg0JNykyGezo+eURQZVGJ502ytfwm/TF0PRIoXh4au7wLGH1vMAQcSJEYBg6vF5AQRtqdyemg59Xx8Gv05bRKf3n3OPg9PbH+pNkkxHAZWpzL2hrY24sCHY8PdxNvwydRFFPNsOBmRDbjnveDi+dSPeybqkSBElBhgEb63M4FEAkBHbaUcFr9r/rC0vDOitkZku8naxD+zsRYejrEBYbxARHDrRrjezYtEvdy4w6Ah2AIXFtHovWoGsKzcKU6Dpl2plbdkDGlPtZtC2UWOc5Noa/uG47tqsmXj2vzECCYDwb4zqP3xNS9FTeyB+4IVu5lKCN7FROh4td9WiNgODhcREB8GCE0SZpUtr+BrW44JtyJ1OLGt1xyA7dNcTHVPLD2xMAjsl33XhSgdKJ2umgOyM3cIn/fDbdqbDztR0oVRFUHlAIbLyJYMfEAc98uKX47YhPYYVcZSo6dTw7pB5ezroJY0vNzhFgbnycT+LuzHCwICXEgQPjlomgMDwwYcnSS4CihSlzECixYwsuLv/MBgzaT4BhAeuOAU6tKwvIkUJa0LnQQMUaGcYLm8YK2TSHuD9ha+PoVDiuYDx0ne9OhR+nbGYdpy3X9gZurQ72AsIzULOAMGXTRxLZACC5jEMGzcdXv50LOxMS3cDVrpEMbj9os5kH20Finj/EosQBgxiuRxXJlOviT3RwRDH9vl7BcsKpkwkQA9/T59L/GyLHgc/pLTAk35AmDe5AVSYrAJfvkP855rLicomaEuseY7pBAowcaodKFQIMtIzIDmpiGPjnLeEY+iYrQuLgVmLkJPXyD8DXv9wGk38+R4YgQRA2AODuKdfwlGVxvtfneeso571yScWQXaSFAWMi28m1qTTYPO2HVzvxUk+M4t64qtXKS/CvmCrGHvY+8WWJwXVKagdc0zN0S6NRrGN3oG8w2G62tXQtY4ux+WEcEJp4wT6xDvfwJ+zlwWGt1jRItD/votcTR2PV1vc2CnQRhn7AB8tSRTCWju2SFp14C7udJQdUbbEHmC0YyG/d4ctM/Df8E5enCYlC4K7CoIMggUIWKp58O2RMGr8bA8QDqsvgCCa5qj1/PwABHxf57mQmQXb0tLhzleHwXgBCPdcdjJ0btM4AhCIhXLcCOltFJQAACAASURBVN4PoqVQtsvkS+A9POibiTDw6/GQZiKeK5QtBX0uPAHa/NdJMQAQxFrZh08Z0IilCGLJkDJnEyrt4xes4ipjuyqoy61LQTU3qhvQ66jdRVoOUGExiwq5TMBAUMzCXGuibXEWZi7cviifMx8aJp87vpP4XhKwojpCXNi370iFYWOnwi/TFkPHlgdBzxNaQlEUgQqbyOJl7RTiuSFW22OEih54JwBCfj/9++rzEgBhH7wyTu4jAIEMemUXSZMM7kBMLzwvrliLxp+LiEwCcN7+6hd4b8TEwFnijmtwv8uhXOkSTnfgKWcFB6GJFkFCjBaBJ9qgBjxYXijEimpkDaS0YPvfFRhQux7tUPlcNmzeDmff+RaBnvBj0COXQUq5kuTSp+CArYNxN4k/O0B+Zzz5ZTeLrxXpZthFgGB3iO7YQjL4AIjI9R6LYS9UgCaTu1swZPxyBwjZ8Nh73wLuwvE6I4PQkRgENEpiAIWgT4FULEDgNYXDlMw1iQCEVAQIQ2H8zCXEIKCJ0QlSAnAhSmK5HAUIaD3NpTAqMYheBr9/+bMxlMMQ8EBIKQM3n3c8tM4DIPjWSg9qGSDodTchRK4Mn38GiYGblJWcFsW3MIoekMtDyt4J5W/LgqobsC3KrqSmJaWQJsGJFAPgQEWMRusj109ZBvmnuwszMjJhzYYt8N1vM2HQqD8gDS+sPI5vWR8eu75rICqbAILoVFT3o0yC80kxrGICIOyDi8puHlICIOzmwP1bfxbUH6jIz+/CXXlBdl9+5x1sQUM9An7u73npCxg/M7gLx2O/ols7OKtza1DnOb9g4OIqC61Q0djapKIzX6v0LY/WIMUvjEZdbVowva0u7kaZrtYdsGuhy8qCET9Nh2c//DF2mJ+8qTs0Oaga0+Z0jAdAUTlWFOG5SGNZDFV86csMzIDYvu1/0ubm2toILf2DOyOAhfwiROyL+EfkVWLABRZbD7/+ZQaNy/1XnALH5QIQbJiSa+wwAIFipQW08Vf0XkCr5yzAEsMdrw6FCTO5HbHvJSfCyYc3cS2OTjBKO3m3byXZKrNfopcRgIDsB77HfW8Mg1+nLnK7aXztyuVLw03nHgeHN60b9EBwYkVbblLmyHtkeCOtUILj7mhQ7DW2zplcHIoKEY3fh2oESHNhQX9IXJwfLQEfOrczMlthSg32OOR5yCL+PnMxDB07DWYvXgWbjEul3rWNaleG9++/EIogcyBpmRGAICUp+3mKtzNPMAj/YDbYJ/40ARD2icvgD8ICBBUXqYDJtv85AxvqSxfDHG15k6+paRlw2QMDYc2GrZGzPLBaCjx3+zmQXLSwLLK4sEqPvO7GZddJfvpS81fRotYdVawYN4zOCVE7KqSsoLtGFdeRQ59R5FN//ZtfO/Fb+LVvvuAEaN+mETEGGjqEoCBJygv0M9EkuNAe7e2WiOU9CRACu0p7sPkFCyGSJLBQy441N4AQEClmZMGDA0bAdxPn5MAg4KKZTX4INgExUGKwAEGcGylWOgwQqMQwFMbPYAbh1nOPh9OOae5e15cCwgCBy2H0H7FhTK+TAVNmJvR56UuYMndZECAgg3DOcc5m2dspMxgg5gi1CFhSIGDITJjd6TrmiMUQ7JyYD/ZISwTWapFahsPGRyG9gXYp4Dkii0YMgunQ0bhr8ptwAl7vIOrdUL2jqGcXhTEIHYNgAboL1TNh7YYtMGPBCvjih8kwZ9lq1yIZ95ltUrcKvHffBVxicBqeUInBaBGcH0JCpLiPrSR75nASAGHPjOMeexUrUNQPOwMEFSfyjo6taaUHnhZX/ncaTuQSqoM0Yu/HB5Mvf/hRsngyPHFTd6hTrYJ49AtA0EXWLLa+/VFqkCpMCtUdZdr1Aippt7Ytl7oDJtGbHGeafMVzwJ9v2LoD/vPkx7By3ebYcT3v5LbQvXMb5w6IwICYAzIBYvqc2/mYDXG0s/b7h1sdZaDz08mQ3wu9a1qEeIpbF4MIg2BSHMNtjgiu7np9GLUe4vk/dFUXaN+inikxBAFCfjQIfG8xI2U1CNvTMuCu14bBL9O5i6F3j/bQ47gWPgtBfSqMBkGFl67TBnfSUi5DEITH3+elL2DavOW7BhCKCOARgKCpjv8UIMSVE+w9wHqDYKKiCg+5HMhlGnweez2ImZnGXIcBg+h0nI+JaV8U3BZY/Am0mARHLW3gk9Zv3AofjhgPE2YupYwO1Tfkdg8fVr8avHHXeeZzo2FXXqRorczRIZOaU5zHim8fDnSK5PeDk3jePjUCCYCwT10OEabRzibY3qiUo6PopTVQFwheXBkopAklPG/pauj7whewI9WrwfV08UOOO/FjWjX0C60urmahRfYAF1xtK3NiPwEJapDifPapcT9YXnA972KC5JkDLjEwQMiCNPT4z8yCqfOWw90vDclxQjvu8CbQq2dHiS/m40tC9gO/GnCgugRnx2sjfyOGT7tWh96V28aWXQIEQx7KOAWGOKC6YChzpNS/BQi4eO9Mz6Ad+O+zlpJI8ZFep8HRzQ/0OQz50SAIMtEdrnYxhAHCjvTMgA/CVacfBRd0bs0AwZV30EkRHS7F8UHr8USx+xKDvhcChNtfGgJT5v0VuP4Vy5WCm889Ho44OH8lhj0BEFzpKEZr4MC7LtCqC3D6AelUoH/z9bMeFgoUtEWZWQTtTuJSAbcrBruQooocvaPYh2D7jjSYu2QVjJ44G8b8OT8g9MztnsXTqFahDHQ5sgn0OvNo16rq/UXEU0TKRWpjTmLfhFHSrkwH+9VzEwBhH7pcgd2Kmp+YLgCq2xrHOabmPWOAC21aZhYDhMxs+HPWEqLq040a3J5up8MbwzVnHwdFihwASbTjxoUWF1nejfHPRPzn6pHebTGQb2C6+nRXlZ2F+ydWZGtbmxMlmpKCO24BOU8NGOHMd+IuT6umdeCWS06GpP8ugMoYIDDA4042DAiXGrQ2bdq0pJPB9YHvgmHS3rxdtLSE78nmV6z+V88DFnZ6J0X8HsHgjc99DtMWrICkooXhsWu7whFN6zLtLwCKdRsS3iQ+GDl2MShrICUBbXPE+2tneibc9+YIGDNpHg3LJaceAZd1OYIXF/WiEJFifgECCubueu0r+H3mkgBAwOAp9EFo16xerl0MRItLiYFq6CpOtFbbeZQYchMhRoCB6TbRMhB3I8g1E52BBfZhsysutzDboPbWrsPBOihiCivTdJHSSGZmJoyZMBs+/2ESOVHaDpC87tmq5UvB5V0Oh2NbNYDypYtzlkbAcCzookjW5soKcVuI0/QkBIp5jfb+9fsEQNiHrpfqD7S+af0PAjS9LgrZzBgwa6C7cd6JI3j4/reZ8PJHP+R4hhXKloAX77oQsHUQF1ei5gsXgmTZjStVH4gGjrQ8RnV5HiBwKYTqzFoWoWPjhU1LCwhqUtERMBMohfCqB94lh8CcHgfWqAj39z4TiqF+onBhSCbmA+gcCOAUsaUG7ZH3AMEL1nxvfn5q0Xv7VskNINBuXl0U5XscU/SOQKvluUtXQ3LRIvDE9d2oNZABAo9RFCCwRsASGkSJ5+CkqOUs3O0/OGAkfP87Wy2fe0Jr6HXG0e69nNkOidriGATpbDElBrzuD701An6aPD8AEDCg6ZbzO8GxLepL66KNemazJKepsP4XImLMTaQYPO9oh4Lbo2t3iRMFem2AAwdqWiQAX1uRtSSorcgKGFA/hNdx0uyl8NE3v0NaRgaBaryvLz39aKhdvSK7LaqeJZTbsXT5Gvh9xmL48fc5sGLNpnzfoviZb9WkFhzfugG0P6wBlCqezDojMUULdKFonoVhDwICxdgshn+Pkcv3SSae+I9HIAEQ/vEQ7rkXyM0gScVNuvvwyn9ubyTmAAN0aKFlC94Ph/8Kn30/KdcDvPuqU+HQxnUdPe8WWQEL+G9tiwvsKsSOMcAiyG5KVdWWFtcJEY9VFzZmO1hgiceNx//D+FnwwqDvcz3mCmVLwhO3nwfFk4oQg6DMAR27MAkIGJD9QMCATEKgPUuMn3AbRur6fIrV9tyVzt8rxQEEBVu6sNBiLcwLLj6bt6fC1Y8NhsV/r4NiSUXgqRvOgJYNaoiZkAAEjX6Wr2GrZd0lK+0d7JTxWgQECI+8Owq+Gc9hTWe0PxRuPLuDT3MkzQe3yNECrUmeyIgQaBRzL8xiEBdQ1Do8/eH38M2vs+j3+iieXBRuPOc46NSmccSpkY2S4oyyxI4b2xzxWlPeRM5tjnmbHplMhED2QVBrwOwBnpuUFpwRmGoQuINHSzZzFv8Nd744BLbtTAvcGJVTSsPzfS+U3ggu2/HHrhCsWLUeBnw6BmYtWUWfp115nILMYc/2ZDjG4J/Bmw3Aws8LiZPFD0GN1bTEiD8ni2XjrBqgNSSRcleOK/HcfW8EEgBhH7om8QZJnLWgKmeO+fV6A1X/W5peQcJTA76GiTMW53qGRx/WAK6/4ARXWuAFlhddX9PnkgML2oJ5DZrmZvONtRdclduuvCA978FjZvYDqeWdGVnw0qDvYLTsSHM6cFwQnr/nIihbshhpDzwwYPYgOSxWdC57QpVKJwMKq7iGKu+0j01qQYAgbIxYa3s9gC8x4Tqxfst2uPzRQfD3us2AiyqmOR5yUHUf92xEnOo+mFtYk9vpStlK9SMISpDGfvKDH+Crn6fRAJ5y5MFw2wWdoGgRTnDk7hcpSeG94/r3WbgXaHM0HS4Dhv4Kg7/7I1AaQz3Ftd2PpS4JbZ8knYHmL7iuDH5fzYCwRkkEUoxvh4lkEA/DoE24ZQ6cYDRkXqRCRHU5VL1NMGtC0jdFWOxaR6UV+Y+Zi+Hh/sNjWbP3nuhFh4G36Oat2+HPGYthwtQFMHPhynwDA7wGDWtWhGNbNoCOrRpA9crlfUCbsaJW90QLptlincXJCCM4zE0N04JRz4nywj60mOyhQ0kAhD00kHviZcIAgQySKHOBg5j8ZO0DelBvgLtI2oEjbZ/BO3Hclfd54kNYtnpjrodWtUIZeOiGs6BcmeJUv8cdBe668XtbdsBdeMB+1SYASlgL7TzF1EmV905/IFSqLjBhQIP/Rm///zz5Ub6o0nuu6QoNDqweKCvoMSvIcV0NEgWsaZXkqEc6BAYIu2O5vCeud16vsTsAYc2mrXDJQ+/D+s3bATtVXrilOzStU8VkMbCmRHeO3A4oO0FzQK5Fzy1qvhUVJS3os5GekQ0vfjIGBgtL1alNI7jrkpMIpDnvCQMQCuHNQK2AvBt2Rkki0NPWxyFjp0L/L34OWC3jdbrg5MMpUlpbHPF6opZCz4G/N5oTFNeKE6iK6vATFbBatqo/I0YMgINA+yJ3FLG2RjNRvDUyh5AxM4JlQXY15S4QJyy1rqdZAJNmLSatUBwT8PZjV0NqWjp899MUGDZmCmAYV34fqMGoW6Uc9DrrGEDdjk8/9e6ouvirroDBATJuPv6dwYGPzSYWBpEWahHCKY48CQTKVfk93sTz9r0RSACEfeia+B5nb5CkDopqkKQueioWY4DgywupGSxUxFr0Ffe8lecuo1hyUbjr6q7QsE4VxxwEF1qu55MLX2ihdTsJmivc7OqyE1SopQuB9T1Iw+Mk5oCPFwHOXKRan/88X+1Y55xyOJzc/jB3zAgKklFsqToEKTeQAZTsKGkBUTdIATVs4CMz2r80seXc8ph7nTYWIKjNslguk1BRWlyxFLBq/Va48MGBsGV7KpQtVQxe+k8PqF+jomcQtMtDrqmWjYQxdp+GcNeMljHC5Ya3h4+HN7/6lf7uuFYN4Z7LTiIG5wAqTSGtz+yTT/vjjIlgyUysweXcfp66EJ56/1vYbIx8cCHr1v5QuPbMYxkUuHtR9AfyM8seBKK/lQ4PAwTxKKAWVxcyxveEWib7DAQxrMrB+Eg7FTR4yrYjE1CQUhCygCw0RQCRDZNmLoUnBsQDhHaH1YcZ85bHtirnNHWVKZEMndo2hmMOqw9N61WF5KJFJeDKJzF6+3TxihB9AQE78QxR3QYBC/rcMChwn3tpbXQBY7vpTLkPTcGJQwmNQAIg7EO3RCxAEAaB6Vj14BedgYKDLIDUjEzWIAiDsGDpKrjz+c/ydXaXnH4UnHj0IZ6qR5oeWQQU+9GCIiDBCcHMJCJ0Pc2mwtm6sBnTdWEXFtVLeICADEgmPP32CEryy8+jbfN6cO35J9BOGBekpCLIengNArU7SqkBv9fdJtLcVHPXurTWF/agDmHXPBDs2QYBgwIEu2PVXahmMoQBwoq1m+Hih96HrTtSoWK5kvDKrT2hduVyToNABknCGuiOm2rQ5A3BII+b63gHHCgxCFuF761CxS/GTIGnBv1Alx+DlB65ugtpH6gtVlgmZ64l9wiBD42upnuaa/YKfmctXgUPvDk8EPeMx9WxdSO47YITyNyLauQCEoJfNWxM48s5OwD/F2jNC9XEkFGSkw/4ePg8Be9mqV0KYVdELaXh9SIAIGUTBQSBvBHpQEGQMHnOUrr3d1VLYO8cLLuhpqDLUQfD2Se14Wtg2BObwKgBbZrQSiUmLB+oQ6JoElyCo2oftLRgNJMBBo5unoQ4MT/z1/7ynARA2IeuVBxA0KAjWhh0wqHcBU/5qjjRAoRR46bBW5//lK+za1y3Ctxz3Zm0G+fFlgFCQIcgNV5OfQy2DDKBYHZdmknvzGG8XS92KhDjQV0MzCAge7Bm41bo9eDAXLsX7MlUKlsSHr/zAmEQClNJRAECMQlqnFQY3RY5n4F2nbITsv3bznJ5NxiECBjIr3tibldG1fLO9199JbgdTsGBtarGHT7+fMaiVdTFgC6a1SuVhVdv7QlVUkoT5a9mUpRZIWOibodMIbs1MloGMCwFMUH0fgDf/z6HvBBwsWxWrxppHkomJzlrbo4Tl5q1OS9mEHjR5Z22fM3KhpUbtsA9rw2FBX+tCYxSi4a14MGrukDJYvL6mtxpRJeqPXBMgoAU6qIwVLlLaRJQxHYGfICsofHmR872WI2PxK/AMWT6byktBJgDYkUkH0WcKEmgSImYzCBMnbMUnn1n5G4BBAQGLRrVhM5HNIVDG9QAbAd17Z3yWVWgoMBAdRjaZUICRW0DDbkkugRXE+/MPEKwe4k+/7vx+cnXBJV4UoGNQAIgFNjQR9/YCaGcSRL7urudnHxPZYWQjwAyB6nCIODubsCno2HUbzPzfXYv9L0AqlQoA8lFtCtAd+PehIgCf6SvnSYUWWwDDoQCDqjGrHVmMzHicVv9AZUXMrLhpz/nwtMDR+X7ePGJrz5wGZQqnmSAAQMFKjMUCbor8oKoOyWpQ5v+bUsk5Pcg8pPB4Gx66UUtevDF71gHR2e8gwsX+0nQmFqRYiDqmXMSfpqyEO545UtafOpWqwCv3toDUsqUCPgeMEBgLQIt4JJyqABBF0krtKPdrwMJrMJHsDJx1lLo/exndJ/WrZYCr952NpQvWdx5FbAAkgVu+L3qD9QZlHbZ1MXg7Ze3bE+Dh98ZARNCAls8n8euOwMqlSvpRIgaU07XV0sP6p5JCyQDFL5XmQxXDYL0BcjlNoFL4aRE1UxIC6P1KnDOiNixQECAP6/MIEi3goAfN4YSpLYjPQNWr9sCI8dOhjG/z3EAJT/3X9lSxQFtkXt0bgMN61aRcCUftOZaTOW89fxZhyDj4cCAZ1gsy6IgwNkpy+2LaajaTWGFiQnnxPxcuf3rOQmAsI9cL+uBIExdoJbv+6bFYtnZFHv9gTIIWG6478XPAZ0U8/u44NQjoMtxWNNnsyH+yiCBSgzOoZAnXaUjcWfqfO2NwtulTpoWLwdqxD2RtQfMILzxyWgYMW5Gfg+XnvfozT2gZrUKAeaAj70wJEnPv901M4Pg7aKtwUt+AUKAMQixBblpDXI+sZwoBy/owxuBBHGaaeEWH9afcNmBKfohP02Dx977jhabhrUqwyu39oAyJZMDGgQO42I/BO1Ksc0cHiCoVoDvOa9/8TX02UtWw6WPDqLwpsrlS8Ebd5wDVcuX8QDBpADq9pzKFwY8+gAvBAtYJsuElz4ZA8PHTQ8smhj53O+6bnBQjYqswpewLurGcIZYXriobXtxQkVc9MhvhFCLnrEAGAEyrP/xrqBqm+ydQbk0gh0ZWlJgcKAsD7M6FG4lZQfy/0jPhPHTFsB3v8yAxSvWUSR7fh+VypWC0zq0gBZNakONSuXILIxbPL3Wxlqj6/XlMVChIQdWUYnBlF60lZFAlDIGgmuVIVRwoMfrwG2itJDfS7hfPS8BEPaRyxULEHCiksnGixTFHEnKDLwb5+4F9hLIgk1bU+GuFz6FlbtgnHLwQdXhzqu6kLcALrDMJDB7YOv5NuCH6Hppe+Jh5DKDCxYKuT4qJU7HK62NaOq0MzMLbnpsEPy1akPkamB7W05OkLdcejK0aFLHgRrVIijIQWCjAU7OSEdbtoxVdH5THXMCB1FgoOzArtQbwn9DezPXfucAgixGFG5kgAHR1ZlZ0H/ob/DW0F9pp35I/erw4k3doWTxJL+IBOh4VazrjpBLAV7z4AFCIEVSmAT82Yq1m+Dse98lB0c0M0JAgomArlXOiUKVP2FvAI0+1nIJK/6Fds/Mhk++/xMGDP0lQLsXT06Cuy49CY5oVtfR6FZ/4L83+RsGoGhLKy1+OrIOIDBIcCZfxBbwv7WVEYGYGki5LAnNVDClBMuGpEtZED+fq9ZtgqlzlsHwsVNhacy9ntNUhELi2lVT4NjWjeCY1o1JX6AloqIEDnzJiG3FGTyxiyS3mlpwQK2KAgA0wMoZH2n5QFgl5zYqBxdhDgRb5eEavo/MsonD2NURSACEXR2xf+n5vsUxmMGAb2f92r1VMTsmIiDAjgZXYsjMhhVrNsL9L30BGzZvjxwt2u/iDib8QK/7B3qfSbtA7gbQmj4LFG3GgZ+ARPgVbGII2Ctrqxd3MGgLpuoPsiA1C2D+kr/h1mc+je1eaNeyIfzyJzv1hR+Xd28P7Q9vEgAIRVGsiMAAAY5lPsKtjibVkaCNzHA57udD63cQFAR/Gc5esJ10cecRfk+n53A2vrww+TRApuWx1VBtenFxTUvPgn7vfUcsAj6OPuRAePK6ruSoyJ4HKuDj9ENWsnvKWcfAAgRXCjCteZzGybtk7JbofvfbsHbjNkgqWgSeub4bHHFwnYD5jnZIaPohdzHIfY33d4YI+rTMkA3w8+QF8MT738K2HaluyJD1uPjUI+Hczq28FbBxUNQyktbgdWeti6NS5ezqyAAMdQnsXMoPai3WEp9LYNRcBW8ZrlHN2o3gOhewnEDn4UWXCNTfH/4bTJ33F2zcsiNfXTp60piV0vHIZlCjcnkoUayojzc3nUV63goaAgyCYQ20tGCdRKns4koG3uNA4T6ZIZkgJj0uyxzYz8+/ND0mXraARiABEApo4MNvG2eSpH7s6tMebnG09Xx1IkSgMH/ZGnjo1S8j1CUuCN1ObAtfjBwfOWtcQPpedRo0b1iTFlZlEMh0KFxmkLq1V0Yzk+BV9+or76lWdn704Uxeh5AFT749khaE8AMXnKsvPBneGvRNLA3b9fhWcNaJbZjlMF0MrjTijj3aokkTo7Q6cq1VHRWjKuy40J6A963kZejxW0Dgrmsu95kFCEGwwMuY1u3ZmRIX00Jcs9edvIj8MKip7+vD4fs/OBuh29HN4O5LuNNDy0JOQ2LaBIMGQnj0on0xYjwfLuTpdGUtzn3gA5i3bDWVLZ6+viscc8hBzljH+Q84VyJhEDSYyNDzJMCUkhTewxhbvXy1Z5XwJY4+tAH0veREKJZUOJAXEC0xSCuk6BEcfe66Nfg8HUCgVEZ7D3v2gOKaw6JKyU3Qz6R2LCh7gImkMxauhO9+mwk/TVpgeyZ2acbp/8hVzsNCWTDNH8F/62czaDWtUc3e70AZAhUdOsbAgAMCA4IMHHMQIzxUQSIDg106ncST97MRSACEfeCC5ZbBwBOTCv643qyRzmqIlCodAeqBMHnOMujXf1hkp1KudAno07sHPPLMh7ELbqcjmsCVPTp6oSLuwGkn7lsGaSK2QS7SX26H0abS4ffaEhcECMwmrN20Da56cGCsAUyF8qXhxiu6wjuDv4WFMXqK9m0aw+U9OrgyiDIfqp/Q8KmAF4Jr5WL6VXe3bhcUqqVacBBlDXghxYcTmMpABASMbJKb550WeYb+QF4cFx9rYMS1e74nqHafng63vz4cfvhjPr3XFacdAdedeZQYCYWMrqS7QGvTujC4naMkSLprGTIzYoqdF/Trnv0Cxk1dSNT367f1hEPrVRMhHNPbSmcrhe/cBhEMIIMgHRFu152dDes2boPH3hsFf85eGhi3OlVT4LlbekLZksnOGpgFipK54dwVbZlB2jjlXiXZjFvdvDjRtTSKN4IyNjZ4ifwM1LgMAZpLaWTmAPUEX42ZAl/8OBXWbNq2W50J9oTf7He1O09uN2aTK7qnyUZcQAKFVLGuhBgEyb8gDYILVxLLay0xhHUGMibkVBHKfKA72Hmd8B2/J+PR8/xwJJ5QICOQAAgFMuzBN80RIEjAkRV04QRlI551J54qcclof/vNuGnw5mfRFse6NSvBdZd2gf7vjYB5i/+OnDmK2V6++yKqWauronNUFJCgOxUtM2gPtV3LHBUebst0kdQMDrA88tvURfDIW1+TAC/8aN28Hpx3ZkcY/NVYGC+JgfY5zerXgNuuOs2VEhAgWJMnq0HACZV30T6QhtwUXdCMbIfMxBhlDvTdeaEOAAPBAP7nvCXlgpFWvONvNl6c+VgiQEL/VOr2gd57EStqyyB2GTz50Y/wwag/CfzcdVEn6NnxUCdEZItis7tUsOR0JEGIolkaavOtpS7qqlF/jiyAR9//HgZ/PxlqVykHA+44G1BIp8CLQJjkBygbohoEVzoTEZ8rl2AqZVo6uSkO/WlqYPddqkQyvNznHKhVuZxhRXhBztotKgAAIABJREFUDPsiRKh25/cQAxBQ7GNcHql7SMo61LUgaYvIGKhTorM9z8gitmDspAUwauJsMqvKzwPHqEK5UoBAGD+POC7hx4DHrnbukGpYpqUzZRAQwOP5B4zMRHdgvQ5Ykmh1Q4YxMPeg3gUuwt2CARF0JsBBfq7w/v+cBEDYB66h1R/gAoECNNzX8CTlo2C5TUrSEGmx1YU2GxAgIIOA4KH/x6Ph25gWx1bN6sH5Z3WE4d9OgO/HcZ06/Oh7xanQulldyWZQLwQv9mOjHbvQMD0fBAjqtS+iM23LFKMddX5EgPD2l+NyDJS66bJToXatqvDz+Gnw+cgJkWOtUbkc9PvPOS69kf0PgLMYJNFRuzA8Bcutjsgu4ENFWrpIO1PFiOaADYRoGZcLZul/AgsyeWpLoq5sTiRv19+YiTYiCMP3IoDgWQqq36NYTsOOXE4HH93oyQvgphe+hKKFC8PzN3aDdqIHUKaA2xpNeyNR7koV+wMkYOMU/HwPqkCP6+2s3kcw+MVPM+DpwaPh5MMbQ59zOazJtcbZnaeYLxEr5rQ1hYQF0TZH75kx/Ofp8NKnowPgEZmCR6/pBq2a1JaF04AD65ppSihOrCdGP2Tuox0M7poKQDDx6moTzlHboj+wpYbsbMpE6PfudzDnr7W7xBZge+6ZndvA4Yc1grmLVsDL74+K/ft3Hu/lBKYEeIUtQSZBY9nZ50NaVxUIi/ZASytyu4vXhQ2sEmAaYAyM/bjHxAnWYB9YK/b2ISQAwt4e8Zj3i9MfaD3feiBoVCy3C7IXAu/ExUVRMhiwxXHmoihDcPxRzeHUTm1hwaLl8PLAkbFnfvJRzeDy7sc6F0XWIOjExLsUF9xkTFVsTd5aLDv3OPTu12hq6mJgBqH3o4Ngyd/rI8dSOaUM3HlDD9p9zpyzFN748Fu3a9cnY8fF6w9dEQII4oPg0iiVihWjJKFcnbufLpBOg6C8gA9xsl4Gvo+fj0JxhO7+bJ+/+70stHED7mq+RgcR0CQY5GWBh7r5cXcDdxvge2/athOe/Gg0bNuRBreffxxUTSlNfvkBVbuaB5lFJFoAsd0Msps2YER31/ieK9ZthtGTFsKRB9eGOlXLO77E+w3IWKn4LxQlbaOQ1SkSf/bnnGVwb/+hZPqkD7wfbji7I3Q5qjndl+rlEHFVDHgheDW/KynhgkjGDwz68HOG/+bPHQPzQDnHdSuwoHLYT9Ph49FTYdK8FfnWF2BHzmGNawO6gDbH7pukosRSTJ+7FF4c+E0sQBj4RC/nWUHlBBPFTmBBDK8ovZQ6F+Q+F1ZIwZGWeQIg1JQaiECwN2ionEC/TwgO9oHVYu8eQgIg7N3xjn03LTHwjg1bwPij6kOafL2XkhwNe6AgQUWKuOheeucbsC01PfJePU89Etq1bUo7trv6vRdb98dMhvuu7QaliyUFIqADXghS41Thm+7E6Zgl0td67ZP2QGKeEdAgFY66iYXLVsF1jw+OHZPORx8CXU5oS5Pv0uWr4aW3v4bU9GhQzfN3nAdVK5XjTgvpvtDSAgMbrNmykyI+R9vvPEAIhjbpqq/Wux4c+AVTQYCyBpZJ0A4AV2qQa6rTr2oW7GQb1EEoIyPQI9Rd4YSgKl6kRZdFi+SXAEC6DswxqFu1PC2ieDtxz7sP3FHq37IH2BuvAkV7vPiatrRBLIYGFgn9jnHNOMaWeLHriTtuFScKha8OkCxQFOW/eD4gcOzzwuewYUuwG+fsE1rDZV2OhOSiuBhq1LMHrrbVT4EDHguOgb1XXW+/6C24xMBngICBz9N3LnjjqCy45MEP4Pf5K/OcPfAtixQuDO2aHwgXn3EMlCpZ3JlC4eccP8/T5y6B59+NBwjvP3kNMXYuD0VD1KSkoDobW2JRV0S915VFcCAg1JngejrCF0yuZgIY5HmZ/98+IQEQ9oFLGwsQtAaqYjDtETcAAYFCOM1x1ZpNcPVD78We1dXndYamjevQ74Z8/Qv8+FvUmAhtbJ+57RzAlEeKezaWy6qYpvYxNUsSFkHfkNcpA2hsxLMcOx1zRhY8M3AUfDdxTuRYcULtdUFnaHRQDVqYVq3dBM+/NRS2bt8Zee4N5x8PR7VsxCwHdVsg9YpGSarw9l9d0p+rvUdTHVUvoH4A+u845oB2moQS/A7eL4S+XdWL33yN2RdljAeB87znhcyK+9SMKlDGCLgt+jKEHo92ajAIwORKDuahBSPiKhhUpPtyuLAHCkD0XKXUQYupaidMKSRSTXHgkV/Pqf6NkRaLFeX3WSxgveOlIbDk73WB696+ZQO49bzjyXeBzZAEHGhgk9qBu68cP50nQKBB96U9W1IJuJlmZ8PFD+QOEPD869esCMe1bQStmh4IlSuWc+ZQbLjEnxEEHdNmL4Vn3423Wv7wqWvEJtxbZbNoWASKUnJwXgh4jeVcg9kTaneN4kIGoXyHhpiBhMZgH1gR9p1DSACEfeBahEsMzCBkQ1YmL0BqJqOe7q4rQFIckUXguGegrHiMjo173HXdmVClcgpNECtXrYfHXv0iVhzYu2cHOP6oZtK9wJMRCqNwN0bBRyoIC0Xp6o5a1fZkxxvoYuCSCDIKGEd8zSODIrtDfI0ypYoDHmvJUiVoR7d16w54qv+XsG5jVPx18tHN4VJM+JOaLHs2qLmTV3kHnOZEQ8G7aJ4qUZfgBYWy6st10MVSXfX0PN0uWuho2mXLL/W5rstB2ujsFls27A4IKJPgvoq/PaXoWfGkwgdD2XP5IRsKiTCSz4vPw5+n9rmr9oId9ZwTZpzuQn6mrIE9d/1eaXlv7KR3H9/HStUTu1KoEHUtkNFTpglpEl0D5RjI4okdAfe/ORywK8c+Dq5XHe69/GSoXK6UxD3nBRBUd8H9C1JZkBZHZlWcQFCNohSoKFAXkSJnYWTlCBCwk6NGxTJwebd20Lb5QZCJYNl9jo12wwB/BAhPvxMf1vTR09e6bgUnSqQQMgQM/JlUdoHKLQICHYsg/tm2pdddnQRjsA/M/vv2ISQAwj5wfeIAAru46S5Des/F493nMEjwkdb0s7Lgs28mwnvDoz4HeJpP330xJCcn0Rnv2JFKiy7uzsMPtLJ9qs/ZHNYkuxX93nUxSCaDRsFqQ7RS7KT2loQ+1iGwoJKsZjMxwW4Z3PPqV7GmTa2bHQiXn92J+9LReCYjk8DMStMTr8fcpE5leODGHhGAgDVZL+ry2gmNCSZvetpJMzSgxRRXuoCzHr+LKtr1KUq3O6pd3Pac8t0s3E6bIH8cWoOJJiDqH3/vAnOkzGAc72ztmJfd4CPwbxvDa19DXA1xULXFk94/7gXl5fV1rbbClgs0+dEzDjJm7nytj4M4M0qao4Y0aWnBggMct9T0THhh8I/w7fhgpkitKuXh/iu6QL3qFaAw1t5NnLd3zETxorZ2Mgig1EoVZJIGge8vFS26czXXXDs4tN1TQ6XufOUr+PJXz35hxPJpRzWFY1s2gIa1q8ABRQqzY6QLo/LMiLaIknV2NsCU2Uvhybfj454/eeZaB8hdS6MxAPPgwLYfB3NSCByYe8LlJ+gNnfAz2AdWgX3zEBIAoYCvi+utN2lyruarvecuNpZrtGipizS9LrY+HTGbqMoxf3IfvH2gQ+L9/znX5dNkZWbBgMHfw58zF8eOwGt3XQA1q5bnhddOSKoUd22DUtt2KXhiTWuoYzZJ8hHBqJP44Ovx8N7X0c4EXKxuw8m/bnVn+YsH+NI7X8OM+csjx1osqSi8/fBlkEwW0UHXR+0Xd8JKs5AEAQI1vmO3OK/UbrX1i5stHfiavGQkWEte9723nNbdvW975NNQqpe/aklB/BlUQChnzIFH9Ff8d7zxjzRGyo/dOPEG0kcdK/WvAkI9Bl3WfWnF0+2urBEIMVJTIVPaMCBIx8sBLClJ8KLJNtGqU1Gmidsc/UKKP/9gxHgY9M3EwHXHTIa7LjkJDmtYAwrbzgXxBmCxXu4AwWg/HUDQ9dIxImGbZdFe4DGiKdXzg8fAj5MXQefWDeDck1pByeLFPaiX52oLKpUTrG26sGv4WggQHh8QDxA+ffY6n6OB7Jj1PhBtDX5GEQwHWlildEDXX0LJdBAT+QkFPOnvR2+fAAgFfLGsBwJPptg+H01xdDG/QtH7uGff7rgjLQPufnEIzFoUFU8d0aI+XHJWx4CI7KcJM+GDr8bFjsA1Zx0Lpxx7iIsIDri3mRYyrmt705SA8lv0B9YeGsWKCGiue+QDWLgy2r1QtUJZePCWs3nxM+r/ISN/g5E/TY0cKyrDX+57PlRKYc2E3WVpDoOWRZCWtSpvteD1drK8UnvrXaaerf6AWlCN5oBq5q7tUEGBr9tzqcH7JoRPIAwSnOOda8kLAgeBCL40wD9wD/02sPA7FsEDEQc0hD2IE6grs6W6Etu26USYGtAVKsc4gKC5CyFXRrtwanQ0mT6J+RLV/7OyYOSvM+GlT34MlMJKFU8GLIN1atOYjLyQQSBQkAdAcKZQvkHFNt/QGOJnz4U0BcKamM1zrcfIDGRmweb/lr9QeGhNlSzz50yhQqJMZzWdnQ2TZy2Bfm/FA4TPnxOAgOeogWkCFEigKG3HKsakbhWMb9aIbWEPiCUJ+BkkjI4KeOrfL94+ARAK+DLlCBDUrc0JujRRT3bjEr/L0c/cQrhhyw648/nPYWlM2+CFXY+Cow8/mCdBWVM2bd4Kdz75EU3E4ccxh9WHPpecSA51ASdF6blW9TguuKyO9za1bITDtdd0megpi0FaM+cuyaV7oV0zOPu0oyR7wCOE8ZPmwlufjo4cJ7rHPXLDmdCoThV2mLMCLv23HLO1HCaFt1Luunsn3wGpybuFjxkRfNjWN574TTCVmFqpLbZ6BGjZwXonuJ2c1Bc0PMjGIrsuAwUKNLmjv0AwWEnNlbRM4EoRbuFnnYEqEgK/15/GJfE5RkuUDFI20WP3ugxlEEyGgQF2SrPrODCgsiJWsVcWxonGzyRX/jZ9ETwy4GtKi9QHhhddcuqR0L3joVCsKFsus5ui1ceEGQT+t9V50OsJolLthgIEZRFcV46EkPmSA4M+DxrEjjmmPKGCTL1nFOxr58afs5aQbggBR/gx5LnrAzka1kExEEQmY2DbWbl7gV+RztzQJomOxQKe+PeTt08AhAK+UF5/EA1pshOpc20zC63TIoi74sq1m6HPs5/C+k3bImf14I1nQbUqFQQg+AXj2beGwswFKyLPr1GpLLx4x3lQLLmI8z6wLIKLfCb60ivgmX4Xe2gTcUsGT+iFkJUNL37wHQwbF6wr0yRWqBBcf0FnOOzgurIo++L4yr/Xwd3Pfxo5TpwQ77jsZGjT7EABCEy3uonU7LqIhiVLWnVT9Apujbd1QkVtd1NWx3WVyPlJHV1dLnVHbEOI0JzPRgSjy2W29NujkZGWDVRQqO1ozGz4lkQbrkPfay1dRsMuBO61zO8cINE2P10YBfjk3MYmiz9hJp8LwcJDv9qI8J2FfupGSIJNSURU22YLooQp4Ptauxq4/OB8HQBg2vzlcM9rqFXxLa6Y0YGBTed1bgMlkovkABDUzIuBAbJcOQEEOn+8kIWCaY4ECk27Y1iUqn4fXotiGCQSF/sSlD1HBQyswciGP2YugYffGB4LEL58ngEClkwUALNY2Cc4aglNOzpceyOyCKGsBWaBEuxBAU/7+83bJwBCAV+qsECRJxvpO1ev+hzr+WI+JDX+hcvXwq1PfUL1UfsoVrQIPHfPJVC0aGHu85btJu4qcWf+xsc/RkRvuFi/cNvZUK9mpQC1GRApIn1JZXvrpKj0elRYiRPixq074IYnPobl/02cDD9w4n/ytnOhbJmSAf0BPi8jIwOuve/tyCSKy9TVPdrDiUc14wlUJlIfZMNdGKz2DucRmBRHt8GShS/UIeBFarqA2UVNMhFk0bP5BdiqN3X+Cpi7bA2s2bCFThntgmtVLg/1a1WGutVSAF31mP7WzICgX4ECBg8UZNz1mDVTwukaZLNofq67R9IeOGCQd9iOKyW4xV9BgHdajBUyqqdHtpZp1GxJ2AMFBnJvWzBsxZ+zFv8NfV/+PCBmxUTSnse3ggtObgslk4oESgvOMElaOXPyQeA7lt0TSXeBwE11NPJNWIvgjks+o1SKMJ9XbnsNMgsOJLg4a+lK0uTKLAQIS+HB/sNiAcJXAhD4c8duiYEWRzFKUsMoAsAhAyzPGjHLk/A1KOBJfz96+wRAKOCLZfRwTGHbNisUJFJqHNOwvpaPdD2bD2F5gUSAmdkwccYiuO+1YZEzqlqxLDx8c08Kcwk+CsGadZvgoZc/p9je8OOkI5tA7/M60Q6G6vhK5ZrYYFrUnIBOdAO2LCLRwLhTxGOevXgV9Hn+c9gRY+TUukkduOHSk9niN0ZZ3/epD2H5mmjXRY8TWsF5px4J1LlQ6AAoIh0MbAstRkmSSMniNa5bcxeDSv94sVT8hAsG/kATNa2KPdAT79IIgyAByynTFq6A/kPGAQK39MxMglFYsilS5AAoWSwZKpQtCYc2qAkntG0MaBuNx8YgQI7NsAjeU19AhIjQXMnBZR54JtnaHStpoNeYRYrhXoj4D4PtULDiQ96LGrEijp/oMXxpxZsqOQFiXJlBywpG30EugwuWwz2vfgkZmG8tDwQIZ3dqBRec1BZKJBelervNIeBAMQlrEr0Mnq71QWCAgNeYx5wAgseGTosQEKdqqcm0bhLLYHQqer9oAqSyIcoActiTWJALw/bnzCXwwOvDSJsTfnz1Qm/nFklMgdEiKHNApTPxPkAAoc6ZVvhK119u8ARAKOBJfz96+wRAKOCLpbsUsnsNAQQSbOmEIgssqr/VSZHcCcmlkOv7H38zAd4ZFm1xbHxgNbj9qtOopc8uCTiBpKalQb/XvoJFy9dGRgKtjAc+chmULp7Mdq+iGA/vVnQhogXDOeX5qGdnEZ2ZDZ98+zu8MeSXyHvhsaCDY/261dwxhpevZwYMh8mzgz3x+ELYWnbLxSfyDgtd58iCN2Qmo4YyunDITissEmQ2nRcMBSnq66CCRFtHR3BmTX/o31nZMGbSfHjxkzGwbtNWAhkIRNSPAEECiiuRMUFjqkZ1q8CpRzWHhrUq0c8VDAQyBMTciVv1gl0JwdwDbpHU2jMvDMadURZEtRjO6/a33hDazaBui1ZE6hwkTUnGsmGq12BwFWz507KMgjAvAs2GEb/MgNc/GxMIMipeLAl692gPJx3RlNkhWTQDHQ2hLAYcIxw7fLj8DQWErrXVdGSYjg2+r4NiVRc8JShJO1v053zPSJuyyXEgkG88H/BemTgjZ4Aw7IXr6d7Rc6T7W4SZKFDEe4RAJ93XzDBQh47GmUt7YwIg5HWnJ34fNwIJgFDA9wWXBFkYZ0OadHLRxZXNkrg9DHcayhqk688zsygVcdzkhZEzateiPvQ693ihFnXn6HeQg778CUaMi7oq4gs9cl03OKxJHTJmwYVLUxG1lYwWPrM99V0MslOi45P2zKxsuPbhD2DByqAzHv55tQpl4Ok7zjfgQKWU/nQ++upnGPZTNGSqcd0q8NhNPYg5UEU794ebeFyX9sedDAh2aCLFkRcvBH4nFgNquqTSyt75juvS9npwKiFfH/x+3rK10Pe1r2DV+s2OkdCuARZ3HkBsDtWMCx8A2KpZp1oF6Hl8S0ATIAIBAmTwKmnAknpOhMWMuAtWbkjb2qwYj3fGwWhrc8ly/QSovkBbKoOdDH5BtaJFt+uWGn6gPGPKMBYoBMCBLMjbd6RBv7dHwJR5QVBYJaU09L30JDj0oOqBBEcSKWpHgzgs8s5asxii/hLBRlEf/Ww7ONRd0dkwC3J13S1iUkX/Vt2Ba+v0nRkI9qmlU1gnBPY4BhOnL4b7c2AQhr3Q24kUNbHRxjzz+XImBX8mPTMW8D8w9EiCQSjgSX8/evsEQCjgi6UTsDOc0V24sWLlXSpPLprmaH0F1GfgyvvfgRXruM5tH6d1aAFnn3qk58+NNS7OG/P+G+x0/ytDYkfi/JPbwvmnHkE7lEAgjksENAppm/4nE6Uumkixzlmcc/fCcW0bw5U9O8oSHX9RvvtlOgz4PBpjnVK6OAx4+HJhEGSylJICCbpE4a5uivhV1d68kGokMdPzdoFzE75z1jOqey374E4xEwDPcd2m7XDvG8Nh6vzlztefd2+8JJNgTt6fFnw6tsKQVKQw1K1eEc7o0AJaNKwpoEBLDfg8Hmf+qqUIje71iz/pQYRb5i8muU+H1bb55fP+d0DBFCaU/VKMG6DjrZqfbCZ86yd7AmhkdKglVO4bzN34ZcoCeO3T0bAzLZgr0u6QetDnghOgfKni4qSogj3pZBC2wMc95wUQBEAFOjdiIr3lnBymV7bElVqEZTAgQcEjf359uqmWC/HnE6ZzaTCuxDDsxetNrLU3/OLgJj5fBAjEJMQABOUME94H+bzRE08LjEACIBTgDZFbSBO1UGkkrlmIHHOALIL0YuNXDOc5q0//2LO56qz20OHwpn71k2cZvRrc+PBAWLMx2v1wWMOa8HDvMwQceNc62gVLSiAuRLjQKQ3LrWAcRON22tnZ0P+TsfDpj5Njj/HG8ztBu5YNXbSxe5IsrPjaf85YDE+/O5JeN/wY1O8KsmgmtbcBBNYXgXdbTMPSrlzp5hiAQG8hQkVuZWNgoN0KPPZIF3M7p07446YthPv6DwfsWLAPHB8sKSQXLUrjhDV1rV2royMChhLFk+Dm8zrBIfVrOOc/dQDUr4F+fue+6LtJHOgx15mXQC9K5GHVToRcPgSmvTEMEqJeCAyuXE1eAaMBB5rDYB0KCTw4YyEgQPDRyAkw9KepkGm0B3iUWIK58+IT4djD6puyl+hKbLqjibQOxz1zycUDQ1rwWa/o8wnEetudo2o2tIXTjovNxAi0w6og0+tTSDOUyXbNWiKcOGMx3PtqTgCBGQQCAMLgufIZlVa4nJYACAU4kf8/fusEQCjAixv2QKAMBhPSRDatRu1MWgPT5sjMAZcb5iz6G2546pPYs7nn6tOgWcNagR2t20zKIjFo6Dj4cvSUyN9jjXzgw5dCiWJJnkFwQU3SwaB2vcY0x++c+JhRBNnnuc9h/rI1kffA3c1r91wIKeVKxR6/LkxzF/8ND73+VSD+V/+g33XdoHnjWo5itrHU3B7m28LYbhl9EKSWr0JFst2VLhLZJqpKXdvvqOTjgrN4V+iAQlY2vDdiArw19JdANDUO8ZGH1IdORxwMZUoWp+NftGINjJs8DxYvXyv1dS6p4HMrlSsN53RuDUc0r0fjzjXlEIMgAEfbGrXs4Be/kPNiAA8wTyLYy1syupuCTl7/T6BFTH1eqXZNlrQtoZH2UAYBuBA7PYLzkRBL4swsmL5gBQwZ/SfMWLA8YsONi+FJRzaDq844irQbAdGsCPVsF4O2/XlgFWKLBBgyQBB1vxMq8snZUCNXdpDPqZYHFa4S2yRsgm3X9J9huV+k64iFuywuvicHgDD8xd5sE00CXE0lRd1BIf53AiAU4Az+//+tEwChAK9x2AMhLqRJRYrBDgYFBn7C+ebXGfDM+9/Hng0tvuVL53qmM+cvh4dfHxrbanXzOR3ghKObR+q71G+N9XIjc9f8BAYIvJvEY1+ycj3c9NTHsHVHWuQ4WjepBbdfeZpu4WL7tPEtVq7ZAHc+9xls2xHtuLj4tCPgrM6toUghVnQ7hbewCQHAIDQ/GiU5DwFynDMlBgd2tJcdiClwPexO+yGlnywAtJB++oPv4OtfgnoOnMSvPqsjHNOyEZ27uvFNn78cPhzxK6xYs9GxL7qxR2DQ6fAmcHr7FpBSpqTTIShbQ19NW6SWEpz2QMOajD5ByxxOoKgEgpy3vTC06Em9RYWK9NWBAk/2aKnB1eRdi6OvyeNz8J4ghkH9ITSTISMLVq7bBD9Pngcjxk2DTVt3xIJI7Pi4/aITIaVMCR/SJB0LOMYs0hOzJCtGdcmVUYDgPAGs2CK/IEFApAUILo8jYLUs5QXR4zBz4FmnCdMXwz2vDo0tMShAUOaLbJWFKUkAhAKcvP9H3joBEArwQscBBA1pspG4qpRXJ0LX2mh2r+9++Qt8OOqPyNlgJ8I7j15JHQzU0hVm50XJvW7jFrjrhc9gXUyZoV61FHjhzvMC9U42Y2FnP6uYt10M1nf/yx8nwyufjo0d7UeuP52inXVHG0d842Fv27YTbnzsw9gEyI4t68Mtl5zEIEbMkVRUqSUHZyiDIkXckYvJ0wHIzzo3RVGsk3mOUN8G7KjATOvJltXZmZEJDw8YCWMnzQucJ5YWbrrgRGjRqI6jsPEJGEI1e/FKePuLsbBm4xaz+PJFwr9rUrca9OjUCg6uV43odRpvYRocQAjrKALWyvwPHVM/xvITvCHE9MjLVoVBcDwDP4dcJqXcos+wu2gFCEF7au826ZwoBSxgGQbB0U+T5sLvM5fAijUbYsO7kCU5pEENuOL0Y6Be9Youm4AAgSr5Tewxt7FKm6NrGWX9RhBICZPiam364dCx4cuo4kSfjxliU+QzJHjB5DFwi7KCZCq3iZuo6oYQNE2YsRjufiUngIAaBA9+uLzA928CIBTg5P0/8tYJgFBAFzrXkCZxk6Oo2BgPBG5r9BoETEd89K2v4efJCyJn07xeNbi/95n+5zmsvmi3/OArQ2D6gmiOAy5Mr/Y9F6pXTqGJ1+XNK82tPdYymVr7WY57zoIbHhsE85dHuxeqppSG5+88H4rg4mdr5KY+ru11ONFe/8gHsDImgbJm5bLwyl0Xuh1kGBTklnpXSLoGRNsneRhMO/OO16fyhRkdx+xkcvrgw29HAQJ2Kdx6ySnQpB4GUAXdB/A95y9dBS9/9C2s37xNuie43KDPRCBwbMtGcMpRzeDA6hWheHJRaZs0tXTbzugMlMK6AybMo4ghCBwte+BuHGnBVV0abuHnAAAgAElEQVRGWH+g5IIKFakjRzwRrD0xgiK0BJ//1xr4YcIsmDx3aWzJSN8XtS6tm9aFK844BqqUL831eNORov4HzsDLhYgpQODuGxWEOoaFQJaUEQxACIRVWWQVAgp8Z2h2CsNL1+Ug943eKwoQqKQQKhHiv/MECEaEmAAIBTRh/4++bQIgFNCFzyukyTEIon6mHSuaI2X7VETdvW5PS4d7XvqSHPvCj24dDoWLTz/a75BDwjSa6EVw9f1vM+DlwdG8A5w0b7u4M7Rv1dCp/7WdytoEe4pZlOkEcLJh3pLV0PuJwbG2PEcfVh9uvrCz79t2DXk2AIonY6zvPvP2CBgbA4TKlykBr/Y9H8qUKiZGSLy7xF2WtV0mhoFquuI4J50B7jxUcEamPxRvA1mSi2E9D6hFTWrJlDmBMdYZWfDYwFHw/cTZEQbhxvNPhEMb1RaHSMPty95+6cq1MHjkbzBzwXKKydaHLsR4fOjAiO6LbZrUhdZN69CCie6Ymsyo7abW20GZEfrqNsYCPrQMkcNngEsK/FxHPBmA49v8+Id61Crw5KjjLNi6PRVWrNkEc5euIsYEjaPWbtySKzDAQypVohh0OfZQ0h2gdoN0I0aQxwp+CWpSYaptc9RURynFBH0Q4gBCULdpfR9sIJayCqpPCIAl273hDMPUE0Takw1IwHtofF4MQgIgFNAsnXjbBEAooHsgr5AmDxDY+4AMkUgtb76XHcnGbTvhlqc+gWWrNkTO5s5LOsPhLRo4AZxdMGiiM21923fshMvufQewxSz86HJ0M+h1dgeit3GixpKF1vA95jCdDEIj4+7pvaG/wqBvfo8d6evO7gCdjjyYWw2VKne7YVmakN6W3dqn306EgcN+i7wWLp7P3NKDIqptt4LtGQ/YRGtLmAgA6d2lXk8LXx4AwWpCFCDg9Xn9i5/hk++DpR70Orjs9PbQvnVjyZjwLXS0YyUYUghWr9sEX3w/EX6fuYiyB4y0I3C++Hq1qqRA8/o1oFm96nBgjYqAACm5aBFS9hMjIhxEYBMshkkRk6Scajryrt4TwNentGSv1wXPAZkWZIt2pKbBpq07YfnqjbBw+RoCBUv+Xg+btmyP1biELyaWVtDi+9RjWkDLxnUAnRPVbpo7UIJtjfa6RjQI2lIqmg1Oy7TMirSByqnFNXYoMxBgXgQIWJDgkyC93bIz0cpmcMClBe6AUR+E8dMX5V5iSACEApqlE2+bAAgFdA+E9Qe8UNuYZ594ZwVNWrvExQgnH5xk1m3cDtc88j4gULAP3Fm+dNd5UKNSedeHb02NmDmQRV2AwqOvD4UJM5dERqVmpbLw6j0XuRAhipNVkZ/ZXhEl72Jys2Fnagbc8/KXMC0mEArfZMADl1D3ArvbeRth3vF62lZfd9rspdD3la8ix1csqQg8fP3p0OTAaiJS5PYvBgjew97tOKkTQzoD8L2N5bJunClsyTriESAT22sbZa11ZXSK/GESvP7F2EgXQ7eOraD7CW2FhmbXTH0oMMI7YGdqOnw/fgYMGzMpVowZuL4HFIISyUlQsVwpOLBGJWhQqzLUqV4BqlYoA2VKFCMNA7IocdoO/plHBhYjBGQqcpzBlEMGbgiMEExu2bYT1m/ZBqvWbYbFK9fDsr/Xw8o1G0krgpbaWL7yi2zuH7gqFcrCiUc1h1ZNDyQrag5aknAtxyD49EZbWmCfC69L8F0MwWwL2+YYGAaNKcnlEF1pUJA2R4NLkJX9DGu8M7JQWGZzokRub0TmAEuDzCDkBRCszXlCg1BAU/b/5NsmAEIBXXYPEHiy5QUwaFXsxE3aFuV2ILxTI8FcdjYsXr4Oej06KLDo4GmVK1UcXrjjXChXpgTb75L3vEitwsIqibMdNW46vPLJmNgJ/flbe0K92pXFChjrulwGcItNIOCIQ40woKj34x/C5m3RzoO2TWpD315dnfWtBQleNhgEMZu2bIPz+w6IlCtwMeh7+SlwxCH1TIlBAYIPa3KOc+I+p+ZDaiSjIk6soSONEAQIwUwMLTFQm6Nco3FTF8KDbw2HDEQS5nFY4zpw7TknQHJSUfqpBQiy1jgQh+e+ZMUaGP7TZJgyZyls3xnt/MjptsUFtXTJYgQaKpUvDdUqlqXv8b/SJYpBiWJFyYsBSxO0G0cAYdv91OSH3DqzID0jk4SDyArgcWzcsh3WbdpG13Xtxq30/YbN22H7zlR67u48ML65RuUUAgXtDmtIbIiCJgUH2jHj9QfeNIiuqbT7aaiRex6ZUakOwRtM4XFqacbhpHwABD0/9/nFH0jXRgDkGztpbVdm1gDLhNwRkwAIu3O3JP5mb45AAiDszdE272VrumGLZVxYAwJFKSWoyYouRswsZMHYiXPgkXdGRc6kVpXy8MQtZ0Gp4sWM/7zVqvPOh+rHEs87b/EquOvlIbSTDT9OPrIpXHPucTR5a/ANBTVl+3ouxgB7n/psQMDxwkdRXQO+9kPXdIVDGteWcCLeiXFXhHf/o/lXjJd0Yb3gzjdgw9YgW4K/u7ZHezj12EMcQGBrWg5vUkdFXTjUfc4DBGmBE+6cmJVA3C/v9kh4JgZJjtmR0g+Ctr9Wb4IbnhkMG7cEW/XKlS4BV57VEZo3qEXDGhYrepAg0KgQUJlh6cp18O2v02DSrMWxAVd53b4qzsOSkLo20mJaGAFCITigMP7cswzseJgNWQIQUAyLZkX4lXv75T9hVvJ6/9yATIVypeDgBrXgiEPqQ/XK5aFEsWQHOF0pQASGPozIlxfo+hodgmYSuJZH0SOo+6TPw2D2SwGCbXXMj3dUGCQoixDMUvFpn5ypoh0MYQYhKx8ahASDsLv3WeLv/tkIJADCPxu/3f7rAEAIpziakCZNQVTXRHVf01omLlqvDB4NX46dGjkWbA27v1dXSE4qYur7PrWOFyq7oANs35EKvR/7EFatj1o2Vyxbktodsd5vJ1gVxSnY4J0UT4i3PP4hLFy5PnJslcuXgmf6nA1lSxV3rXvBvn7/J8quaFLezU8NhjlLVkde84wOh8Ll3Y8xBjohBkHaw9h5ThLw1L44UGIQ1oIAAsI3ZhIIuJnMBV/64U4NvBbbUzPgkbdHwi//dVS0tDru7A8/5CC4qOsxtBBquJE9CUfzO60AL2Q709Jgxvzl8OesxTB38UoS+OGCvT898B4pWqQIlC1VAurUqAiN6lSDxvVqQEUSWvL9qQ9lc1R3QEZBJr45oDmQllYrWAwIF6Wd1eZZuNKYoQ446TB/5pL5Bgga5JUACPvTrZo4VvtZzM5vcTAxbHt0BHJjEHTHgS6zvCBx2BH7H3CaI4W+iAbh1qc+humLVkWO76gW9eGOy9gbgGnkbN6dmyY615ZG5Q3u+3/9k9EwdGw0FAnr/A9e2w0aHljN6Q/4tfz0rnp3XMwX/7UGbnxycOy4tWlaB/pecSpFH/soY1Sp827WvyYXYDTMB8fm8bdGUFpi+NG6aW24/5quQYAgvggqVrRtYrTwKGuhPfL0onoW3MGgAMH2tFMin7FYVgts6muftRQeemsYbN8ZZGGQ+r/x/JOg0YHVRKPA72PFiDqSNlBHXX6xlr963WaYOH0BTJi+kHwDdpfW36M3cy4vhrv2lLKloW6NStTFcVCtKpBSthQURmtAIbNsYqSef5BBYNYA9TN4PXDAiicXgeJFC5MngGMRLJsgbpnUsSLdDKgzcUmHznraMzZ4GnF6zZxOzwqNo2msPqyMchjEkptKDAENAjIIqEGIt1oejlkMIqh1mpqED8Leun3/598nwSAU0C3gAYJY0MpCoT33rH5mW1/unQZIFyU0AwSmu3emZUD3W1+jHvzw47zOreH8047k8oIm2oVa2xQUaHokLlZLVqyF6x77KKJDwNe48oxj4KRjD6G3EmI6YumvmQyff/c7vDc8Gj+Nf9ur+zFwSvsWtDPE10WQoPkIKqqzOzWO02Vh5jtDfoGPvo2aQtWqjELKCyPGMgFwIMJFVbvTLpU6M0TaLqIzBgkiGtW6vInejhomsd8+Xhtsd7z/zWHw27RFkWtSrVI5uOLMDtCgTlWBIs7uIHonmtVKAZNuenempsHaDVthwV+rYcHSv2HJynXELCADtLfZBQJ0kjWB7YiVK5SF6pXKQe1qFaFGlRSoUK40WUZzxwafL/MfvptDfhzpZMHLkpqaDjMW/AVT5ywBbAdF1qtB7cpwSruDoemBVSG5CFppSxy5hBjZTodAGqbEXfvI5wRAKKApMPG2+8EIJABCAVwkF9Kk9XU6BtmtSkgTAgVHYQtYYFGTMgn8+xWrN8LF9w+MPYtbL+wEx7Vtwp0HuHsyLnw5Lb60U8/Khuv7DSJFevhxWKNacHevru7H8W1h/Br93hgKf84ORvXSmRYqBO88eAlgDZr0DLLDY0qZTW3swzvwMSgaOmYqvJSDX8MXT/eCpP92NPDOkXee5DyHfgg21ZEsejWwiQECWwixFkJZBO8OqDHPZmco8dsBLYIAunFTFkK/d0fGajnKlCwGl5/ZAQ5tVJdDruQ9cyLztBWS75LwHpePOj0jA7Zu3wmr12+GZSvXwfLV6+n79Zu2AcYmp6ans45APB3i3suqU3T8HbCkVrsDoGhSYRJaYpmpfOmStPhXrViWgUCZklCqZHEaf9Q1OH8AQQWascUaFdG/hBgUvj/43bOzsmDekpXw+agJsGzVOvIB0QeOW8PaVeD6nh2gce3KkKQgwVgRIxuFAkZ/f0n2hlpUu/eKSbzMx7yQYBDyMUiJp+zXI5AACAVw+SIhTUInKI3ubZYNSDCdDOykyOwCZsnfFdP2h6f1Yp+eUL9OVW4Tk5Y+0gvILooWP1daYBqfEwsB3vhsLAyJCW/CMgO2O6KJja5VdslSZmTHzjS4/uH3YfP2qJiwTZPacM812L0g+fW4kBtLXNcZ4TwaRDgnO3mMAX7gja/FdTB4AV+54xyoWxM7LVTMxi2O7GGvYTdiriOsBXYuEOMtKxNmSxBl7MSEvNOliGJnfhPfhkqsD4VTpVFo04hfpsfaB1dOKQPHHd4Ujm3VhMeSl8SAI19+bk1bilDnRQKXmVkkckSmYdvONNi6bQds25EGW7bvpI4DvD74ewYNOL6YBCJx0mhFXaQwWTtjh0HxYslQqngyFE9OgpIlkqEkfl8sCZKKFKHnoNDRxwnrUUj0sZ6ZSzwU0yu5URg7MERSfwY8lr/+XgcTp82n/7Zs3RFrsoVixLYH14WbzzkOUNPiDLGUJRJXRSpPCEjWZEd8W2XWNCSLL4E36Mpr/BMAIa8RSvx+fx+BBEAogCsYNp5xDnSyOFN5QRZr64FApQWNeEY9Au6mR0+BFz8eEzkLXOs+feJqKFmCU+/s7jy8oOsOnd+XxXi/TJ4Pjw4YGWnHwze6svux0KldM3rPuJotTvrjfp8FL3z4Y+xx9b3sZDji0IOcBa465LljNK9LAkVZqPXYpi9cAf959rPAjlLf6Jbzj6PURFLs03+h4Cb6mUTkSp36AAQIaC5EQkUMbeLFklodTZlByzAOKGictV4XAQcKEjZt2wn93hkJv89aEmt6hBbMzerXhDOObw01qqbAAYWwEVX66nNySdIBVyTmttsB9wJ/YUI/Zo4ErzF6E6gI05Q5pNKC48e6FflPLnb4sLRk4N/Gj5nqK/h3HjAEbZq94gPHFdtYJ0ydDxOnziMGhDQHuTxQgPv0Dd2hWb2qklEQ6mwgBgHZD7nGUs5SUywePtM1kwAIBTAjJt5yXx2BBEAogCsTNklyO1XtnaaSgjHkIYc6FiZqEhzWuxEgvPbJGPj8x2hMc82KZeCN+y9ma2RxP3QthEqt0q5OFPqh9/577Sa46uH3Y0VwBx9UDe68qiv10Mc98Pxuf/JDWLZ6Y+TXmMT3xM09oEqFMmydq9a4tMM7gLwafJujaABUpCg7eDy2Sx54L/bYzjquBVx6xjHi18/MBAECaXX0KY8MEqj0IrtJxge5pTpKO6iq05VRCAEDBXV4DRcsXwuPvzcKFi3H2nlktabxwbo9djgc27ox1Kpa0Ws67NONb0VOY77Lt/KuKPKkHBaFhAwIePOtUCCY9Ki/s4JM/l78P7A9dNV6+HPGQpg8axFgcFh+tdN4/fpdezq0bVqHGAS8vsokcJurRHsrW2TaaPG6RwFC/jsZEgzCLt9xiT/Yz0YgARAK4IKFTZIUILhWupiQJut9wH4ITGX3GzACxvwZVfQf0+Ig7hLQ1ELZOeGOEA2O/EMBgq+t4+vixu3WpwbDrKXRdsKUsiXh/uvOgArlSxuXfr+1Xb5yHdz+zCexI9u8fnW475puUKxoYRe6wxQwsxwsVPSCQV1UPLWfRe6M3W97A3amRb0aWjWqCQ9ef7oIFdlFURcKJ1YUtTvW1O344GKjrAh9p2I6XcjUL8IxLZbpYZEiW2GbWOisbPh7/WZ4btD3MHneX7Gshw4UUvgoXuzQpik0rFuV2iE1PwCHxOKLCNbYxcU+p9veOgXGqx1sMkMQGMiQCVjQgok3hVINAt7naL60aet2mLd4JUyYOheWrlgLaWnpsaWE3D6iWGZ4qc850LBWJe5oUICgHQ3irOjvLdbjEFgWPQxdc8PM5NcLIQEQCmDyTLzlXh2BBEDYq8MtuyyxEA63RgU6GGxIEzEHwiKYRLjUjEzo8+xnMHPR35GzuLzrEdDjxDZMr4oQUCl8nhy9SAwn7ExxDWR6HFsoAX7+Yy48+vY3kdfGSfm2y0+FxvVrmIZJeVo2wLfjpsF7X42LHdlLu7aDMzq1dF0LtICTFoF9Cbgu7FMHXYuj263zsV336Acw569oOmTtqinw/G09Aen7sEe/BQioelfa2QZPCUZwqYe60yURqbAs+pWMk8Qbger+0spGbW2GVcDnLfl7AwwaNRF+njyfav85PfDcUfFfq2oKNDmoBjSvXxtqVikPSeLAqH/nAIIK+gKIIXe04NbCuP7K2AMLvl7c7t5CTl9CY8iggkQUGaIT48Jlq2HOwuUwf+lK2LB5W76AgWocwu9dsVxpeOHWnlC1fClIIgOooBiVAaLaNYsI1gEEI05MAIS9PBMm3m5/GIEEQNjLVynHXYeoy6MhTSw4CxokMXuwMz0DrnrwfVi5bnPkLB6+9jRoc/CBbhEkQaAsxrQAG499dchzjm+yuGG73oV934Qt26M2yehY2OPUdrxbNFtHBB8vDRwJv89YHDkmFLS9fvcFUDGljHjmB8WCLCCT9kmz8OHr60KsbobPffAdDP15RuQ9qqSUhqf/cxZUKIvRwFJiwEVD/BBcJ0Mo9Q91COgKSSwCfi+1aNJAyIpHNXtyEGR/CgZWIl4UsEAgIQYs4PM3bN4BQ8ZMgVHjZ1J3QV40OgKx0qVKQD3MWahTFWpWSYFKKWXIbAjNhZTxoOEPIwYZmVgwQFvm/Nz40SfldMxhgIDALj09E7ZtT4V1m7bAyrUbyRcDLaRXrdsEqcgW5KSzMIeG9y1mdeDzMRXS/g3ea+1bNoLbLjyBGCn1RNAyEoOF3ABCosSQn7sg8Zz/3RFIAIS9fO2t/oB2pbbf3jqvaZujCQXiwBdOc0SAsHVHGvS8vT+kh3z/sdPg+T494cDqFV2Llwq10HZWpHjuzHWhU+8F2gGL5uGh14fC+BnR8CZ0VXz8jvMjKw0q0G9+aCBs3REFFS0b14J7enUNRPTqZM4+CGqzrPE32mURtK3Fc/9m3HR44v3vI1evbMli8MTN3SntECOdMbyHeuQ1uEmoZ2IQTPgP+TFQsmOwzOAYBGJ9PEBwHR9SDooTLjKTwIyHsg1obLRwxToY8NU4mDb/r3x7FuBCifkJaJtdMaU01K9dFQ6qWQVqVasAZUuXoCwCfgQX9T0NEDyDEdRTEGjKyqKAqeWr1sP8patg4V+rCAxg+yVad+clOAxfTGSBWh5cD6pVLg/fjpsCm7cG7auRaXmgV1c4pF510h0wgyDXO1RisCJF59gZq0FIdDHs5Skx8Xb78AgkAMJevjhh/QHvUH1IU7jFkSJhpcVRE+H037MXroQbnorW+jEF79n/9IBqFcsIlR80IrKLoK/xc92c0wq9c+Ono/6Ad4b+GjtKfa/uCgeS4Y8Y4ADA75PnQP+Po9kLyFrceN5x0L5NY9rp4YTNu3n2KHBaANOOyR4E4qJIu3Iv3MSa9SUPfhA5Low87tf7dGhMqY78utq1wGAE2x0VMOC4IFBgK18HEAzDQh4EmMgnGgBvLCWplVpiUGGpMAhWZMrf85hqANf21HSYNHspfDdxNkyfv5wMjuIljPE3qAYsoSdB6ZLFIaVMSShftiRUKl8GypcpSaChJIUzJVGqIyc7FuZ0RxetHUx0ZDrICg05d4GOPSOTRKGY3rgT2yZ3pFJ884ZN24ghwOCmjVu2weat2yE1LYP+Lj8MgT07PC5sq6xZrSI0rFMdmtavCdUqlYfXP/qG/BDwNe3jsEa14b4rT4PiycgeqECRnRVZnLg7IsUEQNjLU2Li7fbhEUgAhL18caICRYlbVq9/K1BUvQE59Eld2zAKn3z7B7wxJFrrr1MtBZ6+uTulOfrIW+9nry5ytB6QIQ2GQ6lIEdkD7JBgzcP0+Svg9uc/ix2lTkceDD26HC2BT6xIf/j5T2D5mmj3AtoMP3T9GVC3WgotUiQmC7gaMnugbor6hhoihbbGeIwat5yemQldbnyZXAvDj3uvPNWlOrJZkvgguPcU1z0T5sM6CN6BqwaCO/P9Q8GUM24SRoG8IyTYybMFXsCoQT3KKCj7gEwI2jFPmbsMvho7hVwRmXrfvZuSBajcmYEdJljSQQCBi27JYslQvHgSMRAohkQzo6KFi0iao5eSUCsnAtKMDEhLy2TPhNQ02Lp9B7EAmOiIAAB/j5oCjnK2JY5dP3anu6heCVo3rw8N6lQj0INADksSL78/go7BPrDj5bJuR8EZ7VswIKD/jEgx5JgZYRAkrAntx22bY74qL3IgCZHirl/rxF/sXyOQAAh7+Xq5uV93x9JnTzvTuJAmUcVzF4NRyWdlw0P9h8JPU6J2vgfXqwaP33gmYKkBKXYCCc6tUNzkDBXtFzdvzKRmTNtT0+Dy+94F7OkPP+pUrwi3XNHFCej+Xr0BHnn581ja/KCaleChG86EEslFndI8CBDYNEl38iQrl2wIKoG43bf42mdlwcX3vgt/rdkUOa4ru7WD0zu18hoEZ5yDCwhT0H53ye+pJQ6CCIVQ1MbOPtrEp9eNWY2gFsFpEoRNcKmPwv5oLDeXGQxwML4Xm7enwswFK2DGwuUwdd5fsHLNRlqEdxcshAdF2/n4/NiRkX5m4r/1fMm4SCOMA2AlaI38Tz46WPJChqN65RRoULca1K1RGWpUrUAGTMTkFCoEaRkZ8PHX42D8lLmRvArUY/S97BSoU7U8lxfEajlglmSNkkKRzzl1MSQAwj+5qom//f82AgmAsJevaG4AIRDSRGmI0ZAmCmjCnVs2wDm3vQ4btkVr/R1b1oc7rzhF3AQ5DIkpfGkjDAU22bIGvq4NhUrLzIJ3h/wMn/84OTJSaLd729WnQ4UKZWgX9tsfs+H9IWNjF7VzT24L3Tu3CYADpvplwTZ5DPRGsn0nAaWyG6LB0ETFm5/+BKbOXxE5ruPaNIRbLzqRd9JYypCFQgWKLFgUsyQj3tTEQH17wSgOSimDoLqE/2vvS8Dsqqp0V5JKKvM8kIGEJExJmIk4MEgj4sCDVlSwHdrHa7X1Kfi6BbXRfq0+Rbv1qS3gPIIP1FZ4DCoIiDQiBASRhCmQgRDITOapkkr1t4Z/77XPObfqVlK5VSn2/T5IDbfuOXedc/f697/+9S8pDdm5CWjwyd8YoVSDYBoS26Xz30tLKdgj+3p7y25a+OwKuufhhfTYoudp/aZt1NamO/UD+cHXg0sdUyaMoeNnT6djZ00XDwhmA/iBt6e4pQ89v2odff3qX4mGwT/4NS489xQ6+5SjVHdgZaMqHwRoTzCkCV0ylbMYOj3NUf+AwX29w5r4ercYUFTr9Dys6UC+p3v7uWeA0OArHAGCmcQ4BiEo9U3cpq1yKnRDm6Mq5Enaw9728e9Vnv2F57yC3vGGk6IJkSVKMAlqDBR72IVBsGQFBT6XF2TyXGsbPb96A130hWsFmBQfF771dDrhmEPlx1f/x+/owfmLS88Z0NSPvv5P76Rxo4clZja8kw8iRSsF2KY2vAaEgRhOBf0F//vFH91Kv533VOl4s6aNpy9fcoEAospWxzD1T48vwAkjhbGrtq4GXfw5Yr42b6UZY318V4PaZZsXQmAMjDlwHgnyfpgVsY6HaHONyZVa6mFrZDaGWrx8NT27Yq3M3nhx4xbasn0Hte7eU+l02eBbunQ4Tu58rzEbMHzoYDpo7EiZ1TBt4lgaP3akdGE0NTUJCIRZUkAIpgVhncMNd8yjex9+qqRlOPbwg+mj7z6LRg8bXL6fcG2D1wVmMbBTpnbIxOFlgILWzdAggAAtUX0A4aLEUExbdU2MmQBdvdeDa6o5YbLxmLxL57iZ2nN3992Sj9+TI5ABQgOvTnFIk+xEbecpSQa7UC4noF0uuCimQ5qeWrqKPvxv1aOUP/3+s+nk42bqggF63bEHUHGjV4BFeNAgBEMmnkpoMx+2teymS//vz2ViYPHBvfoffM8bhDr/1BevEd//4uOYw6fQJ99/juzaB1iteIBzvEMSl8XNuiywowxjno2+9/4C37n+D3Tdb8tTHbm08osvf0A9IPq2JSUFMBbcAgeXRSkxMMuAujRnkD0sVks9n0WwaKAAxkVFPYJnBYolBQUFEIKab4IzVdJSigKE0DERRKy629y6rYVeWL2enlm+ipatWEcr1qwXsChdAjxXQWyUG0M1oGwhbpR9+4j3xLDBg4gnVnJ3xdSJ4+jgg8bQ8KEDZbxzGNZUKF8k5kzG8T/+zHP0w+vvKlZxt20AACAASURBVLEHfJyLLngNnfGyI8O9FMoKuKYAByZKhfkW31vx3o8gWfxEhS6q30VR7k++SHvBIChAgK6oIwYhA4QGLtH5UIUIZIDQwFuiOKSpXM+O7Xwyc8EcE7Hj8HMZ7vnzM/TZ7/668uyv+ex7aOLYEQlAEKDg7WZt86QCs6iulx06lxnEe0GFijt376GrrruT7nzgydLxWAz36X+4gJ5Z/AL9+PrqmRD/482n0lknHy2JekCTCsoEIBhI4ETe35K0b8HUqX8cExcXN+Xyxt//hb7203LHBJ/kjz/zHhk7rEObtBdeKGgTJgpA8EI2MAi285KhPVavl3QbkocaJoVyg5VAEEOdhmldC669sVVGdVsXRtAmxLHdqk2IHRsARvK6buKh3kNELNpkjQKLBrkDgml4bjHcvHWHfL1p63bavHU7bdyyXb7niY5c098t4kIdzoRz9hcV2gTMYGBQx9eYkz+LHRkAcMJnFoA1BCw+5WFT/B8PceKhTgNZBNm/ifpI6UBVHMFW2bCLt2Uu3lR83j/85V30xOLnS+zB7BmT6ZN/90bidlYtKaC1Ua+nt1kOO2qnP/AAYV9slrsWICylT33j5kqG7ldXXCSgWcGsvUebSurbd1lrJPNHMHclMwgNXNl776EyQGjgtW0PIICahhcBhjL5yY0eKFx/x8P0rev/UDr7Qc1NdMNXPqi7ZrOZjZMNlYIMEx3tr/0u3YshWX/ANCiDhLseeIL+/dqy7wC/xAXnnEwP/HkhLVm+pnQ+nFT++QN/TYdNHS8qc2YQuG6sfeu2i8foZdhChymKnBzV9hm6A5RA2KfhD39ZTJ/65s2VV/D/fOC/0YlHTTdDJtVhwJcfandZdE2fIOUX8UFQOlbsEFBe6MudHmh/i0OHvHVwAhAADNDyaL4SsZsBYlD4I1iLKSduY5GgC/FJHBqEKn5Akp39AuOhhe3gssbu1gAO2MWROz+4W6KlZbe4Omongv5x/yae5NgkgGBA/37aItnUpCO0+/UTLwZuDdXBVuhesK/doKkg6nTPUcMpP6ehKHpkILGHbrzzQbr9vvly3v7BAOSfLnwjHXvYZE2WrnMB30c2yih3o905PrCtjvoDfXWwB4FJqHNN6DoGoTZA+PWVF4USWAYIdV6Y/LQui0AGCF0Wyo5fyJskhfICxi2HXXJMhoEx4N18MC9SavqbP7+bbqgYx3zU9An0lUsuSOYc6A66yCAoUIBaHfoHHFM1CG20k4/d2kar12+hv//Mjytr3mwLvGb9ZqG5iw9mMi7/x/Np6EDuXlAGgQECSgxRg4D6abS/9bV9qP/VJErLLU8/u5red/l1lYF/35teReedeaJQypjq6BkD7L7QLy+mSTbuOEwwNBbBZP+W2WJi9G2PECwGwaEkZ+fdEMoLqdcEyg4ePPix3yg3YAce7iG8a0eLAyQAIDAbANRQL4VeNYegPXGkBysRwMQOEAEEfpCTCTs9UPAX8KHHF9MPfnlXyY6az+u0E46giy44gxgEh+tnQ7jUT4MENKC0hu4UKYFgSJMN5grAwA0uq3cGQwh9ByUGeF5Ie6vZcMeZKsrQMdB94DEe2V7NIESAoGJMAUXBFTQagAlz4MemZwah4wU5P6PDCGSA0GGIuu4JESCoARAmKSYtjuhDB5VenOLIXQzc4vjtm+kPFS2Ob3jVbPrHd50ZAIEuluYFYDRkYBGggYB9sCU0Fse17CFiBoFLDaxFYCbh8m/dSA8/tbxTAXnLa+dK94KAAutXx9dQoIMKllpxmMNgkyZFH6E7YTWNihMtN2zaSn996Xcrz+cNr5xFF73ztcFq2o99buqjDIYuuGrUpFMvGUjZLAgzS0KKlR2zy84hYduOOGoRrF210M6IAU7iUBnKR3GwE/8c+gPtbDAjJgOQACPFoU2BOTBxX2jTs1bG9urrnU2IPtBF0BDbQGNjKEpoESToV1WAg+O5ev1muura28SJsfgYN2oYXfLus+ioGZMUBFiSrCwrCBiOHTsKDiIzhC4JBQl2pE7qDxTgtKdB0GuoXSx9dICXfaaDBsG+f2BBOwDBSgyYesqeHtqNQ9LaGT/bGSB0amHKT64rAhkg1BWmfX8ShFgKC6yODdEbEoKZJHmtgZ/iiN0z7zb/5+XX0jPL15ZO7KLzT6NzTz+uXTtjPn4cqaxK+tBKaG2UPPtBSwxaZuD/5j26iP7th7fWHQym8r922buJpz9qacHYA/tad4HqbKhGNjLHMSzaKuB0NsvmKMm7MYnL7j30lku/TRsqWj2Zhv7ch99E3EERZjKIDkHBElwVYaIEkyYGCQwGMK+Cf45EoIxLbMbzdfVYYog6Ai0XwbcBnQ0R4GAiZ2AR0NEQ3BlTa2dfz487YE3IkT0wK20+b7nXIoXuAYEvScgFrQMtaEeHPewLn+yLIEGUGtAcFE2nUA6xRDv/6WV0/R0PivCy6MDIxk7//ZxX0etfNYeam/pF7Yhdy9AqC+tsKyt4Rb8vK6CDJ7ztUJqp+9aWJ9YHEOweMI0JOpIYLDAI5+/bBQhSYjDAw6U5AUZaPokAgX/fNzMInbt8+dl1RCADhDqC1BVPaW8xUVtaSyTOTpgTSPAkwJRF23Wc/7Hv0MZCYuSF5HMfOpdOmjNNFgxOjKDQhV7HTjmZmMgLXR+p8aPOj8S1U0SKESSs3biNLv3ST2lDwRO/VnzmHDqZPvH+c5zmIGoQhE2As6HpADDy2cztzJAoHUMdwZMurpddcQPd99iy0ikcOmUs/etH3kLs1SAlFik1AJC4r/1UR1gui05Dezzi1Esl7OMOPk4phBaB4ydAwQkO0c4oO0lrc4R9Nos/V724mR5fupJ2tOwWUeWEMSNFDFgqM1iyLeoPIqDSjI3v/S5ZuZjC5EKXuLXtrZ7OBwNLaO4ojKBWfkAfETikjEHxKKyBuOehp+iW3z9M6zdvLV1HPrfTTzycPvjW02n4YB1/XVUyws/9fA3cT3FCaGQS7Cz3qnsBJ1kXQIAFt4E/+UyzYFWYQS2V1cMggGWDPTkbfsFCXJgwEyDnNseuWK3za4R9QFsRrufY7JcI1FxMSlMcFSgwzY+ef9DSoNi53v83l/2wtKQPHtifvvy/3kJHTJtgJQZnM+ySMNoJ40Jnu3RbzASUWJsjC9qEQeAWux276AvfuYUWLCqbE1UF7R1nv4LOPv14AQIoKzRDpNikSVoXurgDConMqHVp/RR9BhZV1WCwfo2T7vf//x/pmlsfLB2epzp+5aNvo7Ejh0aAYHVqP4tBFlleXPupBiEpMRhA0MSnSdZT/PjoeP2B6CacQ2LQTkhCMObD/n3y2dV03W8fpPmLXpAOBLZFnjRuJJ0290iaO2cGDeivQCG0VoaeAKS3OJopjKl2cxYAaPjZ2DWDAXDMej3kgYsvjIHsRwWQUC41aOz8g+PIAsQFi5bTXfMeEzOoqhHYjFuOmjmZLnnXWTR+1LCgL5DyQakLJTqGChtk5TRoDzQGEUB5e+XOtjfWDRAYEFp5LLTntqF9GK6oe2heeyWGKy9K/EwwWyS6kBoDZyPd8dlWhpAdPDT28D4IDNB+WeXyi/a2CGQGoUFXFOVrpWldiQFOeubIJ3VLm4MQAQLPRkANvk12XJ/+XpnqHz18MH3tkrfRlPEjw44C4251B+JMY2yxxK4vzAewWQ/a4ojyQvz32l/dT9ff+XCHUeNywac+eK4MTfLdC1JmMMCA+jEElH4x110o7KfjIClMsuTZFLxjZ2OmS668qXQ+vNv86qUX0JTx3Opou04nZMM0R5Q5dOcVE4ufxxBnS0Zhp08SaEP0nQzSsmhAIEzHdLFld8Tv3PRHuuOBJ2l7QdzJnQOzZ04WkHDotINo5PCh4jboKXtb9XVst7NO9sxBtVpfuzES0qCTDIIvMyQlBqvJJwm0MF1yx84W8dN4YP4zNG/+Itq8ZXsld8HnOGPyWLr47a+hI6aOk/IT7uHo76EAGDbiwU7cMUFl9kDSpUCtve1eKAIE+R6TPq0kxfeuGGGFsqEBAsxXMREwSgyX1RAp/ubKi80oCV0ZEVSHexglusAiRB1NBggdLlX5Ce1EIAOEBt0evoOhaswzNAAw2vFTHHV4UhS0Xfmzu+j6ux4tnTkDg6s+fr7Y12LWQKAm+5ljoFHqYm5bcFOEsQ/aKbl7QTQIIlJkkEC0cMkK+kSN4U3+hIYNaqav//Pf6uwFgIKmvtQMPwL0sBuDoDsfay90FDVGUQeRl/kJyI6stY3WbtxC532s7CjJyZ5HXoNN0VbPqHmAeBMAIdEgyO7T9BCeOeBWx76g2QvdDDC8ckOvdBKizl5I2IPdbfTYs6vos9//tQy2qhLtcfJiAeXQIQNleNFfnTSHJh80VgYwJbtxy9bKELQFpgCMAZgF/Kvp0ZUbql4sSdmOa4jyC82JjhgIRGSFloGft3XbTnpgwSK6+09P0Mp1G2z8c+2yxqzpE+kjbz+DePCYlhRsPLfZhvvvg0Oom6kRRjqjrdeVX1KAUP/0xqqloj3hsQcIoT0Xxme4j1nbs2AJ1QIIt151sTqCCssFcy+bShrGmKt+R8ormGfiGAQwX4BGDVry8mF6QQQyQGjQRfQLCR+SdxbMJWivehQJlgFCHNAEJfyHv3AtPf5s2XPgyGnj6YqPXaC97KZBUGvWOKwJ0x19khAxoGvLi26KkTnQlsc22rmrlT5y+U9o5Yub243cW888kd7y+pcLLayMAQyS+tGAfjofob0WRyQg8UGQFjErvTijJD5PnltwwSe+R+u3lIdJffLCs2S8tNZndfGEkQ7AQiJSDIurAgR++B2YeCGE/n99+779UHQDRikrsEktlr1L5dKV6+mSK26gFWvLw6aKgeWc2zxggNgVHzZtEs2cOoEmjh8VJh6CEYgmRza62moMQZcQOhs81R5thsNxfZIvopcqcaLk+dgGwN9yCYEtoZ9bsY4eW7RcRlqvXb+pcpCXf79NTf1o7qxD6D1nv5xmTBprg8Yi8wWKHSUE6EsE4BkIDlqWMLExCjftqu2T9sCfbxkguPHtcCh1rqhVAuQHFiyhf7qqus3xtqvYKElbgKEjCn4IXDYMHRsKfsGCoVWX798MEBq0yPfCw2SA0KCLuncAIfZKy6jjVk6Iu+jcj35bRu4WH+dwi+PfvrbQ+6/94WolrOYy2krougXC0CFlKlDaEDdFo0K9adLPbp1HP7vtTzUjx4vWdz5zobjscQKG50EECeZq6KygvaAM4ECBi4IXzKDAKGqIvHbu2k3v/fy1tOSFsg302888nt573qk6QjrsPKF9cO2fYWG1aZLGIJQAgpWHMENAA5A6KyY+CGhzw0ROlBha24jtq7/0/+6g2+c9WVLtt3dLcu5m8DK4uZlGjRhKB08aQzMOnkBTxo+hUSOG0ODmAWJmVHQM1JJJRQ2+0N5Xq5mh1NboWj659XRHyy4BBIuXr6HFy1fRoudW01rxxmiRa1fPg7sV/uZ1L6M3vfpYau7flEwhVUMrZYEwdMyXFnxiFEtlq7vzewa7sq/OiVXvoRZA4Ocmkzu9dboxS8rUEc1bsLgmQPjtN5hBiOVBgP1UpBgnoeq9ngLcDBDqufvyc6oikAFCg+6LqoWkikFITFUsociuw2qaz69eT+/+9DW0q+Ayx2/j4vNfTee95riCB4IZx9jgIvjSFxOBiOtCW55TWVuJAWCByw0Ll62iT379hkphGZ/H7BkT6V8+9ObodmeaAxUrwmLZjF9Q8rBdfpTdWUcAAIIfJuVYhJbWVrr0azfQg08+V7qSr5g9lT5/0Zt0gbUuDtSv4aoIgSQzDDHJ1GAQ6gUIrpMBnQtBTwKhIhvkPL6MPv+jW2nD5m17fRdqKaKf2BwzIGPQMHrEUBozchiNHDaYhg8dREMGDqBBA5upeUCTJF5mmNg+WdpdtdZUUArEdk4wSy0tu4Q92r6zRf7bvGUHbdiyjdZu2ExrXtwk/27asl2GS+3e1dqpIVKDBw6gYw6dQmefcjQdd/gUGVMeQEDQzRiNXhpfbtfNQGAcxGSOoTVLC3V1dnZ4XWp+rgudLGqaxCzYHrXJhhaBAcL8JfSJq26qtFq+/RsX2yhyzxYY++bGWeu4ctPQmCkUlxAzg9DhJcxPaCcCGSA06PboECAgQcsO3nz7wyJinv17iB5ZuJw+8tVfUmvFZMVvX/pWmnXoFDNPcbQk+sJtx45F1CvZ2W8Au/VUba9DZbiLQTsb9tC6Tdvpsn//pUx5rHq87ay5dMHrT1J/A+nXjnMXxBxJQIIJzMz/ABMVrVHABvuoQRL0GQqSnE1xmxo5ff4Ht9Gt95fnREwYMZiu++L7jEFAt0SxlmvixNAqpu+oqsQQjJIKNLuIE80ACIZJcfeoo7mjK6ZaV0t5ZFcr/eJ3f6bv33TvfhuwFAYqMYMgxlBsmcx2yuwnwNfCwIKJNNXqmZMYX+89tMusmBmQaqlHJ3p2RfMTH3vmlPH0vjefSrMOOUgAJUZ0g/VB0oNAUX4fEqECHBh/4V+vv4ilNKfmt5JIV0w19NoimFm1sVDRAYRQahI3VOiJ4myO+xcsoY9fWQ0Q7vzmR4ILZGzvjKwgZjSge4G/F5bJ/NQzQGjQAt9LD5MBQoMubM0SA7oYEoAQ69dgD8Rdbw/RnQ8+Rf/y3d+Udmi8cP76qx+goYMGar3dWSurUVAUMekCYvtGa4GXnWLFUCTe6UiZgZOa7Xy49fFff/Bruvcv5dHOHM7PfehNdNThU6S0gZZCHcykCmzWAURnOBMnol6MAUlhSFHqTCg7MIxNZtDSRvStX9xDV99aXfK45St/L7to3WHFoTfQYiS2vBU+CKEtEL7UQDBBpJfOZkDnBcoiamFtg7fcZE5JvnvaxOTpyz+5nf746KIG3Yn79zAhTO46CkcBPUQfohFDB9HRh06h0044jI6ZOZmGDW4OdXZQ5KF84Pv7YYRkCbAIDvjSCEhQUkT+LZkiCbrpGvZAgRK8MRSA8PcCFDCZ1ZXI1GdEmToIgfnr+x9dSh+78sZKBuGub3GJQWeJQEeD4WN+7gTuZ7hGeoCbSwz7957vza+eAUKDrm6pi4FNdYpOiiJsi8ZAoe4eRgK30c9uf5i+9rPy1MSp44bTtZ//O1lEmDWG4tknQrQRhqE19t7bzCEwTCK0BazKGha73zvnPUFfvuaOUvSGNPenqy9/LzX3tx2qdSlg8l6YtmeCQTAHRV0EFltpF3SLrbArMJOyWu5N//koXX51eZAUJ6UffeodNPPg8bLAyrQ7mCY5kOI7GIo+CFq3t2yDi5gwCKlhEhJDAFxodTQba2Y84OEgzEzrHlqxbhP972/dRM+tfrGyo4EXex6YxBMYGVjwDr8nPqr0C336KEvBJZBpE8fQ8UdOpZPmTKeJY4fLPAWtl8fkF5gDJERYYJt2RsSJNnfAMwYKBtDeZ1oL1/+fDGLiUlEdzpH1xLhyAFvhc81W4d5GO87dUOB4/4KldMkVN5XKhvw+ARCkk8EAbAC1bhOAz5Hcv+KUqiAouX/d9PJ63lt+To5ABggNugdq+iBY9wAnFtDSUq90CvhIUbbRsyvW04e+9HNaszGtW79yzjT6yj+cp4tnaPeKdKzQt64FSkVc8c2nzn2xXhpmB3BiM+c3Ps9N23bQOy/7gXQR+Me7XjeX3nHOK0O7lexynHd+mDJpLYeanBnUxJqxbfKCkyKSre7KrY5rLAL/7L75S+jir96QnAe/tXNPmUMXv/10GjRwgICmyBYgITnlt50DJyhZVOVfdVKUhzAtmliKboHpXAZvtRyvKdo0AbCko0GYGRWCzl+8gq78+e/ouZXlOQR8+BHDhtBUUfX3pTXrNxHPodi5c5eABaW26xMC7o/bPbVwVoMengY5dtQwOmTSWDrykINo+uRxdNCY4eKGGL0LrERgJTBfXoBnR/Cm8LMVMPUzGcDkNAcFQ6TU86Dr2AMFsUZHCHNgY8Ax3tpaXL2NOcZ6g0ng79ds2EIfv+JGmr9kVbg8HNNzTz2KLnnXmdGfA1qaAKis1GDCRJ6y2bcPt7ry/aseoCnA7dr3vj/upfyaPSsCGSA06Hq0BxAiLa30o1r1WnKx3QdodV6Clq9cL5McQ1t6H6KjZ06i0088wmqySrWiPcrTtarwjn3wePuooyuL4IyJKlq0AGRuufsRen7NxqRr/vyzXkYjhw0KXQPaPVD+DyUGOR8RU6Wtd4Gqtfq+9JSHMozW8BEnFsj95DcPqlmNvSEW7J13xvFCX/MiGXem0XFPp/3F0gufA8Y9+1kMgZOOuUCOgpxc5ajoR2gLwJMhTVqm8e2O6BLhuRKPPPM8XfXz39HKGq2Pgwc202tPOY5OnjuLNm3eRqvWbqQXVr9Ia17cSOs2bBLhIHcNsKBwd6tqBrgW3tXQQSl8Y2T69RPxIzMEo4YPoYMnjKbDD5lIM6aMozHDhwhQCNeYEzoc/5DU0LtfEyTErgUBbG58M1inUsdGwhzs20CmjpaHABAM1XK095jdZmCRwID5uSJhFLiCXjbL+vEt94kQlB9slvWuN75cbLf5PuX70XdtRGtlJ9KsGDbGsZGGaqn9ZIDQ0fXMv08jkAFCg+6IotVy3G1oQtYugthH74VNSk8qaIAITnatph9AC5tvFYy7MRuEZOIleLVj12cbY9uFUpicGA2KrOZvgkl0OuCcYDOMMIKZADNQ7B4AMEBNVSjmQInqbl3r2LYb40UVPg2hnqvWywoaEBf+mz0KEJyhj54PdlbWDhZEm7FzIe5UdfuZDGuyBTaIOpO6s/4UIA+7+RJAwOjn4KCn7IHO21A2YefuVnpi6Sr66k9uo7UbtlTemWyCdebJx9LJc2eLkFLcGltbqXV3K3HL57YdO2nb1h20cfMWWr9pq3gPMNuweet2MSfauWsX7d6tZQqOHYCOZyCUmjaxmzkV9u+vHRDDhgyiUcMH07jRI4QhGDtyGI0ePkS7JQYNELtoMDXQAKCMUAYHzt0TACFpZUTyMxDpJjKWwIGbZllkNPRN7r/kGACYsQgRIBTdQGOnUHL/mjW3gAv7UOstZl0IVlLRezQtx8Ae3H/2oy+GfrYyQGjQIt8LD5MBQoMuatVOA7tkTbJxxK8AASS/AjjAc/G3klDtf7xYoD4b9AZFX3pH5cc6bCq082AEDnAqtoPxjzIMwjrYuWsYlZ6HUCqwGG78bmzHcgp0+5vEHx8mRHYMr0WALTRsbHG+VVS7+j2g/cuOKe190VZZ6toGUmrSs65+6ywAEhYBKnaAA5SNgo01OjCMUeCWUU7Wu0TdjnIDd6oso2/+4vfiI1BVOuC2RmYRTp07W9oZ5ToGsBhr0PgZMXCS66VdCK2trVLvZlCRahosLYm4tJ90OvBOljUE7K3Qr28/NSOS1lQtJehVj/bNAAX8q+I0Rbj8qRYEzp4OtAUnQL1OvlwGl028Lh83MAeFUdcQRO7P0oJfNooAQUWK2skQymNmuYzvdaS3B/4R/OtrAyJouYv9MxGDtKXR3dMouYgOIeoPIkDoOu1Fg5bNfJhujkAGCA26ALrQY9iP27lZS1QECOZqaHS6T4YMGhQY2O5abfjtZdHehATtkqLpEgAakDSLhnmyC3bmRGHUsrVeStmDk80eNgfipBMV2/buwsLkhWRIFGJyY0kAfe5C6zuFe/FyFMsvCkoUoGgLpGcQbHJg2OozOOBFsa9Q2zDQ4To+dBro6IjMStFQqDwuOZT7C+OfA7tjjIewQn6Uto33FdtsGcal8zWiLkGdK7nc8Jenl9MPb7yH2PeiSl4wsHkAzZo5hV532vE0cdzoxMcAeIF/GLQdFhPsvMHU6L0AmOnnE1TvuINspfB6eB0kbQgI+efMVvC1b+5vcxMKc0HUKtlsgqVTAdfLTH/s/g3goPC+kAzxnlIrZU22XSVKrFou2i0f2vWHy2ZgvcJIbwBt3SAUy0Fgc/Sz2yYlsSDsdHqjtDxGxBNRA0to5YX9HYcGLaX5MA2MQAYIDQx2sWeaD810pNDpbkeu9sLRQVC/jr32VQkjKJYBBswExyc+JOMwrKfw3ovnwIuZ7Drt+NxiGACLna+2lAMeKFgx751g8IKdIHaNsls3LYTU/F3NOIAWgA8ch5OtLzUwRS7Jx3sQxL0XBIUhEXqWwNWxPXugreNx1DOSYVX9tj0WQScwAujhWtosjaDvKOsRgv+ElR0WLV9D19x8Lz22+IWaIsTJE8bQG159Ah112MHUrx9zSPZAmSDZ3adCUMxnqBcgyPMk8ShtjXkeeB3fVcDlnhVrNtAzy1bRpq07aNLY4TRn+iSaMHpI8McIO2EPDpIEqElO7x+b02H3V3CGdEPH6n0fXf2RLwEES/OYxAmmLYBZ04UoUxhZBnyWPEjAZwPgPrQxIib4HFnrsvc/AOzTmt3+K7F0dTzz6/WcCGSA0MBrUVlm8L3T5kXgPf196QGJx/gHd+aaFmL93+hXR0tiJ4lWsLB42BdRcBcZDD52ESQo1c/iN31ewAeByYgJP9DMzuGN9+foWvBtaZrIQ3rTDBsm40X6FWUFxAUABsyK7hfjQ3eXVvrgzgSmvq1LQQETdql23pLtyg50HnDoe3azB+yAaTdDNJ7y9st+eJNvIxWnRYyEdkLGVS9upiuuu52eWrqikkngc2Eh4Nl/dSKdOneODHOKiTzGQf0A4jCnwDKEEpX+vmrCobsqCVsV2Yc0juymePeDT9LTz62mPa2tIrQbMWQQzZo+gU6aNY3GjRgSbZRrggPPiMW2Pfga4NgRxOGOdmxBF7YztrdM1GYHKYhEhf3jTiUz1JLPlSs7eFbQHyvoQVzpLgAmBw5CaUfuXwVv3v+geP82cNnLhzqAI5ABQgMvXk0dglDVJsyznXMVSNAEhGmCXovH2ygdyqIGSLE+CxEgqHTU+UuUq4kCORwimkyEgSa2CkOdzbxkcQAAFMpJREFUtFsACREJE7s6sAj8fajtW/tgMLdxfesKDvRCuOqAvMHYUmgUrOtqiIJAxEXhge7E0tKLxsRq5Y7BkLgYOAkMQkV7WJGeTcsM8SZCmQbXE+yPAhnXncIUsx88BYe9QrcDswrrN2+nn942j+595GnavqOl8o5l6+QpE8bQ6045VkoPXIJA5SBQ8AYSwlAngDIDOwAWyfUw1iB2e2r7p9/BI2mzGJL1E48ufI62bNshlsmsYWBPDPZxmDB6GJ167Aw6/ODxNKBJqfIwhrxfLCsE1b718qNsUVUeiefqAE5Aifu3tOAvhGcRcHh8VvE5AUiADiGW9EwDlJQYogZBPk/CbGnbLcp3ck97zwNMrjTsmgFCAxf3XnqoDBAafGGLdKS2RWlCg8gNCwpTkLKzMMpaxU9WZ7cEHYVi+kawWIO6V8d9rb/rYgqnOV3o8UBSxTnwkVKxHc4P4MHpIdyWPex4LBljl87HgQmRL3XgnCQBOxpU3rMlJy8+DPS9nZ/Qt4pQUn8C+duYyEJsDBCw4IuPFwxl/AAr+XnH6u9ymUEXdSQAAVuhdJQ6QqIf3s9qUM8JLT2o6552OHCL5NadLfSrex6lm+9+hLZu31nzrmXPhxNmT6ezX32CCBj1fUTg5YGYAojy6GcAC/+HoLr9jh1AlIWPTyx9ge7+05O0et0mmfPA4IC7Hhgg8OwHdtEcN3Iove7lR9KMSWMSTwq1WE4nEaofhbY1BsBrCBKAR+99vLtUP9HoentNdhAMYSLqtfvC9D6BeQJAwOfJ+TlExkRjBXAA4J+CPmUPcvdCgxf3Xni4DBAafFHThSSKDeGqqLlOkwn6+kGn+z5/XRdtRbFV39OuujOONG1gDuz9JrSx/SxNyIpawg7YJeQglAS17hdpE2LqIh4XM2UTorsbL/xx95eKqgJoAUhwi6wmXavxAzy5Mg30ED4pwghRGQKLS2AwYmkjJp54UyjlXr0TLYsVNWFpfPQ8+SsBeqHebF4XZvqEzhAxzrF5FyJiNJdIdd3Tv2Fh44JFL9DVN99LS15YW1OXwKc8fOhgmjtnBp02dxZNGj+qYDkcr36xHBF+ExideJ18fPja8vk+s2ylMBsLn10p4FOGQQljoP9xyYO7IIYOaqZTjplBJx99iDAKcPjUIVnRtyMVj8a5AkVg4qtRAWQG6qhQrmrAZzwtOcUiIO4FfK6hR5D7w0p19lEP19PhA/2MJJ1H7h423YFnBfvIvRo3A/JVg0otDQhzPkSDI5ABQoMDXqxXAuljIfE7+PCzkHDiwlM87bgzTFX4UYjmmAO3iPjXKe/aI0iI5xfbG/W3thi5vVySkL0GAPavADSgvD0lCrBirxzOyYk5ARI8gIpxK1/QSLUrSOFHWRypyR2/LyadWir4KrEikkHo8oDA1HQb0fDJuhz8gC5vzexAQmAa2oi2bN9BV1x3J/35yWXigdDegyclnnriLHr9KcfRsCHNSlXbrlyTj7uA4csUFITn2Y6WWZENm7bR7x98nO57dJF2KfRjMNCX+jdhGJRaLHO7JE+TfNUx0+mMEw4jtuLW0c1q/KOAAPbJ5a6F6q4LD2+rdRMN/lgjD0tA+TOefK5NS4P7woOEwBDivndsXLg0gUmIbcRyDzsgIODXfY48e9BoNqU7Yp+PuX8ikAHC/olru69atduQpCd/5TQGoM19+cFWa78IBZW926Frgkt3x1joPZjAiYKgDzV/NCdAa1A4B5Q7bEUMffhQyEEYGFgNt8gh+fJuB+fZXsAiSIBWQ5baZDBOKNGYfsDclpKUh/ftF1aciyyiCRVvq28Huy/PIoQEoKcnjwgSYhubn9MAJXv0mDC2wMCBt+SFFwVrRDZv20kPPfEs3fyfjxB3O1T5JSCmzNYMGTRQbI+PPWIazZw6niaMGUGDmgdIOUAU7iZz96kX7AKf76at2+nFDZtp8fI1tHj5alq2cp0YL2mi4gmZrCngf40d6NtHxIlHTB1PZ849XP4V5sDNWEiMk7yg1k8kdPc07qWkjTHEunF6g1r3avFzzZ8BMcJG6SCIbt29G1qFfbkPV0HvSf3cGvD3ZQfHHIbuITwfN3tmD7phhe89h8wAoZuuZVHUpMnF6u4VQCH83s5XdGU4d7eqx0U0qpjDDjrZYbgs5hahROOAY0G176j8cmJMLW2R+P2inlKffreuu/eYrMuzBYrsRhQwxsUWMcL7DTGqaIUrnsu+7L46KjWA3dCdYyoAxRAfputhr82gAlbSOpMjznTwDpb89bKVL9J/3PEQ/enxJSJgrNiAJnc4ewyMGDaIDj5orAAG/m/c6GE0ZGAz9bUkz4mOmYktW3fQirUbpV2RQcG6jVupZdeu0G0Su1D0BkTZiPUGY0cOpTNOPJzOOulIGtzcX5kCM0gSxqCdkc1e5KqalrQVFveWHNTKCvvT56DeJSKAtJCcnYbISlUBgNtN41lCeUrxYPYDxCF8rgrgwOt3wucotzbWe+ny82pEIAOEbro1apUaEqBQYZwS/q503o5qRUK0TJnUJU285JOxHjNdmlDOFV2CYzU0MdcudRQxC5TUSNryahVApTaF73dWJua0rW3hlO09RLCR9kQUxHguNqEkUhB2dYaaTUsNsfBSbH0sgQRnmJNYR4cJnmrBnQCI8DfGNuxupUcWPke33PMozX96ObWwaKGOh+gxeGgWlwKamtQlsU9fiSPrHWSewx5tjWSGQAyMRFCoI6yCDoB3/Cb6YDBw1stn0etfOVvaGfm1eey3H8QEnQFKDHAI3Bv75M5cozpCss9PKYNFfUn8nLVGQVBrMcNnL9zpBRFCwuo4jU9g66pKC3bQngCc9jmo+QW6LQIZIHRT6Iu7jZj4Y5ueLCZudelod6ip3B7YYXjRkk+ANd63L10kYEWLq3GHExY3eRYOKv+Cmg6tcT4Z+8SCNjuci3+D4a0bs2Dnniy0kUbocOecABfpWFD05cstoW67l4trNUiIZREdqx1NlPidqVFO9EwQnwk38ju4Wdrzkrkc/mdEtKNlN9123wK6fd4TsvNv2bV7n6Y8irDUhjLpSGYtI6ATht8PXyb+2eBBA+iwg8fTO147l46YNj5MbEQrIxgEtd92ugP4UIRuBZhVpcyBNrK6IWNuZ91NH+Gah62pM7KPCkCC/+TEj7l9sNyrlwSZ9iHzwD9+7OsrjfW0mOXz6ZkRyAChG69LNUiILUoOG2jLHzIusmSyWdaFAYkvJGqrXyK1hx1FFdpwW5UqoCDn41crv4XHudgOCZk3nI+j+cuLWXGpdOm8BlBIY5OcuIXJTkjW20JNtwb1Gk2C9s51rpgYnDAjDp8KHRmFFkiABQcaPFgQoMCdJBghjH9t+idcJdkKm30THnr8Wbr74YX0xNIVQSvQ2VsdGhZJzDYuXKnueDEHNfenY2dOpnNOPVrGOg8b1JxMFA1CxCBI1DkYsAtWi2Df4WJuj3DktNteK/A9R5DYUSzLYBHvwNg3AGwD3kEz4wSN6KAJx3Kg33++a32eMnvQ0VXKv+8oAhkgdBSh/fz7ekCCT4aynhgUiKdmYqaKXRXU1LqgINu2k5ATHJLu3sNf+cWtMj7V52N9FLE/271g1WLmE67GoHw+5dh4QlYPEH5SAAbtxWZvF9faIKGKSVAPjFB2sPkbULlj9HewlGZQUAQQfiCQsQ94PRYy8kyH+xcspieXrqR1G7bQzpbddbMtMQm5dsM+fcS5cfzoYXTktIPolGNn0HGHTaFBzU1hFHOYs2FDsgQkGBCA/iC1DoYFdLSC7qwN9H7+mHb65ZNSoAO5/p5LyhHxLq15rKKod3/cv51+o/kPenUEMkDoAZc31v/TbbZPiJrqOi4y+CScgIIku9fuEy8m5WJirvc8wq7Gdn66kfc7/QhS2kvGVbHRhbUaLLR3OREbRLLqfPYWGPjjdppJsHJH6rDXx5Uf4KWg0zQVMLifhbkP0UMj2nK3UcuuVtqweRs9s3wN/f6hhTLbYeOW7aIxKOo4quLHMWFQMG7UUDppziF00uxpNH3SGLFPZp8D73wYJg7KBELM3MAkQrPZdvMVRAfhxktD26D/OubHgdsi5d4DPsI1T6E9kFv1WSpej3J5QWNSYgQDUnZlmJ4cmHxuB0QEMkDoQZepveQsyb6OXUb1woE3WV8rWL2ApWqBS88xQpp9Tcb1AJeOL2XXnU9Hx+qQSTCIo5oEZ5jlhnKFUcHFwU8F3QIcL4v/ik9E6JrQM+buiHUbttLiF7hdcS2tXLeRNmzeTlt37BQhpHR+8LjnpibxLxgzYghNGjuS5syYSFMPGkXDBpuXgpkbaYJP/QuC+NA0DAogtIvBPxfKfD+TQ4CBgQPoDg6k0kLVfVHPvdsR+Pefq0QrUyfw7+h+zb/PEajcHLQV5es5Tt0egSp6stbC0+6O1++092LbVQsolHfL8Sc1z8dJtPdll97Zc9rf59PezdIRSOC/jTbbLE5Ue9xKISMDCtMh8O+ZSeDX9wJH+bmN7G4zpgGv5Q15YmsdMxI8vlv/xWtygmbjI+5AgL9BsKR23v9+RkIAAU50WAQOvqwgQkc/N8RJRcQeGjbZkUSIGoRu/4R2/gQ6um/rWYZL93IXfaY6/27yX7xUIpAZhB56pZMFRemD+h9dvHD0pHORDZMv3u5DbORP9wI41X8hYnsbHPYclCoJF/He+PJBhwB2wbMJERjA1bLKEjv9WQQK6ZAtqW74JFwQkyY2vxwvmQNQdDxMvwcQEHYhGCC5qZkFcKDXocrvIJ2vsJ8vVWcu614/t17w3+4BuvjzvddvJv9hr49ABggH0CVOdxnJ1iq8i/2d8HCg6nORFNfN51JEDI0/n+ItVV2Hjo6ZiBqAAWKrsxz8+O0oaFSNASZcepfGdFw3sw7STunKGB6IpFdMj4d+GLSrIjGDMdDWRpsJYMme2xfR8sggIn6v+oPwO9htB6vgskNglVNibwAH1fcFfup2AL47Kfkj0930xmAcQOvwS+lUM0B4KV3t/F67LQK1xGoRcGkiB0jQJO6c+JyWALoFESv6KYEoL0B7UJgQ6ssZxWMVA4N0BT1AEA+aoDCWHPxocRs3bmUGAQVFcGBsQfWMhXgWxY6bRgHfbrtBKszK/Lm8FN5/d8Y+H7s6Ahkg5DsjR6BBEaiil1PVOpcMnA7BzotBQAAMYA0cgIA4kdEFuy6CdUCZgmFGAAdWUgiGU95To+Cz4U2kIouQTheMACCOEofoMLAMVsoJZQT08/vSAsZr23uOnhT1CWsbdAnzYXIEXlIRyADhJXW585vtCREoSigicFCDCdUdKM+MMoPvdFAA4NgF23366ZHyfOmIUFpCRgsbeIBI0X6ltIV4JdtDvnTW1EYn+AQPRkFHeJtPgv+6MIEQBkseaOhRtFSh77xohrR3hlU94Rrnc8gR6A0RyAChN1zF/B4OuAjUBxL0bcWyQwXDYOUEAQ2lsoQJEsMUwTDbSLsl8OJVAlg1rlBnTgMLaEGUYUr2uyBiNA2Cui9GISMfojSWGCxBrXZGh1wytX7A3dr5hHtRBDJA6EUXM7+VAysCRZAgeTF49EY2wYME7PO9PkH/DhoGP0pYmYjEZ8Ge7PiCAEJ89LwGIdpmxx1/7DpQqiBqFEx0iPKBAQdhC1ynAr6PdtRFp8/MHhxYd3M+294YgQwQeuNVze/pgIlAtS5BwYG6FrlJgPauQqnAAAUEh9KyiNKDnyDowAOaTPzfRJ6iAiL4pI45DDYTIboeRk+DBAgIykinaKYOiTie0xkYrZGZgwPmFs4n2osjkAFCL764+a0dOBFoFyi4aZlgAzxrENKsm7YZzZCUfwCTADYiju3uyGBDk3dgFKBHQDukKy0oONCyRDLmu6gvCJelCAz07DI4OHDu23ymvTsCGSD07uub390BFoHa2gSk9uifEMoNji1Q4GBdDwmLYB7KTgAJQWR7IdJkDQlhnHblAUP82hwUHIhQDkEfsX3fiREDYsng4AC7VfPpvgQikAHCS+Ai57d4YEUgaX10G/z4c0CDCrDgqhORWdCv4PeftlbWHxvf9pgmfEv+blpmChrspOwsUo+DDAzqvwL5mTkCjY1ABgiNjXc+Wo5A3RGoFjH6P0+FjH4zDq1jCipU0GB+fPZCfkwQ0rp/RvyZSgoio+C/jeBBfmqlApyrew08Magkc0mh7hsiPzFHoMERyAChwQHPh8sR6GwEqoCCgIGkFSHu0r0Nti9DeEYBaR7p3IOLFCbEPoNQIqhgChQs+L+M1EfJGTgLETt7C+Tn5wh0SwQyQOiWsOeD5gh0LgK1yw6evkea1+TsWybbbWssvkTFqRWljKY2KIgKy+dSHvOtL57HCXTu+udn5wh0RwQyQOiOqOdj5gjsQwRqgYUyq1DFC/hpmMYfCJ1QgBCwN1SoYUm9CBOqkEVFycBeOoOCfbjo+U9zBLohAhkgdEPQ8yFzBLoiAiWxYSJorE7etn93hy9yC8Uz86AgiiP1WTXEhx6X2MtlcNAVVzy/Ro5AYyOQAUJj452PliOwXyLQHqvgD5j4LezVmXQgKsziw72Kav6jHIGeGIEMEHriVcnnlCOwDxFQsFBgEDryQ+rs8SqIh8wSdDaI+fk5Aj07Ahkg9Ozrk88uR2CfI1DJGnQWMFRWInKL4j5fnPwCOQI9OAIZIPTgi5NPLUcgRyBHIEcgR6C7IpABQndFPh83RyBHIEcgRyBHoAdHIAOEHnxx8qnlCOQI5AjkCOQIdFcEMkDorsjn4+YI5AjkCOQI5Aj04AhkgNCDL04+tRyBHIEcgRyBHIHuikAGCN0V+XzcHIEcgRyBHIEcgR4cgQwQevDFyaeWI5AjkCOQI5Aj0F0RyAChuyKfj5sjkCOQI5AjkCPQgyOQAUIPvjj51HIEcgRyBHIEcgS6KwIZIHRX5PNxcwRyBHIEcgRyBHpwBDJA6MEXJ59ajkCOQI5AjkCOQHdFIAOE7op8Pm6OQI5AjkCOQI5AD45ABgg9+OLkU8sRyBHIEcgRyBHorghkgNBdkc/HzRHIEcgRyBHIEejBEcgAoQdfnHxqOQI5AjkCOQI5At0VgQwQuivy+bg5AjkCOQI5AjkCPTgC/wWQlwkiwNMbTgAAAABJRU5ErkJggg==;" vertex="1" parent="7">
                    <mxGeometry y="20" width="586.66" height="440" as="geometry"/>
                </mxCell>
            </root>
        </mxGraphModel>
    </diagram>
</mxfile>